<mxfile host="app.diagrams.net" modified="2023-05-18T16:38:25.066Z" agent="Mozilla/5.0 (Macintosh; Intel Mac OS X 10_15_7) AppleWebKit/537.36 (KHTML, like Gecko) Chrome/113.0.0.0 Safari/537.36" etag="epEW_l4Ljsfs2swqkdQR" version="21.3.2" type="github">
  <diagram id="TDCuqssM8piexz_-Gnl0" name="Page-1">
    <mxGraphModel dx="2074" dy="1131" grid="1" gridSize="10" guides="1" tooltips="1" connect="1" arrows="1" fold="1" page="1" pageScale="1" pageWidth="1100" pageHeight="850" math="0" shadow="1">
      <root>
        <mxCell id="0" />
        <mxCell id="1" parent="0" />
        <mxCell id="V9Rlgw_xiWvQEG7U__is-2" value="" style="shape=image;verticalLabelPosition=bottom;labelBackgroundColor=#ffffff;verticalAlign=top;aspect=fixed;imageAspect=0;image=https://external-content.duckduckgo.com/iu/?u=https%3A%2F%2Fcdn2.iconfinder.com%2Fdata%2Ficons%2Fmodern-future-technology%2F128%2Fsmart-speaker-pod-thin-512.png&amp;f=1&amp;nofb=1;strokeColor=#737373;" parent="1" vertex="1">
          <mxGeometry x="220" y="250" width="80" height="80" as="geometry" />
        </mxCell>
        <mxCell id="V9Rlgw_xiWvQEG7U__is-3" value="" style="shape=image;verticalLabelPosition=bottom;labelBackgroundColor=#ffffff;verticalAlign=top;aspect=fixed;imageAspect=0;image=https://external-content.duckduckgo.com/iu/?u=https%3A%2F%2Ficonsplace.com%2Fwp-content%2Fuploads%2F_icons%2F000000%2F256%2Fpng%2Fiphone-icon-256.png&amp;f=1&amp;nofb=1;strokeColor=#737373;" parent="1" vertex="1">
          <mxGeometry x="220" y="410" width="80" height="80" as="geometry" />
        </mxCell>
        <mxCell id="V9Rlgw_xiWvQEG7U__is-21" style="edgeStyle=orthogonalEdgeStyle;curved=1;rounded=0;orthogonalLoop=1;jettySize=auto;html=1;exitX=0.5;exitY=0;exitDx=0;exitDy=0;fillColor=#f5f5f5;strokeColor=#737373;" parent="1" source="V9Rlgw_xiWvQEG7U__is-5" target="V9Rlgw_xiWvQEG7U__is-2" edge="1">
          <mxGeometry relative="1" as="geometry" />
        </mxCell>
        <mxCell id="V9Rlgw_xiWvQEG7U__is-22" style="edgeStyle=orthogonalEdgeStyle;curved=1;rounded=0;orthogonalLoop=1;jettySize=auto;html=1;exitX=0.5;exitY=1;exitDx=0;exitDy=0;entryX=1;entryY=0.5;entryDx=0;entryDy=0;fillColor=#f5f5f5;strokeColor=#737373;" parent="1" source="V9Rlgw_xiWvQEG7U__is-5" target="V9Rlgw_xiWvQEG7U__is-3" edge="1">
          <mxGeometry relative="1" as="geometry" />
        </mxCell>
        <mxCell id="V9Rlgw_xiWvQEG7U__is-5" value="" style="shape=image;verticalLabelPosition=bottom;labelBackgroundColor=#ffffff;verticalAlign=top;aspect=fixed;imageAspect=0;image=https://external-content.duckduckgo.com/iu/?u=https%3A%2F%2Fhomekitnews.com%2Fwp-content%2Fuploads%2F2018%2F03%2Fcropped-homekit-logo.png&amp;f=1&amp;nofb=1;strokeColor=#737373;" parent="1" vertex="1">
          <mxGeometry x="340" y="330" width="80" height="80" as="geometry" />
        </mxCell>
        <mxCell id="V9Rlgw_xiWvQEG7U__is-20" style="edgeStyle=orthogonalEdgeStyle;curved=1;rounded=0;orthogonalLoop=1;jettySize=auto;html=1;exitX=0;exitY=0.5;exitDx=0;exitDy=0;entryX=1;entryY=0.5;entryDx=0;entryDy=0;fillColor=#f5f5f5;strokeColor=#737373;" parent="1" source="V9Rlgw_xiWvQEG7U__is-6" target="V9Rlgw_xiWvQEG7U__is-5" edge="1">
          <mxGeometry relative="1" as="geometry" />
        </mxCell>
        <mxCell id="V9Rlgw_xiWvQEG7U__is-28" style="edgeStyle=orthogonalEdgeStyle;curved=1;rounded=0;orthogonalLoop=1;jettySize=auto;html=1;exitX=1;exitY=0.5;exitDx=0;exitDy=0;strokeColor=#737373;" parent="1" source="V9Rlgw_xiWvQEG7U__is-6" target="V9Rlgw_xiWvQEG7U__is-10" edge="1">
          <mxGeometry relative="1" as="geometry" />
        </mxCell>
        <mxCell id="V9Rlgw_xiWvQEG7U__is-6" value="" style="shape=image;verticalLabelPosition=bottom;labelBackgroundColor=#ffffff;verticalAlign=top;aspect=fixed;imageAspect=0;image=https://external-content.duckduckgo.com/iu/?u=https%3A%2F%2Fupload.wikimedia.org%2Fwikipedia%2Fcommons%2Fthumb%2F6%2F6e%2FHome_Assistant_Logo.svg%2F1024px-Home_Assistant_Logo.svg.png&amp;f=1&amp;nofb=1;strokeColor=#737373;" parent="1" vertex="1">
          <mxGeometry x="500" y="230" width="160" height="160" as="geometry" />
        </mxCell>
        <mxCell id="V9Rlgw_xiWvQEG7U__is-27" style="edgeStyle=orthogonalEdgeStyle;curved=1;rounded=0;orthogonalLoop=1;jettySize=auto;html=1;exitX=0.5;exitY=0;exitDx=0;exitDy=0;fillColor=#f5f5f5;strokeColor=#737373;" parent="1" source="V9Rlgw_xiWvQEG7U__is-7" target="V9Rlgw_xiWvQEG7U__is-6" edge="1">
          <mxGeometry relative="1" as="geometry" />
        </mxCell>
        <mxCell id="V9Rlgw_xiWvQEG7U__is-7" value="" style="shape=image;verticalLabelPosition=bottom;labelBackgroundColor=#ffffff;verticalAlign=top;aspect=fixed;imageAspect=0;image=https://external-content.duckduckgo.com/iu/?u=https%3A%2F%2Fwww.weehooey.com%2Fwp-content%2Fuploads%2F2018%2F11%2FProxmox-logo-stacked-840px.png&amp;f=1&amp;nofb=1&amp;ipt=99387b92d728869ca50d11198693cdfe2ee886c432f05959c9118258ba64bdd5&amp;ipo=images;strokeColor=#737373;" parent="1" vertex="1">
          <mxGeometry x="540" y="472.54" width="84" height="80" as="geometry" />
        </mxCell>
        <mxCell id="V9Rlgw_xiWvQEG7U__is-23" style="edgeStyle=orthogonalEdgeStyle;curved=1;rounded=0;orthogonalLoop=1;jettySize=auto;html=1;exitX=0;exitY=0.5;exitDx=0;exitDy=0;entryX=0.5;entryY=1;entryDx=0;entryDy=0;fillColor=#f5f5f5;strokeColor=#737373;" parent="1" source="V9Rlgw_xiWvQEG7U__is-9" target="V9Rlgw_xiWvQEG7U__is-3" edge="1">
          <mxGeometry relative="1" as="geometry" />
        </mxCell>
        <mxCell id="V9Rlgw_xiWvQEG7U__is-26" style="edgeStyle=orthogonalEdgeStyle;curved=1;rounded=0;orthogonalLoop=1;jettySize=auto;html=1;exitX=1;exitY=0.5;exitDx=0;exitDy=0;fillColor=#f5f5f5;strokeColor=#737373;" parent="1" source="V9Rlgw_xiWvQEG7U__is-9" target="V9Rlgw_xiWvQEG7U__is-7" edge="1">
          <mxGeometry relative="1" as="geometry" />
        </mxCell>
        <mxCell id="V9Rlgw_xiWvQEG7U__is-9" value="" style="shape=image;verticalLabelPosition=bottom;labelBackgroundColor=#ffffff;verticalAlign=top;aspect=fixed;imageAspect=0;image=data:image/png,iVBORw0KGgoAAAANSUhEUgAABCkAAAJYCAYAAABPWLw5AAAABmJLR0QA/wD/AP+gvaeTAAAACXBIWXMAAA3XAAAN1wFCKJt4AAAAB3RJTUUH4QYBCyQpmT9maQAAIABJREFUeNrs3Xt8n2V9//H3575z6JEW2mIBQQUUlDPhICcXpE3yTZq0SfiqPyeKU+s2dR7mT93UmeEO+nMetjnncB4mMue+Jq1NkzRpkW4IVUtRykCGCIocpRV6Stvke9+f3x8tCNrm0KbJfXg9H8Mp/Ta5rs993fd93Z/vdX8uCQAAAAAAAAAAAAAAAAAAAAAAAAAAAAAAAAAAAAAAAAAAAAAAAAAAAAAAAAAAAAAAAAAAAAAAAAAAAAAAAAAAAAAAAAAAAAAAAAAAAAAAAAAAAAAAAAAAAAAAAAAAAAAAAAAAAAAAAAAAAAAAAAAAAAAAAAAAAAAAAAAAAJhYRggAAACyrba2tmLmzJmz43hGxXAQzzZTaB4dFQRB4LHN+e3Pe6BZQRxXjvQz49h3WhAOS1IQxMNR7Duf+bMw1tPDQejB8IwnBgZu2MURAACMVQUhAAAASK6Ojo7gljvuWFDhlfMV+7Emn+9uc9x8rszmBK457pojszlSPEdmc8w1x2VHS14paZYklSUpiBRKkktSII+f/R/PY7Hko3yXZYE9+3fj2GTP+XwcSKFcVrXzUkkbOIoAgLEiSQEAADAFisXi9B07dJKH8Ynm/sLY7ATzeIECW2DSQncdK2nBho2bF1SoIngmIeAy7fs/k3z/v7Vnkg3P+XcHSD5MsnKlle/kSAMAxoPXPQAAAI6Apqamo8tW+VJX8BK5nygLTjTXiyQ/UdKJkhZkuf8uu2ugp/NsRgIAYDxYSQEAAHCIamuvnVY9e8cpFsevcOlkk5287//r5LJ0svyZb4RMcs9VbMz9dkYIAGC8SFIAAACMoqWlZfbwcMUZcehnmdtZLp0p0xny7cfqOfUbnklDOCGTAruDIAAAxoskBQAAwH4dHR3B9zbeeVognSO3swPpTDeduTfSixXI5PabBASZiBGZ4k1EAQAwXiQpAABAbi1uaTne4sqaQF7jspoNGzdfGsqO2f+UTR7i0EUUzQQAHAqSFAAAIBcKheKCqCK+TJFfZKYLJLtAkR8teVJ2w8gMl93T3d09SCQAAONFkgIAAGTS4paW48MovCy24HJzXRYrOt/ifTt3PvMojSODopkAgENFkgIAAGTiubixcemZUVDxe4r9cpmuUKTjfd8DM9GZbBTNBAAcIpIUAAAglerqWo8NKvV7ki1yVyEynSh/ds9PTKEgYiUFAODQkKQAAACp0NzcPGMorrpU0qJ9//j5z6YkSEwkSVRRMbyZMAAADgVJCgAAkFgNDcteHIdBs0ktQ7FeJXkVUUk2imYCAA4HSQoAAJAo9c3tZ5h70d2WuPx8Y51EqlA0EwBwOEhSAACAKVUsFqu2D0aLJVsqebNiX8iWoClG0UwAwGEgSQEAACZdsVgMd+wpXxJ7UNw+GP0fSQtISmSDx9pIFAAAh4okBQAAmBTPS0zsjl4nt2ONxETWlOfMDCiaCQA4ZLzjCQAAjqiGJa2XeBy8UeZXS5pPRLLLZXcN9HSeTSQAAIeKlRQAAGDCLW5pOT6IK4uK/Q/cdbaMFRN5QNFMAMDhIkkBAAAmRG3ttdOmzdzW7Ba8UZE3SF7Bms288U3EAABwOEhSAACAw7K4cdm5ZsEfmra/zmVz5KyayCsLxM4eAIDDQpICAACMW6FQqPZgWovLlktaREQgqTx7esWPCQMA4HCQpAAAAGNWKCw7JQ7Ct8XyP5C0gIjgWa57SqXSbgIBADgcJCkAAMBorL6prVHSu2JpseQBIcEBUI8CAHDYSFIAAIADKhaLVdt3l18ntw9IOoOIYCRmYmcPAMBhI0kBAACep7m5ef5QXPGWbYPRu0x2AhHBWMRurKQAABw2khQAAECStHhJ+0uDWO/bG/ubTJrO7qEYh/KcmcFmwgAAOFwkKQAAyLn65vYz5P5Buf8fmSpITuAQ3E3RTADARCBJAQBATjU2Lj0rCsL/q9hfLykkIjh0zqseAIAJQZICAICcWdy47NzAwj+P5FfLxcIJHDYT9SgAABODJAUAADmxuLH9gsD845IaJCcgmDAW6w6iAACYCCQpAADIuIaG4mleEX1Y7r8vKSAimGDlWbPCOwkDAGAikKQAACCjCoW2F3qgj7qiP5Bzz8cRQ9FMAMCEYcICAEDG1NcXj1FF/IFI/icmTSciOLIomgkAmDgkKQAAyIiamuWV84/b+sfyqEPSXCpiYjJQNBMAMJFIUgAAkAH1Te2LpC2fk+sMooHJFDtJCgDAxCFJAQBAijU0FE+Lw+gzkjcSDUyB8pyZwWbCAACYKCQpAABIoataW+eFQ3adK1pu3M8xVVz3UDQTADCRmNQAAJAuVr+k9RoN2d9JWkA4MLWj0W8nCACAiUSSAgCAlFi8pP2lgcf/LLeriAaSgKKZAICJRpICAICEKxaL03fsjj7o7h+SrJqIICkomgkAmGgkKQAASLC6wrLCjsHo8y6dTDSQMBTNBABMOJIUAAAkUO2yZXOnDQefdGm5Ew4k090UzQQATDSSFAAAJEzDkvbGeNivd+kEooHkcl71AABMOJIUAAAkxLOrJ9yXG+FAwlE0EwBwJJCkAAAgAVg9gbShaCYA4EggSQEAwBRqaWmZvTeq+Ad3v5bVE0gRimYCAI4IkhQAAEyRhua2C/dGulHSS4kGUoaimQCAI4IvbQAAmGTFYjHcNhh/yOQfk1RJRDARXNpt0jZJT0vaZu7b3IJtJn/KXU/LtE1m2901JMXbAymKXU/LFSnwbUEYDpcj7ZQkr4q3TRsaip/78+M4jvr6+rYTaQDAkUSSAgCASbSouXhSGEc3SHoV0cAY7JX0sKRHXHpUZr8KYn/SA3/C3J6Q+ZNlD54Ihmc8MTBwwy7CBQBIO5IUAABMkoYlba3u9mXJjyYa2D8Ve0ru90t6wMx+KY9/GYfBQx7p4UoFD/f2lh4nRgCAXN0ZCQEAAEdWTc3yyvkvePITMnsv995c2ibpXpPul+n+WP5TxcH9UXV8/00rVmwlPAAA/AYTJQAAjqAlS4onlD36lkuXEY3MG5L8fim428zvkfvdHgT39Hd33iPJCQ8AAKMjSQEAwBFS39S+SOY3ynUs0cjcFOopyTdJtskUb7LY77j44nMf7OjoiIkNAACHcYclBAAATKyOjo5gw8a7PiL5X0gKiUjq7ZJ8o9x+KNmmyHT7up7OBwgLAAATjyQFAAATqLZYnFU1GH3dpFaikVqPyWyTPP6eBbrVyns29vX17SUsAAAceSQpAACYIIua2k8OpJUmP4topMqDLn1X5jfHVnHLuu7SQ4QEAICpQZICAIAJ0NDcerm7dVJ/IhWelGy9S+ss0K393Z13ExIAAJKBJAUAAIepoantj136nKRKopFIkeS3SeqxMOhbs6rzLrHbBgAAiUSSAgCAQ1RbW1tRPfOYf5D0R0QjcbaatEZuPR4F/f39pV8TEgAAko8kBQAAh6C2WJxVPRj9h6QmopEQrl/K1GmBd86eVrGhVCpFBAUAgHQhSQEAwDg1NhYXRhavlryGaEy5h9xsZWBxaU33ilvFaxwAAKQaSQoAAMahUCi+Ig6iHkkvJhpT5lFJ34zd/mNtb+fthAMAgOwgSQEAwBjVNV19qSn+jqT5RGNyubTbZKvddMPQzq1969evLxMVAACyhyQFAABjUN/Y3i7zGyVVE41JE0ta6+Y3aGjWyoGBG3YREgAAso0kBQAAo2hoan+Dy78qqYJoTIrHJfu3SLp+XU/nA4QDAID8IEkBAMAI6htb3yGzf5AUEI0jKpb0XZNf/+TjC1Zu2nT9MCEBACB/SFIAAHAQDUvaOtz1MSJxRD1tsn9VFP3TmjUrf044AADIN5IUAAAc4P5Y39j6WZm9m1AcMfeZ9Pd7ZoRfX18q7SQcAABAIkkBAMDv3Bsbmtq+6NJyQnFErDWzz73ygrPWdHR0xIQDAAA8byJGCAAA+M19sa6p7fMm/TGhmFCxzHql6OP9q1f+kHAAAICDTsYIAQAA++6JJCgmXCxZZxAHHX19pXsIBwAAGHVCRggAAHnX0dERbNh41xclfxvRmBBDcvuKxdEnKYYJAADGg/3eAQB5Zxtu3/wvkt5KKA5bWa4bLI6vIzkBAAAOBUkKAECu1Te2/p2cBMVhiiXrDD3+SG/vivsIBwAAOFQkKQAAuVXf1HadpPcRiUNnrm4P7c/6uzvvJhoAAOCw5xaEAACQR3VNbe8y6R+IxKHye8yC/7tmdWcvsQAAABMlIAQAgLypa2p/k0l/TyTGz6VHXPb2o2ZUnE2CAgAATDRWUgAAcqWhqbXosm9KConG2Lm0W65PVofDn+ru7h4kIgAA4EggSQEAyI26xrZXmWlAUjXRGM9swVZHrnev6+l8gGAAAIAjOu0gBACAPCgUiq+Ig/h7kh9NNMY8SXggdn/3QO+K1UQDAABMBmpSAAAyb3FLy/FxEPWRoBizIcmv27PrqDNIUAAAgMnEFqQAgExraWmZvTeq7JH8JKIxBqYfBZG9pa+v60cEAwAATDZWUgAAMqumZnnlUDn8tuTnEo2RubRb8g8dNT28sK+vkwQFAACYEqykAABk1vyFW//JZXVEYlQ3x7K3ruvpojBmTjQ1NR09HMyYG5bjuWVTGJjmehxVBoHNcrdpblY50NP5FSIFAJhsJCkAAJlU19T2LsnfRiRGtEfyjksuPOdTHR0dMeFIp2KxWLVtj05Q7MeZRwtMttDNXiD5ApMWuny+FMyVfK6kuZLmliVZHCkOfrOs1oJALkkmmfwOSSQpAACTjiQFACBz6pvaF0n+GSJxcC67Kwj1hjWrujb396wgIAlWKBSqpVmneBCd6mYvMdeLJD/RpRMlnbR9MFpoz+zYZrYv0fC8/7Rn/9tYmXQrkQcATAWSFACATKlvKZ6qKPoW97iDKkv6262Pz/v4pk3XDxOO5CgU2l5YrgheEcTxWS691OSnSnZqLJ0oRfsWPLiPM91waGIjSQEAmBpM4AAAmbFvJ49opaRjiMYBPSwFr+/v+fYthGLqNDc3z9gbV59rHp3nZmcF0pkunRFLc4N431s39pz/nAphRJICADA1SFIAADKho6Mj2HD7Xf8u+RlE44B6ylX+pptWfHsroZg8tbXXTqucvr0mCO0CxX6+TDVDsU43xaHMDuFFjEnxi76+roc5egCAqUCSAgCQCRs2bv6wpCVE4neUzfTXr7zg7OsojnnkXdXS8oIwrrwokNe46zJp++WSpsl9KhdGjItJ3+NIAgCmCkkKAEDq7S+U+TEi8Tsedrer+3s6f7BmdRfROAIaG4sLY8VXuulKya9UpFMlT+LqiDFz9w0cWQDAVCFJAQBItbqlS09U2f9dUkg0nveoeUvoFa/p7S09TiwmTm2xOKt6V/kqmS2S/NWRoldkrY+xnHoUAIApQ5ICAJBaNTXLK4Pylm+6tIBo/IZJ1z/5+IJ3snvHxFjU1H5yIC0yU7MGo8Uyq3420pnj2+fOrLyLow4AmCokKQAAqbVg4ZZPu3QZkXjWoFxvW9Pb9e+E4tB1dHQEt/5g8yWBeZvMlkp+yr7n9+z33VzfL5VKEaMAADBVSFIAAFKprrCs4NI7icSzHrNAS9d0d20kFONXU7O88pjjf32lxXHbho2blwaBFmZzpcTI3AJe9QAATCmSFACA1Fnc0nK8RcHXlcenyAM+WWpzFIbN67pLDxGM8alrWlYjC99ovuW1ivWC3A+lOGZnDwDAlCJJAQBIlY6OjmDDxs3/Jmk+0ZAkrQl892v7u/u2E4qxKRSKr4iD6PclvV7Si+VOUPYpD82q+CFhAABMJZIUAIBUue2Hd33ATIuIhCTpc5dcePafdnR0xIRiZC0tLbP3xmGr3K6JFV0lVuEcgN25vlTaSRwAAFOJJAUAIDUWN7ZfYOZ/SSTkZrpuzequjv6eLqIx0pgptF0WBHrr3khFSTOJyEiDStSjAABMOZIUAIBUqK29dlpg2/5Nsqqch6Lssrf3r+78CqPiwAqFQnUcTnutPHiv5OcSkbEJnHoUAICpR5ICAJAK1TO2/bVkr8h5GHa4e/tAb9daRsTvKhSWnRIHwR/Fsj+Q+9G52DN0AllsG4gCAGDK70eEAACQdA1LWi9xt1skhTkOw9NBrEJfX9f3GRHPV9/cdr5c75Hr/4gvYA7Vz/t7ul5CGAAAU40bOQAg0Zqbm2cMxfZvynOCwvQryev6+lbcyYj4TVTqm9qvkundin0J4TjcIUY9CgBAMpCkAAAk2lBU8TcyvTTHIXhMZov7u7vuZjTs24L2to13vsZkH5H8DN7omDC3EQIAQBKQpAAAJFZ909VXSPG7chyCn3sQvnqgu/Rg3sdCR0dHcNvtdzVt2HjXdSajGOZEC42imQCARAgIAQAgiZqbm2dI8ZdzfK96KJJdRYJCVtfU+roNGzffbe6r2K3jSPDts6sDVuoAABKBlRQAgEQajis/IeX0NQ/XLyOzK9f1dD6Q5zFQ39S+SPJPSjqfM+JIsg2lUikiDgCAJCBJAQBInIbm1ss91jty2v2HA4+v7O9dmdsERV1j+8Vm8Sckr+VsmAxGPQoAQGKQpAAAJEpNzfJKj7f8s/L5msdjsdmr+/tW/iyPx37JkuIJw4r+Vu5vkIxt0ieJxzH1KAAAiUGSAgCQKPMXPvk+yc7MYde3BbE19fd1/jRvHd+3zWzFu4Y9+oikWZwFk6o8NKvih4QBAJAUfEsBAEiMRc3Fk8I4ujuHD6qDFnj9mu4VuftGu66p9XUm+5SkF3IGTMlUcFN/T+cFxAEAkBSspAAAJEYYR/+o/CUohj2Or+7vWZmrBEWhsOyUOAg+L6mBkT+FnFc9AADJQpICAJAIdc3tyxR7S94eEeW6dqBvZV9eOlxTs7xy/sIn3xfLOiRNY+RPLTPdShQAAElCkgIAMOX21STwz+aw6x/r7+3697x0dnGh7bIgfPLLcjuNUZ+QiaBVsLMHACBZ9yZCAACYasNx1V9K/uI89dml/xjo6fqrPPS1WCxO3z4Yf0zy98stZMQnxs9Xry49QhgAAElCkgIAMKUaG5eeFcnfk6c+u+u/5swM3yTJs97XhiVX124fjP5V0imM9oQxsYoCAJA4JCkAAFMqsvDTObsf/Sz0sFgqlYay3MmamuWVC47b8mH3+KOSAkZ68rgbRTMBAIlDkgIAMGX2F8tcnKMubw3dG3v7Sk9muZOFQvEVcbjlG+46j1GeXEFI0UwAQALvT4QAADAVisVilcX+yRx1eUhSsbd3xX0Z7qPVNba+Nw6iTSJBkXTbZlcHdxMGAEDSsJICADAlduyO3ynpZTnprrv5HwysXnFzVju4aFFxTkV19K8uXc3oToUNpVIpIgwAgKQhSQEAmHT19cVj3KMP56W/bv53A6tX3JjV/i1ubL8gtOhbLp3M6E4Hc171AAAkE697AAAmX0X0V5KOyUlvN2x9bEFmEzL1TW3vCcxvI0GRLrE7O3sAAJI5TSQEAIDJtKip9eWS3paLzpp+VamwuGnT9cNZ61pt7bXTqmdu/2dJ1zKqU6c8NKvih4QBAJBEJCkAAJMqlH02J/ef2GN/w+re0iNZ61jd0qUn2vD2TkkXMqLTx6Qfry+VdhIJAEAS8boHAGDSLG6+uk5SfU66+9GB3hVrs9ap+qa2K60c3iEjQZFWsRmvegAAEoskBQBg8m46cXxdTrrac8mFZ38ia52qX9L6ZklrJM1nNKf4PPT4e0QBAJDY+xQhAABMhoam1jZJF+egqw+Vq/xNHR0dcYb6ZA1L2jrk9hVJVYzmlB/M2DYQBQBAYu9ThAAAcKQVi8Vw+2B0p6QzMt7VvRboijXdXRuz0qFCoVAdB9O+LtlrGMmZ8PP+nq6XEAYAQFJROBMAcMRt3xW9Xpb5BIVk9sE13Z2ZSVDU1V0z021nl2R1jOJscDmvegAAEo3XPQAAR1RNzfJKmT6W/Yc/9fav7vyHrPSnqanpaKvctdaNBEWWmOlWogAASDJWUgAAjqh5C7e+VdIpWe6jS49UB8Nv2vdf06+xsbiw7FG/TGczgrMljGOSFACARGMlBQDgiKmtvXaayf88492MFfsbu7u7t2ShMw0Ny14cWXQLCYos8u0zZ1bdQxwAAEnGSgoAwBFTPXP7OyS9MMt9NNPH+/tWfDcLfVnU1PryWLbWpBMYvZkcrbeVSqWIOAAAkowkBQDgiKitvXaatP192e6l3zJ7esXHs9CT+iXLLpJbn6RjGL2ZEUn6lWRPuPxRyW8gJACApCNJAQA4Iqpn7XirXMdnuIu7IgXXZuGb6X0JimCdpNmM3NQYkvmDcrtf7vebgkc8iJ8wD54IvPzo3gr/1RXnn/9kR0dHTKgAAGlihAAAMNFqapZXzl+45aeSXpTVPrrs7QM9ndenvR8NLe1ne+Q3ixUUSVSW/D4p+Knk98v8fnlwv0XR/bNnV/6SVzcAAFnESgoAwISbt3DrNcpwgsJM3+1f3fmltPejvqV4qkfRGpGgSIJhyX8qs02SbTKLN1WqfEd3d/cgoQEA5AlJCgDAhCoWi+H2weiD2e2hby9bxZuV8u1GGxvbXhRF0U2SjmPUTrpYss3y+L/Mgts90I+Omhbcy8oIAABIUgAAJtiOXfFrZHpZZjtoev+67tJDae5CXV3rsZFpjaSTGLGTIpL8f032PcnXDVfpuzet6NpKWAAA+F0kKQAAE/oIH5v+LKsFj8z03TWrV/xrmvtwVWvrPBuymySdznA9ou6T+2qXbo6HKm5Zt660jZAAADA6khQAgAlT39jaIvlZGe3eoMrxW5Ti1zxaWlpm791rfTKdyWidcJFJ33fTKjdbNdDdeS8hAQBg/EhSAAAmjtkHsto1d/t4/5qVP09r+/fXCvmmTBcyUCfMoEv9Zt4dRBWr+/pKTxISAAAOD0kKAMCEaGhuu9BjXZrR7t0X+uBn09yBHYPxpyQ1MVIngm1y6fpp4fA3V61atYN4AAAwcUhSAAAmhMf+fsmy2rc/6uvr25vW9tc1tf+By9/LKD0sD0n2zSCOvtTXt/JnhAMAgCPDCAEA4HAVCm0vjAM9IKkygzfKG9f0dL0hre2vK7S+2gJbk8VjMwn2uHSjx/rq2r6uWwkHAABHHispAACHzQN7t+QZfAj27VEYpbbOxqKm9pNN/i2RoBivJ8z0RYvCf6LOBAAAk4skBQDgsNQWi7N8MHprJjtnwV+sXbXi0TQ2vb6+eIwU9Umazygd6/HWj9zti0O7Zn99/fqv7SEgAABMPpIUAIDDUjUYvVnS3Ax27b4tj837QhobXltbW2GVUcldL2OEjs6lXlPwif7V376FaAAAMLVIUgAADllHR0ew4fY73yHPXokjM31o06brh9PY9uqZx/ylu17NCB3lGEu3WuAf7ute8V9EAwCAZCBJAQA4ZLfdfleTuZ2Wwa59b83qrhVpbHh9U9uVkj7I6BzRBrPgo2tWf/smQgEAQLKQpAAAHDr3P8xkrxSk8iG/vr7tOEnflBQyOA/ENpn04TU9nf3EAgCAZAoIAQDgUCxqLp5kUn3W+uXStwZ6vn1b2trd0dERqEJfl/QCRufv+LXM3nPUjOBiEhQAACQbKykAAIckjMvLJcvaN/Z7Y9mH09jw2364+aNmWsTIfJ5YphurbPh93d3dWwgHAADJR5ICADButbW1FZK9OYNd+9K6ns4H0tbousa2V5npo4zM5/lvmf9J/+oVdxIKAADSgyQFAGDcqmYds0yu4zPWrT1BrE+mrdGFQnFBbBF1KJ7l213Bewd6Or8qyYkHAADpQpICADBu5np75h5tza7v6+t8OG3tjoPy5yU7nlEpSVoXBRVvWdddeohQAACQThTOBACMS6Gw7BRJr85Yt/ZUKfh/aWt03ZL2Zslek/cx6dJuyT90yYVn15OgAAAg3VhJAQAYlyi0t5tnLsn9xdWrS4+kqcH19cVj5NH1jEjdZmH4pv5Vpfv7e1YQDQAAUo4kBQBgzGprayvM7ZqMdWtPHJY/lbpWh9FnJS3M8XB0N/vHrY/Ne/+mTdcPc3YCAJANJCkAAGNWNX3u4gw+GH9x7apVj6apwXWFZQWZ3pjjobjD5G/pX91V4qwEACBbSFIAAMbMLHhTxro0HLo+l6YGFwqFo2IL/iXHw/DeIA7b+/pK93BGAgCQPRTOBACM+eHYTS1Z6pPLv9Xb2/WLVLU5mP4pmU7M4xh0+TeqguEaEhQAAGQXKykAAGMSh9Nea67pWepTGAefSVN765varnTpbTkcfm6m6/pXr/hLSc7ZCABAdpGkAACM8TFRmSqYae4DfX1dP0pLe5ubm2cMxfqSJMvZyCu77B39qzvZyQQAgBwgSQEAGFVDw7IXu+zyLPXJLUjVjh57vaLDpFPyNfJ8uxS0D/R0ruMsBAAgH0hSAABGFQfBmyxT3+Dbj/tT9ODb2Nj6ssjt3Xkacy49EoRB45pVnZs5AwEAyA+SFACA0R/pTa/PVH/kn09Te8tmnzWpKkdD7qEwjl/d17PyZ5x9AADkC7t7AABGVCi0nyfpZRnq0tOVwfA309LY+qa2JpMaczTkfhHJruzrI0EBAEAekaQAAIwoMi9mrEtf7u7uHkxDQ4vFYpXMP52j4fZzD8Ir1/V0PsCZBwBAPpGkAACMyExZSlJ46J6aXSK2747eI7fTcjLUfhrEumKgu/QgZx0AADmeexICAMDB1DUtqzEFt2eoS2v6e7oKaWhoY2NxYWTl/5XsqBwMtYeCWJf19XU9zFkHAEC+UTgTAHBQprAoeWb642ZfSEtbYyt/IicJiq2RvKG/bwUJCgAAQJICAHBwJi9mJ0WhR+dMD3rT0NC6pmU1Lrsm6+PLpd0ea+m6vhU/4WwDAAASNSkAAAfR0Nx2oUsnZ6U/Zv71UqkUpaGpsuDzObhHl00qru3rupWzDQAAPIMkBQDgwNzbMvVE7Pp6GtrZ0NTWbK5XZn54yd7e39PVw4mGKfy1AAAgAElEQVQGAACeiyQFAODAD5FuSzPTF9P31/Wk4pUCc9lfZn1smeyzAz2dX+EsAwAAv42aFGOYS9U3tT0paV7G+3lvf0/XyzncyVa3dOmJA9/5zi+JBI60QmHZKbGUmWuCyf8tFef4krbXyP3cbI8uv2nPrl9/gLNsvOdkoXo4mHZyheylMjs1ll5kHi+QbKGkBZIWyNXf39v1pqT3paZmeeW8hVu2mTSdI4t88Jv6e1YsSkNL65va7pLsJ27eOWd6uKpUKu3m+CVXbW1tRfWsuedLdo48OMXkp7jpFLnmSjZX8hmSqiXFkm2TfIekpyS7T4rvMwX3RqYfrF3d+VOSFCmyeEn7qXKfl/mOmjZytFMgCi9uamramZfuBkGwt7u7e5ADPwVDzawlQ3tU76nwoW8lvZHFYjHcPhh9LOND6+dVQfl1/evXlznLDq6xse1FsXmNy2oknS/p5bF0YigFLknu+/eQ/62zNPANaejfvIW/OtsUkKBAbpjZ99LQzrrm4ksUR2dKfqa5itsGo931Te2r3XTD0M6tfeu5didCodB+XhzEyyS7QtJFcs3c9ye+bz+2ZyueP6/0eSD50ZKOlnSS5OdIJpcrcKmuqe0RyW+WaY2GZq0cGLhhF0mKBAtdF3seOhr7DzjaKbjJxbq6bNWl3HQ41vslfZojP/mCwJZ4Zi5+vqqnp+eppLdy22D8BsvQ6pUD2Bl61NLd3b2FM+z5l/aGlvaz4nJ8lZldJeniSJr/OwmIscxZ4jgVRUjN7EI5Bx75EceejgLBXr70udeefaudvGiuYvXMYx5uWNL2hUob/hLX8cnX0FA8zcPyNZK9Jpa/9FDuESNel6UTJHuDXG9Q5a6d9UvaVsjt6/09netIUiTxXJVfnIsZUmg/5Gin4UDponzd1PV9DvrkW7SoOMc9uiIzp43ZfyS9jTU1yysDbfmLLD+3meyPenu/cxdn2L5zrKI6bnb3JQp0pUd+rNlhTzifvuii8+7u7f1OGiZXFzIKkCNRPFSRinm2uV02wh+/0F1/s9crP9rQ1HZDHISfGOguPcjhPcLJiebWyz0O/sQVtUkWTtKvnSXXNZJfU9/YtlmBf/qo6RU3TuYOaSQpRr+RXizLfC/3Wnn3Zg52shUKxQWxopfkqMvD0yqGf8SRn3xhVdQkqTIj3dkxe3q4JumNnH/ck29xt5MzPKy+tqan8xt5Pq/q64vHqLK81N2uNkVXuVQtkyZsRYHZho6Ojjgd0bCLBOSG3bVuXWlbOh577HIb5aJk0nSXllscvbl+Sdt/xLKPJ62eQSbuGU1tV0r2KY+9RlO59Mx0ttz+bftg9Gf1ja3v7e9dMSlzKpIUIz4UFqpj09k56OqP+/r69nLEky0OopxN6mwz9SimaJJias5Kbtbl30l60a/a2munKd7+5xlOiN9fHZb/JK/nU13TsppAwfJY0TXmNv2IHWb3dLzzXnfNTGnX6VxpkZ/pjFLxqseiRcU5puiMcfyVSrmuCeSva2hq+2KovR9Lw6uVyX/+XHZKFASfktR6mMmJXSY94aZtct9psukunyHZTEnHa/xfRp0us766prYVFa739vZ2/YIkxZSZfp72VUPN+AOJUY8iHUfqIuVgWc9zbuq86jEF9hVvjOuVlRfGLfjPpDdx2oxty93sxIwOqSEFeu2qVat25GuSWTjKwxlvdfe3S3qZ68hfvc2C29IQm7B65wVxbMw/kZ/pTJyOJEVYVb5EsuAQ/mqlS+8qq/r365e0X3fU9ODzk/laQJaGSl1j63tis78xado4/24k6XZJAx7HGwLXT9asWfkLHWQyV1tbW1E5a95LTDpd8ovM9WpJF40lN2BSa2Sqq2tqf8dAT+cR2zmNm8QI4tAulme/slPg7OyRkmtXvlZSUMx1SuzcGV2oQEdnpDtPh9HgQJIbWFOzvNK15f2ZvWqZ/dma7s478nL+NDc3zx/2ynfGrnfJ/ZhJ/NXDlbY3Fe+8R7EuzFG6HVA5DNJRNNPs0sP8CcfI/XPbB+NrFzcue/Pa3pU/5uiPzeKWluODqOJrkhaP86/eLbMvlSvjb9y0YsXWsf6l/bu0/HT/P92SPlooFI6Kw2ntcr1Zsss1cm59psm/Vt/Y9uq9M8N3rC+VJnznQZIUI/H44jx8cx14TNHMFNw6pHwVGgtFkmIqxMG4b5BJtjLpr7LNO+7J18izuYrCpFtfecFZn1uzujMXyYmhuPLDQ7GWS5oxBU34UVpejzNRNBM5epSQHlnXXXooJc29fIJ6fW5gwcb6pvZPb3l83kc3bbp+mJFwcHVNV19qUbxS0oLx3F9d+mh/T9fNE9WOvr6+7ZK+Kumri5paXx6afUSu10kKRmjIG6sHo5pCoa2hr6/r4Ql9PmVojDQALA87ezzd27uCYjcJV99SPEXSvBx1+deMy6m7X2ZndugrE3+fcXtfRsfRoIfhtekp5HhoisViVf2S9ncPxZU/lfSeKUpQpKYexf5RT9FM5OdZwpWKc7O2trZCmtAd5Cok/+D8hVu+19BQPI2RcGANTa1tUrxuHAmK+z2OG9f0dF0+kQmK37auZ8VP+ld3/X4Qh2eZ+2grUs+ITbctamqd0C3USVIcRKFQXODSyVnvp7n/UGK38sQr561ophiXU6ClpWW2pEwkZ13a7eVZ65LcxrpC66slnZ/JweT+gf5VpfuzPrncPhjdK/fPSZo7peEObENa5laSXszVFnnhKSmaWTlj3rmSZh6BH32Rh9Ht9Y3t7YyG56tvbH2Hy0omTR/DxyOTfbYqGD5noG9l32S1sa+vdM+a3hUNJr1V0sF3qDGdGMpuWdzYfgFJiiMssnIeVlFQNDM9RypXSQozMS6nwN5y+GplZOvRwLVuYOCGXclupP1pRofSzf29K76Q1fOksbG4sKGpreSyTkmJ2BbahtPxIJS/XaqQdxak49wMzC8/gj9+lsxL9U3tn+jo6ODZU1L9ktY3yuwfx/gs/mt3L6zp6XzfFL3W52t6ur4cyc6XdPcIn5sXmPfVNbdPyO5NDJSDn615SVJQNDMdT+25mth57OzsMSXXvSAz9ShcWpXk9i1qan25SYUMjqKdHoRvUTZXQllDY9vbI4vudenqxDRKeqC/v+uxdNzKqEeBXNm5d8evN6fkrnnJkb9U+Qc3bNy8Yv+qzdxqaGotyu0rGlvhw7uDOL5ooHfF2qlu97qezgeCePelknpG+Nh8i71vcUvL8Yc9JeX6cZAzyZWLJEUUDFM0M+H2Vf/XuXnKUZSr2XFmaiLvWalHEYcKVye5gYHsT5XJysz+VwPdpQez1qtFi4pzGpra/tNNX5Q0J1mnrVJTj8KpR4F8+f7+XRTScG5eNkm/qmVvVHnzVa2t8/I4IBYX2i5z2TckhaM/jOpH5Sr/vb6+lT9LSvv7+vq2b3l8fqtcI9X8enEQVa4qFArVJCmOQI5Csgty0M9f3LRq1RMc7mSbt/BXZ4/xfbWs+Ol4tlHCxKhbuvRESS/NSHc29vaWHk9srOtajzXp9zM4jH4WxHs+l7VO1S9ZdlFYHf0oSasnnvdwYXZreqLpNVxtkZuHiZTUo6hrLr7EpBMm8zpQMRSs21+jJjcKheKCINB/SKoaw8fv0HC4KInz4U2brh8+amb4Wpd6RzrGcTD970hSTPjJ2n6a5Efn4PLJKopUCPP1zRP1KKZGFLwqK11xV1+ih3il3iFpWgZH0buTvuXruOcDja3vlQe3KiG1Jw4svi0tD0JyHcvFFnkRx56OehRxfNnk/1Y/Nw6i/5qI1wLSoKOjI4iD6AZJLxzDx39RDsuN/f2lXye1P6VSaUjDM18j6X9G+Ng79+1ecojjkkvIga4q+XjVwxWTpEjFM3u+imYqdpIUU3JBsCuy0pUgGHW7rCmzb5s3e2vmrlPuA/09XT1Z6U9tbW1F/ZL2z5vZZyRVJLipT1964Tn3pOMaQ9FM5EoUD1WkYp7t8kun6Fe/PIgqbsrDiooNGzf/iaT6MXx0p4XWkoaV7gMDN+yKzdokPX3wsWXXNzc3zz+kuRzXkAM+FOYiSSFnJUVKDlS+imYaRTOn5rqnrKykeHrPzqcSW9Okava8JZKy9s3RkOKKP8lKZ+rri8dUzzx6rdzfkfyHC93W0dERp+Ia4xTNRK7uqnetW1falop5l+zyKfz1p8cW9dTVXTMzqyNhyZLiCZKuG+PBePuaVZ2b09K3tas7f2pufzzCR+YNxVV/cyg/myTFgeUhSRENzQzv4FAn274KyHZ6jrq8Z86Myrs48pNr/7cY2RhnppuSXKjMXG/J3ABy/+c1a0r/m4WuXNXS8gKF0c2S1aahvYGlp2hm3hLuyLmU1KNYtKg4x+RnTHGsLlTlrhuUyWLS0rCXPyNp9B1NXCv7e7v+PW39W9Pb+U1zdY/QsbfUNbaP+9m6QnieYrE4fftgdFbmO+q6e32ptJMjnvAn9uHwQgvyk0w0aVOpVBriyE+u2OJXZWVyYLHWJrVtS5YUTxj2KGvbju4qV0R/m4WOLGounhRG0TpZegrIxnE6HoSKxWK4fTA6j6stcjOfScm5GVaVL5FsyueZJrXWN7V9pL+n6+NZGgd1jW2vkvSaMXz0yapw+G0jfaC+qe2z0qG+muuRpO0ybTP3na7gcblvDhXdNTi47SeH++VOIL0rkq6SNONAfxyYf1rSuFbskKT4LU/vjM4PAlVm/+ppvPefAkFoF7vnp78u8arH1DzqXJGVLzDKZolNUpTj6M2yMWw7li5/n4VdogqFZafEcfRdSSelqNnD1eHw7Wlo6I698RmSZnGtRV6UwyAdu+6YXZqg1nQ0NLX/cE1PZ39m5vHyD/sY5lcmdXR3d28Z5VidKj/MHZJc2tcel0yKFKp65jFb65vauyT/Zn9P182H8mN7e7t+Ud/Y+kWZve8gv/ayusa2Vw30dv332GOH5wlDy0c9Cos3crRT8OiYs3d4TRTNnKJJSlaKZj64rqfzgaRG2U3XZmzkbFM5/HT6ExRtL4yDYG3KEhSSdEd3d/dgKloaOfUokBsuPbKuu/RQSpp7eYLaErj5169qaXlBFsZBodB+npstHsNH73vy8flfmsKmzpP8bZK+W9/U9v1Coe2Vh/JDqsLy30o66Cp9C+xD4xoMXEp+68Li8cU56SpFM9MhV+/wloMKkhSTrLm5eYakszPSnf9KasPqm9qvknRKtibi9qkkb5E2tklkcUEcaECJ3mL0oBOWW9PS1FgUzUSu3JKGRu7bbSph80zXsRXlii9m4h4Z+J9rDMtU3fQXmzZdP5yQZl8cB7q1YUn7+8b7F7u7u7fI/csj3LMa6pe0njPWn0eS4nfkYiXF4N6dT93NsU62+vq240w6IUddfixF3zxkxt6o8gJl5NU/l92S3LZ51gpmbh2aEfx9mjtQKBSOioNoraSXp7MHwW2pmVmZKJqJ/DxJmKUigTht9jHnSUrerhqmZfWN7e3pvr8UF7i0dPS5gR7Z+tj8rqTdXNz90/VNbdeN9y9Gpn8Z8ci6XTvmRnAp+Y26utZjJb0o+z31TUmufo/9Z3KlXpmrDrtYRTElAy07FfctDP47ie2qry8eY1JrxkbOF9JcfLlYLIZu078h6ZzUHoHIU5GkqK29dppcZ3KxRV4EUTqKZnqsyxI8N/nHRYuKc9I6BuIwfq00eo3DwPRPCVpF8ds+2tDUWhzPX1jXs+InkjaM8JHXFYvFMdXmonDmcwdKpb0yDzUKTQEPg+l4ar8oo7sxHbi3opjrFF0PLpIyceV7rH9V6f5Etqyy3C636gwNmz2hh19Icwe2D0afk6k5xV24v7+/67E0NLRq5s7zxzJZBzJi5+7dW1OylbpdmuD7/3Fhdfxnkj6UxkHg8t8fwww+Gg7KX5mo39nf0zXir+zo6Ag2btw4Z09VVVC9Nz6+HISnWWxXyfRayY8+0N+JZZ+trb22e/36r+0Zx3z+BpNfcpA/Xrh9ML5S0jqSFOMaUMpFPQp3UTQzHTePXC2PDQJjZ4+puSJk4rrnCa5HIbf2jA2ar/b2lh5Pa+Prl7T+oVzvTPmAT9GrHn6hcrRLFXLv+2lZrezyS5P9VZi/u27p0n8a+M53fpmmAbCouXiSxdFY5lb/PZm7Y3V0dMSSntr/P7dKukvStxctKn4oqI4+bdLvvJZq0gnTZm0vSFox1t8TB0FPGEcjjburx5Kk4HWPDE7WR50wxBFFMxOuo6MjcPcLctTlyKJdd3DkJ9f+CtonZaEvSX0HuHbZsrmSrszQsIljs8+mtfENzW0Xyu1zqT8KgX8vNeems7MH8sMsHa961DUXX5KCumfTgnL4kbSNgdDLtRrDUmiTvp2E9q5bV9o20NP1NpNuPODTsfv4XvnYV1/ufw5+jnjtmG5zXE6eO1asJgf9fHLNmpU/53An2w9+cPfpkh2Vmw677u7r69vOkZ9cFeUwM3VP4liJXIkzbShYJqkqQ7fKlWtXd/40jS1vamo62mN9S1LqX70JoorU7Ozhomgm8iOO07HrThDHl6WhnS69qb6+7biUzWl/b0xjpSLqTlSro/gjkg6wCsjGPVZMtvbgv8lOG8sxJUmxX6FQfLmkuZnvqPHefyqubxbla1LHuJyiuOv8jPRkz9yZweZETlhNxSwNGXdP644eNqzqbyiNW43+bleeuvjiM+5NQ0v3ryQ6lYstciKKhypSsVrZXZelJKbVHupd6ZpaWe0YPvaLpL3Gsv9L7APV9jquo6MjGN/48ttH/PNKvWq0n0GS4pmJZFjOxasecudVjzQcppxt12ZykhRTE/lzszF+tKlUKg0l8QHNpEUZGjA/GejtuiWNDa9vbP1jkxozcoe4bf+7xYlXGVVcpDxVgEbe76l3rVtX2paS68ilqYmq6e3FYnF6Gtp6VWvrPJdOHj38Smodtp8d6FL+gx/cPW88PyTUyEmKwG3U526SFM8+u1s+6lHISFKk40jlKknhFM2cKudkYvx4MpNc1WVrUZZe9TD7glK4FUx9S/FUmX0iO4dBqXnVI4xiXvVAnmYzqagVs2hRcY5MZ6QosMdsGywvTUNDK4f1sjE+kCV03uvTDvRvh4c1ri+CLrronPslHXSbcje9dLSfQZLiNw/veUhS+HBVfDtHO9lqa6+dJvlZOeryjqOmBfdy5Cd5nO1bhn1SNnqTzG2VLbarMzRkBit8z41pa3RNzfJKRdGNkmZlZr5inpqdPdxE0Uzkhisl9Sgqhy+VFKbqLu96czrGwOgP3/sltLaTHX+AfxldfvkZO8bzU/av9vvFwQPlo74GSJJCUnNz8wzJz8xBV++/acWKrRzxZJs2a9t5ylShvVEv6T8slUoRR35yVQ9XnKWMLMOOTIlLvtbVXTPTTYszM2BM/97T0/NU2po9f+GWDmWrcONwhcpp2kY8T7tUIe8q4nSscgqDS9MWWjdb1NhYXJj4dsrGlKTwwH6WtLbXtxRPlXT6Af7oyUN6xdDsoRH+9ORisThioowkhaShuLpGUkXW+2kSr3qk4UKsIG/LY3nVY0ouCH5ORs6Y7et6Oh9MXHgrd9VKmpadARN/KW0trm+6+gpJH8zU/cG0qbu7ezANba1buvREScdzsUU+5m56JGmFEA9++/fLUxjiIFK0JPGNdD9xLMNlaMfsnyfuMTGKP6kDf3l1aM+P8QgrKaSq3bs1YtKpQpArutjyUNeJoplpOVD5qkdhAUUzpybyGalHYT9SEuskuC+WZea+cl//6pWpun/ULls2V8PxDUrZkubRHy7SU48iKAcXuoDcSEVR4dra2grJ0rnCydQs6V+T/UwZzB59SuI71q//2p6ktHlRU/vJofunJV924PuOHVqtFfNfj/TH5fLIr2GSpJAUyC7Ow43UnKKZ6XjqytfOHlEwzLickmGmMzPxCB3YnQmdTGXmVQ8zfS1tba4aDv5Z0osydx9PUdFMmS4UWQrkhJml4tysnDHvXMnTWqNnUbFYrEribl7PmV3NHMNo2XUkfnN9U+sYVg5aKNlRJoWx/IUmnSn5mSN8Vz8UVQwfUj0qc+32ESaacThMkmLU4eS6OAcLKYZnzQrv5GgnW3198RgpOiVHXX7wplWrnuDIT8GEyg/43mEKL+C6I2lNWrKkeMKwR6/IyFCJ4zD6Rpoa3NDYdq1Lr8vieRvE4YYUXWXY2QO5EUTpSCAGlspXPZ4xY9uu+DxJiV2Ba9KsMeRmdx2h3z7GXaxcrrEWJfNvrF216tFDHGyD8oNHIwxsxCRF7mtS1Ne3HSfTiVnvp0l3lkql3dxGEi4s52pPeU/wjSbL9hefmpuJMeRR4pKvwyrXZegsvTkt71lL0lUtLS9ws89k9NS9v7e39Hhaph3uOp+rLXJi5+7dW+9KyfPAZal+nkl4ksVlY6lFtScl4X6oKigfel0n9xH7GZV9xkh/nvskhVflYutRuRkPg6l4aM/HeHzOzZJxOQXiwE/PSleGB+cmcPtaW5SZc9QtVasoKuKKT0l+dDavl56aVz0WNbWerowkQoEx+P769evL6Zhn6tI0B9qkVyb8Oj2WBEQadvB7NPZ4aXd395ZDnqBp5CREWGEjFoHOfZIi8DgfSQrXRiH5F9+c7SkfxOzsMTWTlCgrSYoHk1R86jdzKGUlSTEc2t7vpKWx9U1XXyHXGzJ73qaoHkWYs3sZcj93S8W5WddcfIlSvuOOS2ck/IFrLK9yzEh4mHtCD2vW9q788WHN8W3k1zmi2HeO+PdzP1n3fHxzHSumOGEq7nS5mtgN7d591I856FPytHNaJroh/W/S2lQotJ8r17EZie/anp6ep9LQ1tra2gp5/Hll+HW5IKpIT9FMN5IUyI04TscqJ4uiyzMQ7lOLxWJiVyK4BTvH8LHpCWz6fTL9axDb+f09XUsm5NVCtxGLiFa47Rjxnpfni0pHR0cgeU0Ourrt8gvP+V8h0eqaiy/JysPNGP04gd+C54NlI0lh7ol71cMtviJDA+U/09LS6llHv1WmszN81v764ovPuDdF7aVoJvIiCn1POl5dNV2SgXhX7typU5PbvPjpMXxo7r6tYKd0tnKPx35VENv5VcHwgv6ertP6V3e9ra+v80cT9hvcR3ymGa6IRkzo5Hp3j9s23vkKkx2V/Z767R0dHTH3kaQfpihXkzrqUUzlWPOXZaIbFiQu+RqbLszIV/nDVg6609DQmprllfItH8j2BdNuS8t9vFgsVm0fjM7hQoucTGY29/X1bU9JazORRI+tfJKkexI5HNwe9NEnAWHF7AXHS3poClv6CjOv6uuduKTEAc6Nk0f4071zq6tH3N0v1yspgtwUKaRoZiqOUuy5SlLE5ozLqXmACCWdlIW+hEGcuCRFZurKmK3r7y/9Og1Nnbdw6+slvSTL563H6alHsWNPdI6kaq62yAVPx7lZu2zZXEmZ2BrbZAsT3LqfjeVTFSqfNHHx8HbJFj/3H5M1SHp8lPv8Z4/wqzOnjHDi/KxUKkUjxyjX1xW7WPLs9zMwimam46EgV0mKMHKKZk6Bp/bohFCqzEJfhixK1PL32mXL5mrYsrFKxbUyDe3s6OgINmzc/KEczFhuS01LI79IlpudtJFznpJdd6r26hIFGflyOtBxyZ3c+v0aw5o3d50s6XsT8SuHq/RfN63o3Prb/75uSftyc181wl89ffvu6D2S/t9Eh6FQKBwVSyMkk+z+0Q9zrq8snpPtR4cpmplw+7/dPi9HXd7a17fyAY78FNzbo+jFGenK0zetWvVEkhpUGVVcpGwUbvQw9t40NPTWTf+zSNLpGT9th6vD4dvT0lhjZw/kSUWcjlVOYXBpVkLusc9PatuqrHyvpGgMD2dHfM4/sLqz26QbR26HPtbY2Paiif7dkU27eKT5kMnuG3W+mtdrSl3dNTNl2Vj2NIqH165a9Sh3kYQ/be0aPkvSzBx1+fvKwzKmJD5ABP7iTExSTIkrIhhGcVZWQ/2or6/r4VTMu+P4jVk/Z920qbu7ezA17RVJCuSDS48MfOc7v0zFvd/98swE3mx6Upu2atWqHTJtHsPomZSNG/ZUxu906ZERPjIjMp/wlRRBYJeN2HvXqKupc5ukCKt3XqBcvO5irKJIxfU2zFsldOpRTNmsKnhxJs4ZVwJ39sjKw5mvTkMra4vFWS4tzfz9wdNTj6KlpWW2ZFlf2QI845Y0NLKmZnmllKFXil3Tkt08G8O4sPMmY4eP9StXPi2zPxqlLa+pb2xtmNAYuC4b8Y/L8agxym2SIva8FM2MSVKk44qbqySFO/UopvCa8KJsjCFL4rbKmUhSWGCpSFJU7y4XJc3K+hlrlp4kxd6o4gLl/VVi5IaZpeLcXHD8lnMlzchO4D3RSYrA47HUmphVPXP+pGwJO6bXPsz+oVAoTEjB4/1FWl81wgzuJwMDK3412s/Jb+FMz0fRTFZSpOY4XZSjtx+80oZu55hPjf6eFW+R9BYicSRi23U8UZjEeK9e8VVJXyUSibq8X5SNsixjeBCJwzP6+kr3cMyRdGu6uzYqLydmAuyp9LXVw7ZXo+xyZBY1apJW4+ypjN9ZNRzUmnTCQT7y0jiY9h5Jnzzc31U9FDTLdPBdQyy4eUzX2NzeRpWLoplxEO/exOUi2erqrplp8pfnqMv39vT0PMWRB4CMMctLPYqds2bpfzngAH7b+pUrnzbXwKjPom5LJrNNcv/DUS7gfzEhRTRNV4/0x4HFpbH8mFwmKRa3tBw/QiYpS37S19e3nctFsuWnPsqzqEcBAFnk+Sia6a5NpVIp4oADOPCDuv3nGD51Zn1z2/mT1aSB3hWrR3nt47CLaC5qLp4kqXGEjzx6cc05Y1o9ksskRRiFr8zJbIGHwRTIT32UZy7cjEsAyJrGxuJCSSfloa+B2UaOOICDqQqHvyNpx+gPAXrrZLZr9N0+Dq+IZhhF79AIX7y6+Y0dHR3xmK6zeaHBnEwAACAASURBVBw4npeHQhM30VQ8s+dru7Y4pmgmAGRNOYhzcy9zZ34F4OBWrVq1Q9KXx/DR1+/bFWlyjOm1j0MsotnS0jJbNmLSJQ6jiq+N9eflM0kh5SRJQdHMlIzHPO3sMTg8+PT/cNQBIGNTDvf8JCnCgCQFgJGviVH895LKo3xszlBc8c7JbNcYXvt4pojmuOyJKz4g6ZgRHnhWjafYcO6SFMViMTRTTQ66umfLo/Pv4hKRbHlaHrvf7evXry9z5AEgc/KScN8y0F16kMMNYCRr1qz8ueRdo33OXX9aKBSOmtSHxNFf+xhXEc3FLS3Hm+u9I/ZT9onxtDF3SYode+MzlIN91SXdsWnT9cNcIpIttuiiXHXYxaseAJA9JumCfPSUehQAxiZ0fVTS0CgfmxcH0z84me0aw2sfMyKzT435shiFn5Q0c4SPrBvo7RxXTbrcJSk8jnPxqofJKE6Yimd2z1WSwiiaCQCZU99SPEXSvJxMJElSABiT3t4V95nsn8bw0Q8sblx27mS2baB3xWqXf2OEi11xLEU06xtbl5rsDSN8JJL5+8fbvvwlKfJSNJOiTml5bM9VkqLCKkhSAEDWlPOzKpCimQDGY09ldJ2kLaNOkYPgn4vFYjiZbRuq9HeN+NrHKEU06+paj1Vg149y0fx8/+oVd463bblLUlhOimaaRxTNTMVwtAty1N9HV68uPcJhB4DM3c1yUzTTItvEAQcwVvterbB3jP7splduH4z/evLbNuJrHwctolksFqusUt+W69gR/v7j0VDFxw6lbRV5GiQtLS2z90Z6eQ66+uu+vpUPcFlItoaG4stc0dE5msRu4KgDQBYv77rQ89BR1y/7+7se44gDGI/+3s7/bGhqbXTZm0a5yHygoal105qeFaUD/RiTHv3tfxnumrXncNo20Ltidf2Stg+a65QDfyJ4QW1tbcVvF77fMRj9o2RXjPCjY5Ndu25daduhtCtXSYo9w+GFFijMfEfNfiDJuSQkfK4T5KtopsXUSQGArCkWi+H2wejcXHQ2EKtUAfx/9t48uu7ruu/97t/vAiBBUqREmZosWfNgiiJFcLJqJ1gRBRAgARFgb5PWcZ/zkie/ti8v762+vrxO6U2nlbrvtU2bpo5Wh6Ruk5VccxBA8pKgaMONo4EiRVEkNQ+WZWugSIkzAN77O/v9QSSWZFkkcS+A397n+1nLa2UpBHDO70x773P2d0+I5jT71bGs8EXgpwUDzpvLCvkva3r63t4xuPl7H/5/7Ny68Xcmq207t276+qX8+47u/n+uwEOf7o7q13ds3bRz4tttRCSpRCKaqTxEbQxUVEEKFWFlD0IIccbxM9VF+HRVd0cHmVKPghAyIQYGBk4pdD2AC70smKUB27q6+lflsR8d6/q+LoK/e4F/9r3R0x/8w7r89qicpFhEMyEMUtggpiBFTaszn+aQE0KIM4tD0nhEMwNFMwkhE2do2+ZDIskGXLAsqVwWEt25Zt2G7ry0vaurq6Wzu/8/i8rfucA/faHWrOs/nh5yqUQmnKlRCDuFc2Evt4F8UywWmwEsjseKxcGhoW+e4cgTQoiz7V00FtFMPdeiDLYTQupix9Zv7YbiVwCEC+yul6nqQOfa/r893W3u7Oy/JiQzvwPBL13gn76VKtbs3rz5WL1/M5ogxeqe4g0ArvXvC+K1oaHNR7gF5JuTI9UlAFqi6TD1KAghxKnrHkllD9GXhrdsOc4BJ4TUy87tm74pKr8IoHqBf5oC+H871/ZXOh588PrpaGvHur4vo4CDAL5wgX/6jkI7t2/f9EYj/m40QYpCqEWR6hFAUScbpHGJZkIZpCCEEGf09PS0AlgYQ19VmepBCGkcO7Zv/CMAfQqMXMQ/XyO15FDnug2/1tXVNSWXnGvWFO/oXLdhUFT+G4D5F/jnL2eQvzS0bfOhRv39aIIUikj0KJSimUYGKqogRUgpmkkIId6oorAUkVSKSxikIIQ0mJ3bNm1LA34OwA8u/K/lMqj+myAzX17T3f+1YrE4czLa1NW1/pbO7v7/rGl2CKrrLuJH9mhVv/joto2vNXTPjWgeRBGkUKVoppGRiilIcfy+tkUvccwJIcTbUZbEc5YlDFIQQhpPpbLpiVqzLoVI5aJ+QHC9Cr5x8mz2Vsfa/m+sWdf3hWKxmNbTho6Or8zqWNf/851r+3eFJHlpXHviYgLQv5OEkZ+ZDKkBiWHw29vbCy2zrjgO/yWyas1Jde7g4OBZLvn8snp1cW7akr2PSIKEojq0Y/vmTo48IYT4omNt/x8J8AsRdLV6WWs6t1wuj3DUCSGTQalUSh5/6tn/E8BvXrrPKh8A+I5o+K5K8lyWJC89Olh+E4B+oi/SU7yhEMJdirAEwAOAfBGXpJUnH4joL+/YumnzZH2PKJ7ozZw5f1GA+q/hLTjIAEX+SZprKwCJJ9VKwFQPQgjxeJ4BKzSGjgoOMUBBCJlMSqVSAPD/dTz44J+glv62AH2XYG1fDqBfRfoBRRoydKztHxHBKVGcVuA4RGdB5TIAcxGyVh3f3C7VrAfwB7W0+v/sHhh4dzK/RxRBipCGldAIHo2wgoIRo05WakT9FUk4LwkhxBmdncUrFNlNUZxj1KMghEwRQ4888iaA/gd6/nJHEsI/AnDfhPYtYCYUMxVYAAB1+8KKp1SS/2No27cem4rvEEWQAhqHaKYKD1Ej47Q8pu42yTnqpBBCiDfS2gpAokgbZmUPQshUs2vwW0MAhrp6+n5WM/w9FemYpv3vu5om/3y8PVNGIZJxjqOyBwKdQRvEFKR4dXBw8CiHnBBCnCHJip+S7uyPRBmkIIRMC5XBzd8F8N2urvW3hCT9MqBfBnD7JP/ZoxD5YyD7r0PbtkyLf+k+SNHV1XVZAO6IYA6fnttaeJ5LOd+s7inegJBdE40NCzDVgxBCfG7wyyOJUZwdO/3BYQ44IWQ6qVS2vArgHwP4xx1r17eJJPer4mcF+BKAOfX/BX0OknxHQ9hx7N3P7Ny37+HqdPbXfZAiJK0rAI1ApFD3lsvljEs43ySaxVR6FIFBCkIIcWp2aBSvAgXYPzw8XOOAE0LywtC2LfsA7APw9fb29sLMmfMXZUm4I1G5VRPcDsUtUMwWwWwF5gKYCcgYoCcBPQPIUQVeFsFLCPpirZA9MdlCmJeK+yCFAiujSJgExQmNzMgVkVT+PT8rE1b2IIQQb3R3938uA66K4tQG9SgIIfllPIi6f/x/fnwI906Sahx6FBR1skGQmF5SjElt5FkOOiGEeDvKNJ6zjPYVIYRMvQ/v/mwRRHGQalONopk5p1QqJSJYGlGXn65UKmMceUII8UWIqEpVSIRBCkIImWJcBynWrFl/I+J4jvjOeE1dkmP27Nm/EA0RtjEDU5AIIcQhotEEKU7s2rrxFY44IYRMLa6DFKGQRFJ6VOgMWpiPkkYlmqlQzktCCHFGqVRKgGheBT6FaOqsEkJIfnAdpEhUIglSKFM9bBBVkCLJlKKZhBDijMf3HbwLkMsi6S7tK0IImQ4/wrXrDo3lJQUPURPzMSLRTMGRHTu2fJ+jTggh3g6zEM1ZptSjIISQacFtCdK2toeaFEfvjaDYo441ZXs5lfNNT09P67mgd8djxLL0KJkeSqVSsmfP4QUhYG5Iq7OTJEk0yFwAUNF5EKlJwGkR0aC14wBQUDl1TpKapNXR6smTR8bLeRFCPnF/l2hEM5s1YZCCEEKmAbdBivlXH7lHkMyMYAxfHN6y5Tincr6porDU83r7BKhHQSaFYrHYfPo0btWkdidE7tCA25DI1VC9FsCCx596dgEEKVJAkEAD8Ocp5aIA9Pz/raqQ8ceEmQApFMgKaJl1Rehc238EkHcA/RGg7wLyIwHeyZLkFYW88Ohg+QccCRIrAiyPRKThna1byz/iiBNCCIMUDSNBsjKGQ1QoTmgCDbHoo/x5f6lHQeqno+Mrs1A40yYJVqlilQCLTp7NbkSCAiDnYw/y48BDw44P4GpArwaw5PwfOP+nkhAAAJ1r+08DeA4iT0nQvZrKUzsHNz4HCuwR53R1dbUEYFEk3WUqLSGETBNugxSqWIkYcj0UfIpoYqCwPIb5OE5IMcoUJHLJrF5dnJs2h9Uq+nMi+AL0zCIABSjytnxmA1gB1RUqAIKic13/EagOi8q3RbGtUtn0Q44o8UYmrUsE2hJDX4X2FSGETBt+n58nuhLq3yuUlKKZNgYqqsoez1UqlZMcdHIhSqVS8thTz9wrSDoBXQNkXwBQEMDemwTFAkD+igr+igq0c23/U6qyOaTJHzI9hDjy3CMSgKZoJiGETBcugxTt69fPQ1Vui2D8xqQ28iyncb7p6ip+JiC7KZb+KvUoyAVY09O/XDP9hceeevbnBcl14x6BK/cGwAoRXZGG7J91ru3fLSr/5b13539r376Hq5wBxK7fjuWRJDVptTnwRSAhhEwTLoMUTVlhBRCSCMbvmUqlMsZpnG9CksX0igIi1EkhP0lXV/HzWZr9VVH8ggbcCpFYMqASAA+o6APzrz76LzvX9f/bbDT9vUcfLZ/grLjYudO/KiSy3u0ZEXRwV2XTnxnx3VcgjpX72u7Nm49x9REL9Pb2zhnLmv6+W7tS9fUd2zf9Hkc6LlwGKZIQohApVBE6gzTqckcaAkUzCYDzlThOna09qJCHArL7RSNaCJ9kaAHXQfEv0pbsH3Su3fC7LWn1nw0MDJziTLnADprgrwH6q177lyTyqIV2rl5dnAvNbotizoF6FMQO50LzCiD8ul9/B/+BoxwfXjUpoghSJBR1suKaxPSS4tSsWc3P5bmBa3o33INM/5afw1sO7ty68Xdy5cz0FG9IQ/a1k2ezXwbkKu4BP8EcQH99NCv8Ymd3//+9c/umP+Qn+VSH0fMeqmNNmYm0grQlLAcQwytVJNSjIJY2EfV9OavgpWyM+AxSRJIzmWigaKaF2Qgsj6i/e8vlcpbnBoYaukXwkJsvHsJv56UpnT0bFkL17yFkPw8g5fK/4OZwHQT/vXNt/1c0Sf/m0GD5dX6Vj9LW9lCT4ug9fp/g6PPDW7YcNzFfRZdrJEV2VRmkIKbwfTmbUOssRtxFxFev3XDzeZV19xzfvn3zy5zC+aazt3gLgPnROF0W9CicqdOLyMHpbsOa3g33dK7r/68IegCKvwYGKC75E0rIDnSs6/syP8VHmX/1kXsEmOnXG7ZzQxg0moB7NtYq+7n6iCE8r80T97UteolDHB/uXlIUFCsjqDwKUd0DRKKxbZlatiKmLPwgyZP5XztY5mlMgsqh6frbnT39S6HyTzXTLi72upkjKv+tc+2Gn03C2V+lKPL4ehVx/TJSbFVDiiJ1USHPDZfLp7n6iAW6u/s/lwHXOO7inlKpFDjS8eHuJYWCopkkVyMVVWUPlWquU5C6u4tXQ3C9o08eUGud8iBFV1f/Z9es7f89BOyBMkDR4FX0v4Rk5rd7enqu5LcA4Pz2PkMwcZZ3dvZfI8B1MUw5QWCqBzG0h4hvPQphqkes+AtSJBJLkIKHqAlrJyrRzDd2DQy8lecG1pLgzeF5bWjom2em6o+tXl2c27l2w2+FBC8r8BCY1jFZ3HcuNP2PdeuK1/FTuN5Dz1bPHj9koaHaHIdtdX7KUZScWML55WxgWftYcRWkKBaLzaJYEsPAZUmVopk557zgWxzzcdyMNZDqoa6CFApMlR6FdKzd8D+nLdkrgP46gBlc4ZPOXVXNvt3Z2X9NrB+gp6enFcCdjvfMfcPDwzUTfnvQaASgVZVBCmIGEd8BxKyQcT1GiqsgxanRbHEkxvMbuwcG3uX0zTfuBd9+4qBMLES7XRnaAp30IMWaNcU7Orr7vyPQ/wSAKQhTy+0oYPf9fX3zY+z8WNa0DH5LpUMFTxhqbixBirE0jB0CIQYYvwy7161dCbxGfydeXAUpVGN5jih8RWGCNCo9iqCSd4PbXzlYTZ6dTOOnc23fr2uaPSOCn+V6njbuKpzD5mKx2Bxbx0V8O8YSEivPmAWQZZFMuwMUrSVWmH/1kXsAtHrtn4KpHjHjLEgRiWgmAoMUJqy6qEQzq3NzXrKtq2v9zXBWDlZTHJ6M39uxdn3blVe/9wwgvwWmduRhN/nSibPZv42u285FMxO1YYB3d/fdBujlkcw62lfEkBOX+PZ7JGGQIur57copjOQlhfIlhZGBiiZIIcCBcrk8ku9l4+tliwIjc2ckLzd6KDvXbfg1QfIYIJ/nGs7VGvtax7r+n4+qz75fUrxdqWz6oYWGBkniCbgL9SiIITtA4drvSTK+pIgZN0GKzs7iFQBujWDMsnOz0qc5dfNNb2/vHEDujKW/Jkriijc9CnmuXC5njfp9HQ8+eH3n2r5vQ/XfAGjmKs6j/4RvrO4p3hBDXzs7i1cocJPbPRN29CiCRKNHgUxZ2YNY8uLUc5CiOnt2eoCDHPH0dtOTtLYC53POnXuDODxcLp/m1M03o9V0ORyW+P3pVmz+o92K4CynunGimR3r+v+y1NJnAWnn6s0189KQ/bsoeur8TBdTudbRvAo89cXli1/kNkMs0L5+/Tyo3ObY33km7y90yeSS+JnLkaR6WLixJkjSiGrKAwhJvkUzi8ViCshSV+e36rON+C6dazf8lij+BMA8rlwT9HZ0re/yf9b5TjEQSU2c5W1tDzVBsTiOpaX7SqVS4BZDLNCUFVbA82WYgP5O7L6UH3smliBF4FNEC067xvM8FsD7u7ZufCXPDTxz5tznAcxyZU6naV2imff39c0/eTarAPrriOEVmqdjIJV/3db2UJPvTrreQzPJzphI27zy2qOLYimlrcJUD2LIgQu6yvcRwEvZ6Oe4m7msGotTSNFMG0QkNCZPAtBcewRI3QUxg5ybcK5m57q+xU3nZA+AB7hUTXpTd1x5zXu/6LuP2ua3bzhcqVROGhmHaM6yhHoUxNQ24lqPApomT3CU48ZFkKKzt3gLgCsjGK+zY6c/OMxpm/P52Nl/jQDXRXNQWtCjEDjTo8B7uwcG3p3Q/OzuexAqjylwM1er5YUnf/d8GpM/xsVBr3E7dpbSNiN6FZiwchoxtY24s2s+zPs7B8qvcpTjxkWQQkMtkvx/3Tc8PFzjtM35wdGEVVH114AAnMBZZQ/BhEQzO9Zu+BsQ2QiglSvVPLedOFsreuxYmgXXjrEt0UyJ5SXFe9u3b3qD2wqxQFfX+lugWOB3k8z/C10y+bgIUiQahx6FIGF+lgnieR4LQGst+X4i297+1RkAFrn66IpLFc2UNev6SwL9XQAp16iXMwFfc9ox10GKYCRI0dHxlVkAoiilrWCqBzG0h0jiO9UjKP0d4uQlBRBFkEKZL2nFwo5Ij0Jf2r1587E8N3HG7BP3AnAlMqiQi35J0d7eXuhc1/+wKv4R16a7Bdi+em3fXQ5PO8976Km5rYXnLTQ0bTm9DEAhCmOYopnE0g7pvFiArddmZNL2Zesd6OrqagHiKI8lIWO+ZM4plUqJqi6LpsMh/7nVQcXdeIhkhy52f2yZPX8zFL/C1emTFMn/5M4+Be51PGR7y+VyZqGhWYhHj4KXQMTUJqmuRTNz/0KXTA0OXlLMvBdASwRj9d6OHVu+zymbb5588vCdgFwWzUFpoo61u1vZoOfmXFBAt1gsNodk5p9AdR1Xpmv3aoOn3qxe23cngHl+90w7N4TetHw+jVpa28u9hFigWCw2A1jiuIsv5/2FLpkazAcpQhqHHoUpNfCY3QXJVkTV3wS5LxEl/tJvXhsa+uaZCxkxp85k3wLQy1Xpnls71vbd7aUzqXc9Ckkompk/3photSRCppoTZ4Lvy1kTl19kKrD/kkJDHEEKVaZ6WBgmQUxBitGjb115MM8NXL26OBfAra7mGD69skd7+1dnnDybDaighysymqP8QUebqOsghUrVxFne1VX8DIAbY1g9QtFMYspxc+73UDST/MVcN3+4xFLZg/W7jYxUTEGKvfv2PVzNcwMLM3QZnAgE/3gv0J8apGhre6ipZdbJbwHo5FqMaNeBtjvqjucgxQ92DQy8ZcJPSOJ5FagUzSSW5qtz0czASoZkHNPG+/19ffMVuCmGPanaHJgvmXPOl7rURRF12cBBEvwZ2pr8tPKjcuVVR38PwFquxui4bzxP2TRtbQ81wbUQtp20TZF49ChA0Uxia756DlKMzpuVPMtBJoDxIEXhnKzCeSVw77xCEZn8M17qsjmW/looEaUeK3uE5BMre3Ss6/sXEPwSV2KUtJ4aqbVZ78T8q4/cA2CGY+/CTJAiaDRBCh1rCvu5hRAL3N/XNx/AzY67uL9cLp/jSBPA/jPoKFI9lPWCbYyTRiLi+udGbCE8YWDtrPS1F2Bkzhy88vH/3tnd97dE5e9wFcaLj1K7qesUA0nU0kuKWEppvzi8Zctx7iDEAk3VZCV8X87S3yF/gekghfM6wT8eJD5FNDIhI3oeC7w99Mgjb+a5gZ2d/dcIcJ2vKSbPlcvl7MP/bU33hr8KkX/HBRj59iO4x3wfVD3vobUwNtvEjX1HT/EmKBZEsXAU1Psidqar82IBvJQlH/F/TdszkkThFIpSNNPI7hqP0BjyX3oUqTrUo9CP5Gp2dW24V0X/I+JIeyOfvijt6+H4DvQ+e6HSwfmZSxGV0k6El0DE0ibp+3I2KTBIQX48Haw2fM2a4u2AXh7BGFVnz04PcKrmm87O4hUAbonmmLSgR5E41KNI5C/0KO7v7b0qiD4CoJUrkABYaLnxHR1fmQXgLsfjYyfVIx49CmjgS1ViyPTyXEFOcGRosPw6h5n8OWaDFFqoRVJ6FAfK5fIIp2rOSWsrENFttkiae4M7Cf5eUqjiWeB8FYS0VvhjCK7n4iPjzB4XVbNJ4UwbgNStM2yosgegsbykqM5lJQFiBO+XsxKoR0E+ZsfbNdbjEClUES5aGwZoTKKZ2ehMyXtJXFGRNm8fvpZWDwLA/KuP/jsR/CxXHvmIn1+Tz9m1UJ07xokNA7xYLKaA3BvJkjnISyBixs50fjkb6O+Qnzg2rdozkTiFStFMG/MxLtHMQ8Pl8uk8N7Cra/3NAOZ7+/BNWeGxzrX9rwvwNa468pN+PswGKQSu99AT97UteslCQ0+NhYUAZkdhX4H2FbHkD/j2e4SVPcjHKFhsdHv7V2cAJxfFMEABgaKZNnbX5dBYupr/gyRLZLnH3Bv1XR+d1HteqFxteGfxHKTYUyqVgomWZhpNwD1hkIKYsr1kJfwamjrWlO3lKJOP7dH2aJ51eimA5gjG58QXly9+kdM030RVrg1AMJBbnSBZwZlJ4jNibeYrj2tp3OjW+hY7N4QBEb0KTFnZg9jg/OWser6cfWF4y5bjHGnyUVve5ImfRZL/r3vN3L7ETEzl2gCkIXnCwKAwSEEi3Isw1+SeMqq+hYeD2qnsIdGU0j47evLYc9w0iAXcX86qgbL2ZMoxGaSQaEQKKSJjYpRCVA7xqZUrF76Q5wYWi8VUgSWcmSS6vUgwz2S7k9T17X1WyEzc2Le3f3UGFHdHslyeHh4ernHXICacNdFVrs8u6lGQT6BgdDbHIZqZ8CmiEc8gpiDFk3l/3TMu/DaLEzMXu9hJQEYEOKOQ8VQEnYeIyvVOJQHaavRMd6vpI8BruwcG3rXQ1vHb2qYojm3QviKGTlINKz0fmxkCgxTkJzAXpOjo6FsAx7mrH9mUpErRzJxTLBbTk2eze+PpsYFnyxEJv+XA0j8iAU9C5EWovoIkeQW12qvNzeHYwMDAqQvt5WmaXJel+KyEcINIcqMiLAOkDcAcftwJDYjNiwf1u2YVllI9NBoBaLByGrG1t3u+nD1bPXv8EMeYfBx7Bk1zshIaxSn6w10DA29xiuab42eqixJJorm1V0lyb3AHYDmv6SeNdwDsUMifJlnyZzt2lCcs7Ds0tPkIgCMA9n/4vxeLxfTkaLgTGr4kkKIqfhZAyk9/MU6mvVvw1T3FGxCyq/wOSmInSKG6PJoYRSFhkIKYYPxy9nOOV+M+pl6RT8JckEKcP3n6cUeZn2WBFMlKjai/WZL/1z0Skzr91PCOApsSScpzZsqflsvlbDL/2PjvPzz+v2/c39t7VaGW/mWI/O8AbudwfJqtZ+8lReJceDjJ7LykUEQjmvn+zoHyq9wwiIk9pElWebYzBQn9HfKJGHwaGolopiqj/AYIEs+tvYXc6mKxOPPk2WwRZ2Yj/BUMaQi/PXd209BkByY+jfE59++LxeI3TpwNvyjQfwjgFg7RJ54b5mxZCVju+N7h3MjIZc9YaGj7+vXzUMWtUZxlqnvH9zhCLBzGrv2eIMogBflErAUpBMCySFxC6lHYGKcVsdg6FnKrT43UlgDSxHk5Yc5A5Zua4reHBjfmqorLeKDkD9rb2/97y6wrfgPA3wPTQD66RgWj9rZQxy+fFAeGh3/fxJg0ZYUVQJBI1gkvgYilGev7BXmaMUhBPhFTJUhXr+27E7BZYu0SCUkY2cfpmW86Or4yS6B3RdNhA7nVimQFZ+aEqArwcKrprTu3b/wbeQtQfJjh4eHazm2bfkMkWa3Ajzh0H/b3bQUpSqVSAmib2/EQPGHHTwjx7J0UzSSm9kjxfDn79tAjj7zJkSafhKkgRUEjSfUAnq9UKic5PXNu1LWcXgarZXwnYteF/BvcqmEZZ+Ylu1KbUtW7d2zb9LXt28vvWGn1jq3fGm6WdKUAr3EM/3wBiKkgxfeeOnAHIJd5HQ5Lz5hV4tHyCYWMQQpigsf3HbwLwFy3RxbsBHLJ1JPYmsyxBCmYn2XC0IknaAYA51I9m/vcahGKZl78x9IXgeRndm7buGH79s0vWezC1q3lHyEL9wP4IQcUEMGILQPE98snSQqWzvJYArxvs3IaMeMNBN96FEJ/h3yqjWCqtRqHU8h8SSM+XlQO8f5KpTKW5wa2r18/Dyqs/nBhAlT/jG4z8QAAIABJREFU1WUzC/fu3PatP7XemR07tnxfE3kAwJnoDVroB6b2UN9BRTMVJDoefPB6ANdGcnJT74sYctJ8+z0iKYMU5FPmvxGKxeJMKO6O4wzlIWrDIYimXBtUJPcHSUs1XYYo6hPXsbUAryWJ/tzO7Zv/drlcHvHSr6HBjS8o8He5Ken7xtrrN0hxfs80oaqc1JJoAu4KXgIRU/PVc5AiSHbmaY4y+alnk5WGnhqttQGIQbV/9OhbVx7k1Mw33d3FqwHcEI1zGyw8yVOKZn6607S1NpYurQxu/q7H7t23/J5/r4rvxjzEKjhmpa3FYrEZwGK3YxEMPWOOKU1OAy+BiAl6enpaASx0uxQhh6m/Rz4NM0EKDdHk/z+9b9/DVU7NfBMki8ohzkTyL5oZT071JU9XAL+xc+vG3kcfLZ/w2slSqRQKyH4VsdQE/sQDPTGT7nH8TLgHQIvXsbCVay2xnGeatYA3t8QEY1mTa3F2oWgmuaBNY2c6RxGkEAjzsyxYOnHd2h99dNvG1w0ceBTN/MmZelKAvp3bNv2TGJz37dsfOQjg0VhHO9PsXTNnne/be621mEkrEFUsjWSJvLp78+ZjIMSEgyYUzSSRrwE7Z34cLylYv9vK9hpPkOL8K4pcO7idnf3XAPgs5+VHeFfS5Es7tm0aiKrXqv8q1gGfkWZmqpyIZz0K4GUrzvDqtX13ApgXyeZA+4rYma3OiwUEBinIBTARpIgp/180Y76kgWECJJrUAgt6FFLgK4qPGDfAjzSR9h0DG5+Nre87t2/eKcBrEY75yODgoJ1bYnEsPCwwY3ynEelRKC+BiK35uspx907NbS08z1Emn4aJIEWGWix6FO9XKlte47TMN2vWFG8H9PJY+msh2q0Uzfwwb0iatg8NbnwhXtsO22PrtABvwkhKT3uxOBvAnX43TUM3hCrRBCmSlEEKYoMHenuvFeA6x13cWy6XM440+dQ928QZGokehaWSZTGjSVSimXqu2cITWaFo5nle1UL2pZ0D5VeiXqOqO2PrswjMpHrMPF+tK/U6FgGJpWfMsZxnWRibvZ9HBLFAmqWeX1FAhKke5MKYCFIkCSIRzVSmetgYqIiCFPr88JYtx3M/IqzsAQDHUtXuoUceeTP6L1Gb/R0AYzF1WQ2luGTBdYrB6LxZiYk0K+9lYD+2QA4PDX3zDI8JYmK6qu/L2SAJgxTkwv5/3htYKpUSVY3EAREGKWwQT5BC819t5oF1G24FMD/yOTmqSHq3b9/8EpcncN4ZkUORdftlMyed70o8+8vl8jkLDT01mi2G4zKwHz3KmOpBDM1X+L6cVanS3yEXJPdBisf3HbwLkMtiGIxwLuzllMw3Ud08nXcmch+kSILGLpoZoPKLQ9u+9RhX6Icnr74YlVErYihA5bo6kpkbQs3i0fJJKJpJ7NiZqQjaHHfxB7sGBt7iSJML7tu5P0RDLKkeeG1oaPMRTsl8c3KkugSR3DwBgCb6RO7XjsStRyEif2fn9o0buTo/PnkRlXCoGHlJ0dPTcyWAG/1OOzu51hJTZQ+KZhIzdmbtbgCzHZ9WTPUgF0Uh7w1MoCtjUJJU1gu2MU6arJR4unt27PQHhw2snWhfUiiweefWjf+KK/OTPo68CIlGhziMnZrzqoWGVrV5hWd96CTLf2D3x/tHRAHegG93rt0QuDFGeyBkl7WmN5TL5REbdqbns4v+Drk4ch+k8J6X9eNNiVF+C4hgeSz1V1Tx1PDwcC3PbWxvby8AWBrpdHyjCWO/zFX5U9ZqEt5UjSak+Orw8O+PmvAVgy4Xr8MiOLJjx5bvW2hqb2/vnLEMd0W0Jcxl8bSoed5CgOL8NhJWntcD93o2M0hBLo5cp3v09PS0AlgYh0NI0UwjIxVNDq8FPYqW2ZcvBNAa4USshYAvb9u27QOuyZ/iDCtORbRWD5hpq+MUAwl29CjGssIyGKnwRkgDNklD5WddV/aosRQwuVhyfUCNZU3LYOC1RyMW7YxClYs256xeXZwLlduiOdNt1LFeEeNcVJV/uKuy6c+4Kn86BZVoghQKPGuouW5TDIJYyrXWKPdOEieqasLG7u3tnQPgTr+GJQ6yFDC5WJJ8N06iSPWA4ODg4OBZTsecL5bm2gpEdPNUkELuDW7R+EQzVfDEfSsWfZ0r8gJzQ8ZORmSBmwhSdHf3fw7AVX6PcjsvKSASe1UkEhMBT1to5mg1XQ4g9TsOFM0klxIHyLPdlWgcQQouWiOLJZKgGQAo3ty6tfwjAw57bIZ2Lc3kb5ZKJQrAXYAzZ87E85IiLZgIUtQS1+tVx5oyO2XEFQxSkGiQUHjGhJ2Z+rYzhaKZ5JL8rnwfonGIZgpFM42MUzRGnUj+bwSLxeJMKO6OaxLqv69UNjI17CKYOXNmGslq/WBosPx9G46C6z30heEtW45baGh3d/FqADdwlyCR8MbOneX3bRzxvoMUIZUnOB3JxZLbIEVnZ/81AD4bxzAEimbaIJogRTAQ7T5xVu8F0BTR/HsnO1f4R1yGF0e1OntGDP0UDU/BStkCcayDoDBjfNeSwFcUJBoUNlI9xlvreW2euK9t0UuckeRiyW2QQpqwKpIxOD23tfA8p2K+Wd1TvAHANbH0V5DmPkiRaBaXHoXKrz36aPkEV+NFzo+k1hLHtLDxEq9UKiVwXC7Ykh6FqDJIQaJBYKOyx7hmz7WOh2IPU1XJJdlxuTW8NJb8f91bLpczTsXcO8QxKaHXtDoz/zcPIjGVg927c/vGMlfixRNaCnG8pICN8tVPPnn4TkAu8zoOGYKlXGtW9iDRYKWyR+Zc90wF1KMgl+Z75djEjCRIkXDR2theYzLqnrVQIkojSr/JkuTvw8qT/pzQnNWiCFJkaW2vjTnsOsXgbPXs8UNG2ipwXAaWkJ84C5KCER0n535PoGgmuUQPOY+NKhaLKRw/C/2Yp0XRTBObq8QUpMj9QdK+fv08ALdFMh7f2zX4rSEuwkujJumVEXTzh7sGBt4y4Rm7Fh7WfcPDwzULLe3sLd4CYD53CBIFgiMWKpWd3yN9v6TIChn9HXJJ5DJIcWosLPT8LPQjpk1TjaKZOadUKiUikQTNACjyXxK3+Zwsx/kbwRj4Da7CCRh8qv41ZCw9nw1+X6OJoReRUqNoJokItaFH0db2UJMC9/rdI/Ha7oGBdzkhyaWQyyCFhlhSPfD20COPvMlpmG/27Nm/EMCcaDaFLMm9Sr2IxGJof2/ntk3f4SqckFd8dQzbk4VGFovFZgjucTvTxNAz5ohKaRMiYkOP4sprjy4C0Op1HBRM9SAT8EdyOZljEc1UishYIEO6MqLuHl+1auHL+V86seRUy29yBU7YGVvgv4uJiSDFqdFsMQC/1VbSzNBZrhTNJNGgITERpJDgvKKhUH+PXDq5DFIIEIdTKNSjMDFMcd08PWmhRFQke8QrO7dt3M0VOOHjzXu6R2hOzu2z0VLXe6iZF5HFYjFVYAn3BhINheRpC81U9W3TJBlfUpAJzJu8Nai3t3cOgLsicX+pR2Hh8EBMopn5P0ge6O29Fr5riY8bLfq7YEWPer6g9zny3MDAwCkbe6jfIIUCT1hp6/Ez1UUAZnFvIJGcASe/sHThaza8MfUcpKjOnp0e4Hwkl7ws8tagsaywDEAaw+451pTt5RTMNz09Pa2A3h1Lf8XAkzzRJvdBIwVGJCv8AVdgXdzue7HacY7hOEghhnKtRVKmepCYOGDhZWj7+vXzoOK3WpnimXK5PMLpSC6V3AUpotGjAF4c3rLlOKdgvqmisBRAIZLuapOcy/3rHgkaQ/rNH+7cWX6fK3BitLU91ATgRufL1cRLvPZicTaAO72OgkhqKEihFM0k8aAwkerRlBVWIKfp943ZeKi/RyZGkr+5rFEEKYRKtzbOuCAxiWa+Mjg4eDT3a0fVvWimqnyDq2/iXHXVezcBaPLcxxDUhKbRzNFaG/y+jgySnXnaTGuVlT1IRPab2BDNTJxXNBQDZe1JTtdGDmdzFM8RVSmaSaMub101ETgTFWlzPRCiL+7avpGpYHVQS5I7nHfxbPXs8UMm9pUscXumK+RwpVI5aaGt51MXsZC7A4nGwUmx30hTXQcpMr6kIBNdw3lqTMeDD16PCATxAEBSimbaGChEk8NrQY/igXUbbgUw3/VAKP6YC6/Ouax6u/Mu7h0eHq6ZmM6OqyOJ2HkRGVnqIiFj7/1o/vNG7EzPl2Hv79q68RVORzIR8vWSIktjeVo/JrWRZzn98k1XV/EzAG6KxrEzYHCnAcv8DwQ2cfXV/RG9v6Qw9BLPsQ5CMHRDqAlFM0k8JwBwcN++h6v5tzPX3wLFAseG5ZNglTIyQXIVpEjiEc18plKpjHH65dz+TLKYjLrROTPyXyJKRb2Pycs7t25mqa66DVS913n/TDjH44HeG72Og4qaqbASlKKZJB4UYiLVI0ji2u/RQP09UkdcIF+bSogiSKFCERkjIxVTkOLpcrl8zkA7XY+JKr7FdVcf7e3tBQVclw2uJQUTZ4imwbNjfGpua+F5K40VUDSTRGS9wYYehSbiXDSTQQoycXITpCgWiykgS6P46BTNtLK9xqNHYUB9ub29vQBgse+BCBu57uqjtXXuXQBmOO7iO48Oln9gxFXwvIfuLZfLmYWGdnYWrwBwM3cHEgtpUBNBClHXFQ211kJ/h9ThL+elIcfPVBcBmBXFR9dA0UwLfntEN0/BgB5Fy+zLFzrfI94Z2rblaS69+siQLnG9MRkKcgelaGY+PLbaivEzjZAojoFCoZp73bdisdgMwPN59cruzZuPcTqSCfvLuTlDkcSiR3F8+/bNL3Pq5ZvO3uIt8F5F4kMUAizkVvt+2aL4Ligw1QDvEa5f5KnAjA6CiF+h22CgGtKPB4KimSQm9MXBwcGzeW/lyZHqEgAtjs/iJzgXST3kJkihzusE/8WaVd1DR8QAtYhEMwVHtm/f9Eb+1464ruyhIt/lwmsIrlOCVNXES4o1a9bf6Fm1XqVq50WkUI+CxIMYEc1UdX45S9FMUif5Ec4UpWgmydNIxROkUHncRDOdBzLTkDBIUSelUikBtM3zaj3XbCNIgVQ8O8Y/2DUw8JadWcPKHiQi682IaGbi3KYJSOjvkHrXyPTT29s7B5A74/AHhSIyFpCIRDMN5FYXi8WZAD7veBjeq1TKz3Ph1ceTTx6+E5DLHHfxheEtW46bMFBd397buWzo7u7/HICruDuQiDCh7aTAKsdjMDpvVvIspyKph1wEKc6F5hXIWTnUySJLqhTNzDltbQ81qW8xo486E1n+gxTHT2dLATS5dXlAPYqGzOW05r2cm5nzQ9RzkMLOM+YgSj0KEhOKWnog7428v69vPnxX3NlvpKw9yTG5CAyohlhEM9/YPTDwLqddvpl/9ZF7BJgZjV+H0b2536hS33oUAfgfXHmNOExcpxhAjVT2OJ9241fAVBJLQQrqUZCo+P7OneX3897IpmqyEr4r7jDVg9Rv++ekHZEEKSgiY2NRRFNpBgo5XKlUThpoqevbQDWiC2IA12tXRU2opTtPu6mFsdn7rTTW94sWQn5ixhsRzfR9Oav0d0hD/LF8EMUhqgD1KGyMUzRGnQU9ivFB8TwmYwU9e5Arrz7a2786A8Aix10cndvaZGKeqDiujiQ4ODT0zTMWmur9RQshP7E8VY0EEMX3ZVhSYJCC1D+NprsB46JO18Th/Qr1KGwMVDw5vCH/T/La16+fB+BWx6NwoFKpjHHd1UfzrNOudUtgKMfXdYpBsCOa+fi+g3c5F5Il5GNmtonKHgLAbwqr4MjQYPl1zkZSL9MepMi8RxM/1NVzs9KnOeXyTUyVZgAgRZZ7g7v5nCyH79xNBi8bYhcF78FFM86x5xQDsfSMWQNFM0lUhLSW+yBFd3ffbQDmu90jA/UoSGPIQbpHJKKZisPD5fJpTrl8M1pNlyOSSjMATs2a1fxc/k+8xLehLco0sMZssit8TxMbL/GKxWIzBPd4HYeaWApSCPUoSDwIjuwaGHgr783MEtelRxFEGKQgDWHanTGRSF5ScNHaWBBpNC97IIKnyuVyln+7w7dGSKbUqmnQTHEdpKiJjdupU6PZYgAtTofhxBeXL37Rjs9G0UwSEQoTr5VVxXmpbL6kIA3yyabzj7e1PdSkwL1x2M+BjogBQkRK6MHMkzz1PCanLDk9eSWCmvPHHt220USOr2auX7TsKZVKwUJDu7q6WtS3kCwhH3P+TehRQHynuetYU7aXs5E0gmkNUlx57dFFAFoj+dbMO7dBNDm8FnKr160rXgfgWsfDsNeK05NnvNec1/M3U2piX3Esmqli54Ywk9Yl8PuihZCfdGgk/5U9zlehUs/BwxeGt2w5ztlIGrKmp/XAD9E8rT87dvqDw5xu+aazs/8aAa6LpsNZ/nPcz0nw/bKFqR6N+pArnM+TPXaa6rmyhyE9ClGKZpKokKC5T/cYr0LV7PiseoIzkTSKZHr/eCSimdB9w8PDNU63nB9wTb7FjD7GGzt3bnrbgNHhOkihCYMUjbGLfOtRWKkoMV4d6Q6v45AVMjPr1fOLFkI+4RQ4WalseS3/zcyoR0HIRccJptewjCJIIUi4aG0ccvHcPNmJdrsekyAp08Aa4sO7DmZprcVGMOtcaG4DkDodh9d3Dwy8y/OMkBzOdpX9MJAS51yPAhkC/R3SMKYtSLF6dXEugNvj2Dx5W2rE14nGqFMbN7MCSJvjYXjv0cHyD7ju6qOra/3NAK503MVXd2/efMxES12/fFIzz5hXry7Ohcpt3B1INNab2BDNhMBzkOJs9ezxQ5yNpFFMW5Aiaa6tQA5KoE7JnhQy3pbmnFKplKjqsnhO9DT3QYru7r7bAL3csVXFG4dGuI6SOk/1sPN8Vj2nGIidF5GFGbosFvuKkPPrM/+imR0dfQsA3Oj4NGZqO2lsrGD6/nAkopmCIzt2bPk+p1q+efLJw3cCclkk3a3ObZXcH+i1BBTNJBfhGHsXzVRDQW6/Y5FkhkQzEZjqQaIiDSH3Nk3SJK51z5jaThofK5guUyaJRI8iUETGhEmX1lZG01nFM+VyecTA2vEtmhkyBikag++XFComghRdXcXPAPic02Gozp6dHjBznilFM0lUjL777lUv5N/0cp3qgSBKf4c0lOl7Duhb6OzH3RTelhoZqHiMOjESOBPnY5LJPi68+mhre6hJgXsdd/HcyMhlz5gwUJPMb7DISGD3Q/AlBYnIfsPBffserhpoqO/LsDRjkII0lGkJUnT0FG8CcFUc/qBQj8LGSEVj1Anyr4XQ3t5ecO58vj40tPkI1119zL/6yD0CzHRsfB8YHv79URP7ims9CjsvIjs7+68R4DruDiQam8aGaKZ3IfC3hx555E3ORtJICtPyV0NtJSAxfF+tNoe9nGZ5d4i/OgM4uSiW/mYGDO6m1nl3O3c+GbxsCOkKA1XnonCOg2K5uB0GQyK3qa6IxL46PzaK/zWVsT/hXhgvra2tuQ/kdnUV7wrI5vk1acyUtSeGmJYghcQimgm8YqZ0XMTMmH3iXlVpjqS77+/auvGV3Bue4t75ZBpYQz6jd9FMO8EsESzzumQzQ8EiiESV6qGFdPe2gW0fcDckeSaktZVQv8FDAfUoSOOZLk2KKIIUykVrY5w0mqDZn0e7c+9KiPjWrFFW9mjUl/QtmhlSE0GKNWvW3wjFAqfDYCKw+yFiEs08tnOg/Cr3QUI7c7pttpT+Dmk4Ux6kGBc6WxLFx6UjYmR3jceoM/Ns2bc6fZhRqO3nwquP3t7eOYDc6biLx1etWviyieWapH6DRSJPws6zLgFkWTxntzwO10/uiB/bC57LjwbJzjzNUSYN96On+g9ecdWxxa5zzT+8KSlFM404xBGJZub/2XJPT08rgIWOh+G5gYGBU1x49TFaTZdjOitUTfr5oXtKpVKw4Sv6DSpqsPMisru77zZAL4/m6FbmwZP8492mUcjhSqVykiNNGk0y9X8wxPK03lRd9Vjp7CxeAeCWWGy6FKO5D5yN1pruxXSJ+k7Nic4XVo04S1Lfz2dDYifIHRyXFLeUax0kiav0aAiPcyckeWcsa1rm2aYRYWo7mayYwZT/xTjy/wU4YKyuepyktRWIRQpd9KVt2/IvMCbiW2dARRikaIhj7D1Ny0aQolQqJSLqtVyw1lrsBBWDRKVHkaUYZfU0YsDRcu73BDBIQSZp7Uz5kR+JaKYIF62FcYqn0gzEyNNYcW9oZ0wDawyug1lZUjUxTx7fd/AuQC5zOgymKnSJakxBikN8Yk5M2JmJurYzVZRpV2RSmNIgRfv69fMA3BbFpsQn3TaMuohungISI4Ez8TwmY2kYO8SVVx9dXf2fFeA6x138/u6BgXdNrNbMr2NsqUJXTKLk58eGehTEzGT1HKQ4Nbe18DwHmUwGUxqkmFFNVyKSp/UBgbelJizsiCp7JPk3uCPQCHmmUqmMceHVafMl6jz3Xu3oUTjeQ0USM0GKK689uigWUXIASCiaSQzwQG/vtQA+67iLe8vlcsaRJpOyz0+p2QXE8rT+xBeXL36R0yvfdPQUb4JiQRROHTBy9K0rD+be4WnWZfAdyOQLq4bMZ+8CgXZEMxPHaTchGHKEVSMTzUwpmklyT5qlnkuPUjSTTLZ9MZWGpUYSpNC9VkrHxe3pZBGVHtW9+/Y9XM19O4PznGpRBikas3hdr10Lr54AoKurq0WBRU6HYaygZw/aWRJRiWYe37Gj/BL3QZL7ZanOq1AZem1G7DGVQQoR50JnH+oqF62FUQoaUZDCxkEi8G1oqyRMA6uTUqmUANrmuIu1MDZ7vwkDNW1ZDKDF6Tg8bSs1S+J5SSHyOADlbkhyf+Y7f0GuUqVNQyaNKQtSdPYWbwFwZRSbUsISg0YMnWiMumDmSZ7rlxSn7mtbxNu/OnFeTQIQHBwa+uYZIxuL5/Vq5rKho+MrswDcGY/np0z1ILmnWCymIvAcUP/BroGBtzjSZLKYsiCFhlo0pR4ZWbRxeAC4N5b+pln+c6vXrSteB+Bat76n4CmmgTXiLHF+M6XYY2hOs7JHHvb3ltPLABSi2QOUJQ9J/jk1FhYCmO23h3w1TiaXKQtSJM7zsj7EDxlZzD/Hz1QXAZgVSXffrlQ2/TDvjazBt0aIKl9YNcQscp97b0c0Uz2nGCQFMwZ4FqLSowjhXIEXQST/+2MIzv0eimaSST6Gp86YiaSyh4CL1gApkpXx9FZMPI0N3g1tZWWPxpxavgWYJbFxhvT29s4BcIfTYXhvaLD8uh2zI6ogxXOPPlo+wY2Q5P7Id345a0XgmRg296bij3R1dbUAWBzJrkRHxIJDLBEZdUb0KMT5mGRpwr2hTorF4kwo7nbcxVOXzUhesNDQsaywDFNcIWzqtkwYSyeISTQTTPUgRqaq68tZMwLPxC5TYmBk0roEfhXAP74t8Rkijbp8LXIbQQoBxK/AlODIo4PlH3Dd1cfx09lSAE2Ou7i3XC5nRua026BiEDu51l1dxc8AuDGWPUBVKJpJcs/4S7O7HNs0dgSeiV3/ZWr+SIjlaX1Iwsg+Tqt809HxlVkCvSuS7mYjMwq5n5Pd3X23AXq532Fg8LIhX1F8lw0WsfN81rM2iBiq7BGSbEVMe0AaEr6kILlntJouB5D69XYomkmmIn4wBWgSjWjm85VK5SSnVc6NnKiU0OXgcLl8Ov/nXeLb0KYeRaO8eOcOmSXRTLdBCh1ryvbaWRJR6VEcX7ly4QsgJO/OVepcj4KimWQq1tEUWTORBCm4aC0Q4qk0Y6aMnnuNEA18SdGYA8t1kKKA1MQ8GU8x+JzTYXhheMuW43bOs6iCFE+yjDMxceQ7tzNrQn+HTInNN7nc39c3H8DNUXxN4W2piWGKyKiz8nxcVF2PSaIFpoE1wDFW32fJW1u3ln9kwjH2nWJgyvgWwbJ4zjOKZhIruLZpTnxx+eIXOcZk0m3nyf4DTdVkJQCJ5ATlbamFo8P5bexHFnhWyL3B3db2UJMCS9xuC8BrlUr5Pa48OsYXmClmHDDXKQaGbgg7eoo3QbEgmrM7KIMUJPes7ineAOBax13cwxdNZEp8mEk/VDQa0czRo29deZBTKt90dxevBnBDJN09YSF/d8GCY3cLMNOtYU09CjrGF0UwpEfhVxskyRI7Lyk0KtFMRVbgRRDJPWkWVrleiAKmepCpOY+nwLSMJUjx9L59D1c5pXLuBkhURp2JaHeWOHc+mQbWGMPIubaRSGrI8FOv5YLPjowcM3PZIHHpUbywc2f5fe6ExICl6dvvCdSjIFPDZAcpBIgjX1LAcjwmTGtoNEEKK9FuEXVuaCe8/WvMWeJ5ngTJzjxtoaG+Uwx03/DwcM1QeyMKuuvj3AaJDZvG9+VsVsh48UKmxnqezF/e3d13G4D5kXi/XLQ2jo94jDor0e7gWiMkG2uV/Vx39dHZW7zF+VnynJXy1ZIFt8EigZ1Uj2KxmAJybzxHN0UzSf4Z19jyvC5f3z0w8C5HmkwFkxqkyOJJ9YBoxttSC2YOJBoldNSQ+znZ09PTCsHnvQ6BQp4bLpdPc+nVO5d9p2mpoYoSnrVBgiHRzFNjYSGA2bFsAWkIDFKQ3HPltUcXAWh1fFpxHZIpY3LTPZJoghTHKpUtr3E65Zs1a4q3A3p5DH0V4LWhoc1H8t7OKgpLART8jkPgC6vGGEbeK3sYEs10PBZpZidtM9OY9ChOzZrV/Bz3QZL7/TE493skYWo7mTImNUghqlEEKcZvwZTTKefjVKhF87JHjTyNDRlFM8nFfEffaVpq5CVeqVRK4Pcp89tDjzzyppXGBkQlmvlkuVzOuBGS/DtVvkUzk4yimWQq19Mk0d7+1RkK3BPFR6QjYsVzj8aoEyN6FN7LSqoq94Y6Gc/xXeK4i2erZ48fstDQx5468HkAc3wuVluTRaT8AAAgAElEQVRl9UQQkwg0n5gTI9uI65cU1dmz0wMcZTJl/vVk/eIZs0/cC6A5EpeQehQ2iMaoC2YE4FwHjkbntjYd5LKrjyuuOrZYgJmOzVozFSU8BxXVUIWu9vavzoDi7ngMVWFlD5L/dbl+/TwAt/s9qvBMuVwe4UiTqdv7J2suazyimeFc2MuplG+KxWIzgMWRdHcs1bPP5L2RnZ3FKwDc4ngcDpTL5XNcffWRCvUo8mOk+g0qJomYua1vnnV6KYCmSLYAbZJzvAgiuacpK6zAZGv9TetRBaZ6kKk9lyftVAGiCFJYESiMnZMj1SUAWqKw6AT7K5XKWN7bGZp12fkl5HZvoGHdmBm9wvmC3WNoTnsNUgTJzjxtZhwkKtHMlwcHB49yHyS5d6iCbz0KMfTajDhZU5NozEQimkkRGRPjpEk85XCN6FGkWXAuhkitmsbssb5FM1MjZ0hXV1eLAouczrHDlUrlpJk9XuMJUgiUqR7ECq7tzIwvKcgUMylBiq6u4mcA3BSH80tHxIShI4jIqLOhR6HeRTNT4d5QJ729vXMA3OF4sR7Zvn3TGxaaGtKWxXD6Gk3E1mWDgqKZhORwP/ds07y/a+vGVzjIZCqZlCBFJhGVelSKZhoZqWiMupqdaPcyx8Nw4r62RS9x3dXHudDsO8dXLTlgqd89NNi5IRwX57s1om2ALylI7lm9dsPNUCxw20GRJwEoR5pMJZNj/CXRiGbWZhSq+zmNcn54rC7OhcptkXT3vUe3bXwt743s6ur/LIBr/Z7n2FcqlQJXX50+vPrO8VVLopnBb4pBisxMkGJcnE8i2QLOjJ3+4DB3QpJ3Cuo71UMDU9vJ1DMpQQrROPQoIDg4ODh4ltMo55O8ueb7Nvaja8/Ezaym3tNvlC+sGuPF+54nGuzME79PmU/NmtX8nJXGetfy+Rh7rJTnJbEfVd5FMxmkINPgv03KXIYsi+LrBSrd2pjkEZXDFRtzMgTvzie1ahp0mnh2yLRJzpkoX+1cG2RvuVzOzEyaiPSVwFQPYuasklWez6paC20aMh3+W4Pp6NlwB6CXx/DxVLhoadTlzaezkVst4lsjJBQC94Z6z5IHH7wejlOCALy4bdu2Dyw0dCwrLIPT12jWRDPhW8vnY2e3UDST5J5isdgMYInjLr6ye/PmYxxpMtU03ugIWBnP5wt80m2DWIIUOtaUWbiZFUDaHI/DO0OPPPIml12dk6Ra8P2sXWHo/PAbVAySmAlSeNfy+ThZUqWNRXLPyZHqEjitfDRusTFYSKaFpPFzWWMJUpye21p4nlMo36zuKd4A4Jo4eqvPD2/ZcjzvrVyzpng7gHluz3OmetAxvrj+GdKjELeBXhU7jrAmGpMexau7Bwbe5T5Icr8uNfHt91A0k0wTk/F8M5IghZrKY412gmsWk1FnI9qdBtcvW5gG1ijH2HlKEOzc4LsVMFW8uWtg4C07ayKe1EWFUo+CWHGkXPs9ps4q4m1tNY5isTgTwKJIPh0XrQ1TJ5oghRqZk8G7oa3KIEWdlEqlBMBSx10cK+jZgxYa2tHRtwDADR4HQQTGznGJ5jyzUqmKEPUdpBidNyt5lqNMpsXTbuQvO346WwqgKZJdiY6IDY84HqNOgg3RTFXPQQqqYDeAx5468HlALnM7SQT7K5XKmInGFvxWWAm2yuqJquvA3UdJhS8pSO7p7CxeAeAWx13cXy6Xz3GkyXTQ0CBFmsZT6lGbahR0yjmlUikRicaoOzN2+oPDeW9kW9tDTepbBfs1qmA34mDyfZaIoRxfcfzySZCaGYfVa/vuhGMtn4/YV8DI0beuPAhC8r6HNIVVAMRxF/lqnEyjLdjIg0VDLEGKt6nen3/27Nm/EMCcOHqrTw0PD9fy3soFC47dLcBMx8Y1X1E0gOC+Io8YEs1MvI5FTaszn7bS2DSuUtpP7dv3cJU7Icn9me/c71FQNJNMHw0WzozkJYUysmiBDGlE5XBt6FGoczHERIRBioY4Kb7PkkSDIdFMXeZ0kh0cGvrmGTvjIMsj2gGY6kGszFXfdmZSoL9Dpm/6NeoXjYtrfS4SC5qOiIVhiunmSZSimbnw5xikqJfzAsy60HEX369UtrxmoaGr1264GcBnXI5CEGvGdzwi0AlFM4kRbwBY5rh3R4YGy69zmMl00bAgRdIkqyLal6hHYcHQiUgJvYDUxJwUdR2kyCw9H88rp0ZrbfAswCzyJAA1YSCIOtajsPOMuVgsNgNYHM15liUMUpDc093ddxuA+W73yMBX42SabZDGOYSI5Wm9jjVlezl18k1PT08roHfHMSPx5tat5R+ZGBPB5/0Ogzxn6vl4bj9k4jq4KFAzQW7PQcWa2AlSnBrNFgNoiWQHeH379vI73AhJ3smcp3oEEQYpyLTSQE0KjSVI8eLwli3HOXXyTRWFpQAKUXRW5AmOSS68a76wasRXDL51S0IWLBl+XoMUJ764fPGLdiYNItKjUL6iIEY8KOdVqFjZg0z3EmvELymVSgkgy2L4YEKlWyOOjkQkmmlkTjq/IU+UWjUN2mQ9zxNtKWQm5sn5cx33Oh2HPaVSKZiZNIhIX0mpR0GszFXXl7N8NU6m365uxC958snDdwKYG4U7SEfEilUXj1GXGBHNVPUtmplyb6iXrq7iZwDc5LiLrw0ODh610NDHnjrweTgt4axi7YZQo9FXQsrKHiT/tLd/dYYC9zju4gt8NU6mm4YEKUJai+bWWlKKZtoYqGiU0KtNqD1tY0hcB45GL5uRHuLCq49MnJ8lppxjxy+fgp0Xkb29vXMAuTOSLWB0zoz0AHdCkneaZ51eCqDZcRf5apxMvxXSmAM/icUhHJPayLOcNvkmgtvYD3NwcHDwbN4b2dlZvALAzV4HQQXPlMvlc1x9dfrw7ssGC0Uzc0BmJOUGAMaywjI0VD8s1+zlPkpsHPqZ84A6U9vJ9NOQg09El0XyvZ6pVCpjnDb5JiRZPPXkRb5n4rwrhOU4X1Pc50bKNLBGzRTnQmRhj6HGeg1SvL57YOBdQ7t8NOeZQKhHQazMVd+VPQIFbEkObOt6f0F7e3tBgShKPSrL8dCoy9tBGfA/bAyJcz0KBikaY/cBngPe1TkzC89YaGhXV1eL1xLOau0Zs0g0+kpK0Uxi57TyHKQ4Wz17nOmrZNqpO0jR2jr3LgAzovhYdESsnB6xBClUa+FPTTTU+TN+CSm1aurkgXUbbgUw369NiwPlcnnEQlszaV0CoMXpONgKUkQkAt2UJAxSkNzT0dG3AMCNjk3LfcPDwzWONJl2v7tuYwbpkmi+VpYwSGHCBo3GqHthaGjzESNt9TwmJ1atWvgyl169Cze4Di5aeoknid/1KoZyrcedoRsi2QJ+sHVr+UfcCUnuaU6cpyUmfDVOckHdQQoRuTeSb3Vsx47yS5wy+Wb12r474fg29mNez3ctNLOrq/+zAK5xPBB7S6VS4Oqr+zhy/gLKkB5FcJueZSblJgZn6GP7KF9REBtOvAbfehQUzSR5sQrrPlYQYglSPAFAOWXyTSr4YjQHJWzoUWjiWyNEhGlgDZopzl9SJJZEM32OheIZKyk3550hXR7P+pfHuQcSI6zybUhnDFKQXFBvkEKAZHEUxycFnayM01+Kpa+hqfY9G4PiPP2GWjV109b2UBMUns+SE/e1LTLxEq+3t3cOgNt9HhCwZnxHIwKdBNpYxMguAmlz3L+3hx555E0OM8nFuVDPD3d3998A6OUxfCgVlsay4S9KLC8pXrFykKh6F80UimbWyWeuPbpEgJmOu7jHSkrQaDVdjgaVJ8+fd2GqQpf3ajcfZgwY2c+dkOSdrq7iXQDm+bWhGSwk+aEuQyQksjCS7xSScJaOSM7p7i5eDeCWSLq7y46h7frW4Z1KZdMPufrqNIwy72WD1cz54Vk0MzP0kqKzt3gLYtFXAp6uVCpj3AlJ7p2BtOZcNJN6FCQ/1HtbcmccFjQOVSqVk5wuOTdAEX4mGqcukSEL7Vyzpng7HN86AGDwsjGmkW/dEhh6bSPiNUjx/q6tG18xMwy1EI0ehYAvVYkR20vFd5BCUgYpSG5I6lytd0SxKQko6GTCcY9Gj6IWRpLv2BiTzLfzST2KRnkpvkUza4bmSXA7FntgSfxaEJFoZqCNRYwsS9dBiiDZmac5yiQv1BWk0EheUiQUzTTiMGosehRPPPpo+YSJMfFuaIswSFEnq1cX58KrUON53ti5c9PbFhp6f2/vVRBc73OpWhPN1GhEM0Mh0MYiuaenp6cV0Lu99k8hh/lqnOTK/67v1I8jSKGJUtAp78Z1X998AIsj6e6QlYYG30EKrTaHvVx99ZG2BLdCjeMHpZlUjzQ0uXWMNagZR7hYLKYKLIlkC3iL1QSIBcaypmUACm5PKqEeBckXEzYMOzuLV0CxIIJvFJql9jKnSs6N6yrWAEhj6KuqDT2KCMpKvrZ78+ZjXH11zmdgpe/+BTuimapeg4paa7GTcnP8THURgFkxrH8BHuMuSGw4TL71KBDAIAXJ2Zqb6Ilf0CheUQjw/cHBwbOcKnk3rrE2kp5+MHdWYuL2/sprjy7yXVZSKZrZmD3Wd4lamBIi8zoWr1gKKIqk0aR6sOQhMTNXE3UdpEiRMUhBcsWEgxQi2a0xfKAAvMBpkm+KxWIKSGccvQ07yuVyZsLQznw7n0rRzEZ9Sc/zJNPqTCtCZAJgmU9H2NYzZhGNRjQzBAYpiJmNxHOQ4tSsWc3PcZBJnph4HrAmN8bwgQR4ntMk5zvraO0LAK6I45BMtpgxPp2LZiYpgxT1srqneAOAax2fIAeHhr55xsRYrN1wE4ArXY6CJLZuCDWayh7VebNTVhMguaezs/8aAJ913MW9Vi7ASDzUIVYWPheHU8iXFLl3hjPpjqSrY4me3WHINfD8ZDkLY7MpqFvvAaTOS9QaSglKHN/eWxKEO19BAAsj2QL2l8vlEe6EJPd7SBNWue4fRTNJHu2SOn42iiCFpMogRe4dgUj0KES+baU8VE9PT6tA73I7ForDVm7Ic/4hvefeGxLNdHt7Pya1kWetNLaKwlI4riDw0eWvj3MPJDamqm/RzGDttRmJgjqCFBJFkKIJNQYpckzHgw9eD8GiOHobBqy09FxoafNsaKsw1aNBlpHrIEUwpYXgNmD0dKVSGbMzDEk8oplCPQpiZjf3XYVKqhQCJ7ljQkGKUqmUALje/QEKjAwODh7lNMnxBM4KRZwXfHM/HZNMtlpprHfht4SimXVTKpUSESx13MXTc1sLJjSNxsWH73U6DqZuCIPGI5qZZMogBbGyP7Y5dnbe3DUw8BZHmuTujJjID/3Z009fDaDF+8cR4AinSM73VtUvR9LVPZXKph/S0M7J3qDCW4d6J/Se/QsBzHG8O5kRIjtz5tznAcz2aX8bq+yBaEQz392xY8v3uROSvHNqLPg+q0QYLCS5ZEJBCqk1XR/F11EGKfLM6rV9dwGub2I/PBk309DODaNHjsw/xBVYHxnSlb57aCfHtyYFv+s1KZgZh87O4hUAbo7DvMJj3AWJibkagvOziqKZJKfH9wR/akEcX0fe5RTJLynkF2M5IyXTP6ahnRv279v3cJUrsD7EeYlaQaBo5vTz3tBg+XU7h1ptBeJIX4RQj4JYMcCci2ZKwiAFyakbPqEfUo0jSKGBLyny7AMAfzWSjj5m6lmsc0NbRahH0YjvCPg2/IKhlCBxKpopYsv4lnhEM6EJK3sQKzaY57OqxnLqJK9MKEgRVD4TxcYkTPfIKx3d/V8CcFMUtpzqHxlbOBTNJJ9KT09PK4CFjrv4thUNmfb2r84AcLfLMzwYuyGUaPQoqs3J2D7uhCTv9Pb2zgHgt5y64CDLqZPc2tsTm9MhiiBFCAxS5HbiCmIRzMxqhexbps48dW5oZwmDFHXivkQt7Dxlnznz5BIAzS7PcGu51tFU9pBnBwcHz3InJHlntJouB5D6dXSEqR4kv77eBD3EOF5SJDjNKZI/ent75yjw85F099u7BwZMaaOoYJnj8TixatXCl7kK67aMfD9rN1T9JUvcBhX1XLOaCSh2d/d/DsBVcax/ZaoHseEkpc71KCiaSfK8/iZ2vkQinBlEOUXyx7la+ksA5sbQV1H8oaX2djz44PUArnE8JE+VSqXAVVi3k+I6SCFix/BzLGD6wvCWLcetNLaWRJPqARWlaCaxMVedi2bWhEEKkl+SCf7c5VE4iAIGKXJGqVRKVOR/i6S7Z2vnUlOlR5Na4trQVupRNGp39RykCEkYsZNv7zc9y5TxLSGeIEWgaCaxs0F6Xpcnvrh88YscY5Jbn2KCPzcrioMUfEmRNx7bc6AbwG2RdPdPHn20fMKW7+nb0E4SBinqpaOjbwGAGx138flKpXLSQkNXry7OBXC7y1GwdkMoGkdlD8GRR7dtfI07Icn9/thTvAHAtY67uIcvQ0mube4J/tzsKM5SCQxS5G5M5Nei6Wui/8lgq30/488YpKib5mSl7w7acY6TplpbHXZAvvuWJWbGoVQqJQCWRrH+FUz1ICYohJrrs0oFTPUg+T7HJ/hzUbykEGpS5IrOng0LAdwfSXdf2jG4+c+sLRlV14b2O1bKSuZ8kiz33T87opmQxGVQUYGRI0fmH7LS3sf3HbwLkMuiWP/CIAWxso/41qNAoB4FyTcTDVK08tORqd9Q8WsAJA5HTv7jeVvbDh09G+4AMM/xsOzhImzE3NaVzteumXniVTRTgH379j1cteMNhRXx7ADUoyBmcH1WZYWML0NJvk+LS/2B8WeJM6PwiQVzOEXywZo1628E9K9H0t1aguSb5hyDzPsNOVM9GuPDS5vXzlm7wYfTVy0CsXVbrxKLaGY2OlP2chskeaet7aEm+E7Bet1aeXsSH5ccpBg+fLgVsdxmQy7nFMmJDZckvwmgJRI/bmD79vI75lrtXDQzSxO+pKiT7u6+2wDM93tm2LnB7+4uXg3B9R7HIRgTzRTEUtlDDg6Xy6e5E5K8c+W1RxfB9atxlgEm+eeSgxSFD5BG5BozSJEDOns2LITgyxHNu9+x6Ri4NrQ1FLJ9XI31zpHE97N2VTOBrFoS/K7XNDMTpOjq6mpRYFEkZxtTPYiRA9+5HoUk1KMguSfhJ/i0XQrX8CPkgEz/KRBNcOzQzm2bhq01uq3toSYoFjsel1d3b958jIux7k3VdZBCE0N6FH4FTN8eeuSRN80cb9K6BLG8EhTe3hIrzlFwHaRIMopmEgvrkHyKwYnP8StML2t6+pdD8GA0cw7yr2FMMBMA5l995B5xrVWj1KNoyPyG6yBFUguWDL8VTieZLeNbNBrRzEDRTGLHFvMcpKjOnp0e4CiT3NtU/ASfZjswSJGDk+K3EIkGCoCjc1uTPzK5VsS38JtSNLNuisViM4Alfg8MHNmxY8v3zbQWWObUubClRyGx6FHg2K6tG1/hTkjyzurVxbkAbndsVz9TLpdHONIk7zBI8elc3b5+/Tx+humhY23fL6ji5+Lpsf6e2YND4TxIIRTNrJNTo9liOH7WLgGGdBDW3wynAqYi1p4xR/OS4gkYfCVIInSMmmsrXPtHAqZ6EBtrkZ/g05dy01iykJ9h6lm7du3lcj71IRaqTVL4D2adeCSegxSZZLOe4aqsc46ocyEywEwgK0vcvnwKSRgxI3C7enVxLlRui2L9Q5jqQWwY/iKrXPfP2GszEi+XHKSo1WaNRbVZJXIPp8nUU5OWrwO4Oh4PDn+0dWv5Rxab3tPT0yrQuxyPzqGhoW+e4aqs131UlqjNy7nm9OWTQg5XKpWTVtpbmKHLEMllUSJC0UxiBdcB9YwvKYiVc+NSf2B4+PdHAdRi+UAi+gVOk6mlo7v/Z6D45ZjcN6TydauNPxda2gAU/G4C1KNozGmjng0/bQ4jTxma0y6DFPZSPUIsqR5BsjPcRwn3x+nnfWrDEDNm4wR/7nQ0X0jxJU6TqaOrq6tFBN9APGKZAGTjzsGNhw3bn77LSqrQuK4T98/aRV/atm3bBxaaWiwWU0CW+nSFbd0QBo1ENFNxyNILFxLxWbV2w81QLPB7VsmToDYMMcLEghSKUxF9oxs7eoo3capMDVk6458AuCuiLmvQ7J8bN0BdG9pp4EuKug8a70JksCOsemosLAQwy+VaRWbtGXMULylEwFQPYoKC+k710KBM9SB2bMeJnTgRvaQAkGS1Hk6Vyaeju2+dqPxfkXV7+67tW0yLMjovoTd65Mj8Q1yd9U6SxLkzZqj6S+ZWG+TM2bMnnrfS2M7O/msEuC6G5a+iDFIQG3MVwXWQQsAgBTHkf0/w52J6SQEVYZBikunoKd4kkvxXRJXmAYjoP7Pc/s7O4hUKeH5ptH/fvoerXKF1G0YrnK9jM4ZfgNegoj41PDxsRi9Lm91Xu/mQDZWwsgexMVcT1+tSay18GUrsMKEghQJHI/tO7Q/09l7L6TI5dHV1tUgIZUAvj+owBLbv2LrZtvGW1lbAc2BJdQ9XaEPw/NpmTGojz1pprLgdi8TUDaE4r3bzIY7f17boJW6BJO8Ui8VmUSxx3MVXdm/efIwjTcyc6hM6XAVvRfadClJr+uucLpPkByYz/y2gbZF1O6RB/oH5Xogs9z03eetQL6t7ijcAuMZxF5+pVComSnO3t391BoBFHgfBXmWPSEQzRR4vlUqBOyHJOydHqksAzHBrzzDVgxhjosKZb8f2oUT0V86ropNGsqa7/2v6/7d370FyVXUewL+/c3seyYQESEBQBBQxKI9AJpPIymLUZIaeyYTMxN512QUtV7NrWaVVWluylq6zglatu26pW1atqLtI1vLRTiaZV6ebRMYtVjDJhEcAAwGCICRgAuQxz+57fvtHIiiCQO5k0ud3v58q/iPJPa97z/n1Ob8DrElfyfXHhUL3XcGPC+NJMzNMmjkFdVixnYjsSLb0IMyYcfBSADUW2yF2lZAm4ALIonR86pg0kwLpqups56MQxyAFBeUYj3vInhTW1XkHR/xqdpmp09y+epUKvpXCoped1y/YWKDB8kT7wOLFC3ifeEJerP9i7LeEM16N5gZRPHFrb28wOzxbWzvOT8vxRu+EQQoKZUFkOkjhPQOGFNyYfP1E/VOprC3RzyJliR2Pl+bWjuXi9ccAUrc7RYHvFArrHwm+Da+++s2wvY1/K7cpT8Vr03aCQHGZcJJmGg0YiSCoXwi9+dtuXvzc1fox7kajUOZmlr9VExkd3cFWppAcU5DCwz2Z0vpa2Lyi4xp2m4SL29bVS0RkHYDaFBb/cEajG0wsDMoZ6xNtJs1M6OgRuYWGi/hssTcfTMDR6nXBPrCz1vZ3F73ggYGBgef4JqRq19KSOxXAeYaLuD2U3ElEv3Nsxz0m3a60VpiofKW9vX0mu86xaW7ruEhEBwDMSmcN6I2Dg/m9NgYDjCfNFP4CmNChCX+h8bG+BYCG8KDLluXmQOV8k99lRGHd7KEpudlDwKtHKZDvfXkJbO+UZj4KCs4xBSk2bcofALAnpXV2dtnX3siu8/otb129SCC3AZib0ip42Pnxr5uZf4rtiXatOgYpkk78Kmp6t01Ixwwy9broWL/5VS7W8oztoTxsY+OaGoXpaw5fHB9MmkmhLIYi20kzebMHBTkuE/zZnamdeEM/tTzb+W52n9duefsHmp3obQDmpbbfeP9JQ9vtRNX0Nv49/f35JzlyE6/ijR8JkmCOBHlvNKgouLdUWjsSyuPOe+O+iwWYkYpvHpNmUih9VW0nzURAuZOIXui2xz6i5cE015tzyLe0dJ7JLvTqWlo7P+q870dqj3gAgGwoFdYXrJSmuX31fAAnc/FJr/KhMB2k8JN+WzA92urxLC9hTb5VU5I0Uw9e3njxr/gOpBBej4Dh46uCZ0p9+d1sZgpusZ3gT+5Med2diQx+kMvlatmNXl5j45qa5hWrvwHBdwDUpLgqxmPg06a+eepNT7QV4FGPhI7m7rnQ8Kz20VKp55mAevVim+0Q2DZmTUfSTFHcyduRKARHrgS2ewxZPPNRUJiOOUjhxN/N6sN7D4zGPzqawZ5+T/PVV7/5tDP23Saqn2Rt4IZNA92P2lrFC5Nm0p80EdcsApAx20cCWhy3tubOAHCWxXaoSGhnrSUVOylUmI+CwhDD9jXZXoRBCgrSMQcp4olZ2wBU0l6BAnQcGI2/zUDFi65q68hJJbpbAebtgNy9b++8fzVYMMtBCvWZeJh9N2nXV+ajqJpJamy1LQ5c0bQgmKOnzc3XNgC4IBXjX3mzB4WyErIdpBDe7EGhDs1j/YOl0toRCHawCgEB/vbgqP9h2o9+vL+jY25zW+cPFfITAKeyZ6DiPD4yPHxT2VKhjmanv8Rwuz2yuadnP7tv0veiM34kyAUUpDAbVNwa0pGCqO6w6d1FfzA84gzz+lAY3ypVy0EKnaiJt7GVKUTJriPj9VK/Xxm5g6PxbctXrnxjGt/xLSs6rsuU5QEBPsi+8IKvFgrdd1kr1NwznrnEdHZ6ASfXU/NOtBykKM+ZKcGMbTGbByGsox6xT0c+CgAPFov5Z/kOpGq3dOmH643/6LJzaP3659nSFKJkQQpRBin+0J+5OLOtubVjeVoKvDzb+e7mFZ2/gMr3oTidXeDFD8PEyOwbTK7hxXY+CiiTZibV3NxxOoBz7JZQ7s3n82OhPCyARSaHqrigghSClAQpeNSDAlHbcHghAMu7oHnUg4KVaNuhVPR/NRLW4h86U0SKLa2rvx1Puus3bcofsFjI5a2rLo3gvqSCdigb/SXKEP+hoaGbx41OQE1PtL1nkCL5zM8tgdp9MYSUNDObXfVWbzRzfezKge16SkvSTOEPWBRIZ42XQAyvY4JLLEz0okQ7KTZuXP8YoA+wGv/4tQDRv4/q44daVnR8zEpSza6uLndVW+fKlrbOnzlxd6mgnU39Mo0v+GKxf73hIzi+bdoAABMASURBVAOmJ9qxxA28uSj5zI9JM6tmwRhZbYvdm3t7nw7lYbPZ3GkAzk3FxDLiUWAKZrJuOmmmix2DFBRu/52CIV5gNb7S7BCnQ+WmQ6PxQ81tq9c0Nq6pCbEYS3O5Wc1tq9fcsfXe+xTYAOC9bNxXaHLFz0+aEX3Vavna29tnwnZ2+vtKpbUj7MkJPyzedpDCw4cThDSaNFMD28bsXbw4JcP/0El17n6+BSmQ96PlIMXo2Nh+XnBAwUqcZVq9DoqTz7Aq/+Rk6q0C/fa8M/Z94aoVnd/zUfy90oYNT1TzM2ez2dmxq28VuE6MxlkAs9iSr2pfrYv+Op/Px1YLOBHXLBKxnJ1emDRzCipRxTXB7jmwA1c0LXhw00BPIN8fNRmkCO1aPRE0aSqORuoWy99AsuNo7qRzDY/F4aGhoQpbmkKVeLExZ1bm9oOj8SEAJ7E6X9VZqviiVKIvtLR13g6RvEaVDdUSsFixIvemisZXKdDhgWUC1IEJJ17HWkA/2j+Qf9L06lOMJ34Tz3wUCV11Ve7tivgUw0UM5trLXC4XHRyNL7P5LgrrrLVXNKUhg5eKMGkmhcF47iQBj3pQ2BIHKfL5/GTLis4+KK5hdb5mDsCVUL1SKtF/tKzoeBBwmxT+DoXbcmt/98M4ztGB9vb2mZO+rlERLxGRd0GxpKzxWWyaY/bvxcGeDfZnoGiC4Zm298ogRdIuYn9bezC7bQ5N+AsBNBhsg/JJMzJB5Y4RwaI0xPyFV9NTMH3VL4HhCY1n0kwK3NRs2/a6FiIMUhzzrF7mAzpfIJ8QKFraOg8AeASQxwDdDdXd4txu5ytPTEpmxJX94cmZOvlydx8vzeVmNYyO1kyg/hTnUCteToP6cyE4F9BzAZwDyDmTHucCPiMQbpZI3oCbJ0aeuz4dX3VYXoCOP/v06TxLzT7yKsNdwzkSFJs96nFPQFfAork99xb4OA1XdGutK3NhRKG8SUwnzUQUcywSgxQTo89tqms4dS+AM1ilU2IOgIWALjzyHhWoKmKJEEGBGkFdWdDS1gkAE4CMAloLoAGjMSqoO/L/eQDQ3wsU87rY4+DXta7ywWIKzv21tOROBeJzDRdx+/DwTWV26cRsJ83MxMHstvGwecRAEdiv9ZqapJkP9/X17eMrkAIgABYZLt+eas99R/Rq3FT8JUNDQxWB/JDVeULUAXoKbG7prXbjXuUDaZmUqSsvgeVIl/KoR1K5XK4WwALDRXz81t7ep4KZhRvd1SKQsJJmqvFcPi+8Q8F8FBSEbDb3DgAn2x2KPHZF4XNTNiDEf5/VSSmiAvnYrYPd29JSYHGR6Ym2OjBIkdDBsfKlAOrMjoGA8lEsXfrheigustgOsSCwbcyaip0UKsKFEQXBRxXTRz0EzEdB4ZuyIEWxv+ceVfycVUqpWLAr/mnjQPf/pKvQtn8NVDheP5q0DtXZPuOr4VxRWz/rwGUAagy2wrNHk0sHIZfLRYBclo7xH3MnBQXSV23noxCJGKSg4Lmp/dvka6xSSsFi/bsbB9fdmMKveqPh0h0IaeFTvRMj24EsH9KvU95sW2xBQOmeR0Ym3wlgVgqG/0h59Pn7+BakMKZxpoMUXuKR7WxlCt2UBilK/d39AH7FaiWz63RgcOLwsx9PW7mXtefOBnCm4SIGtfCp4gFieeIXTzZEwUz8vNGAkQR21MNLlJKkmbp1KAUJpCl87e3tMwG9yOxIhNxfKBQOsqUpdG7qx4Z+k9VKRt/8W1Fu+Is0TsSi2FtP/MZ8FAktXbXqZADnGy7ifUP5/OFgFvMQk4tjH/uwghRIR9JMVeFRDwrCpK9rxBTdbliV735hPgqyYaqDFJg9I/NfAjzKqiVTEzDIjtqo3FoqrR1JZQVYz0fhhEGKhGrizGKYvuc4nHwUy5bl5gB4m8WhWhfQFbBHFgxIxU4KJ7xNgAIZk6rvMl1ADwYpyMZ3Zar/wnw+P6mKLlYtGfKQVLQl3fe/285Or1Jm0syEotjbXoypBtNHojrfdDy+71Xg4ZDew5ZvWHmpclThwojCeJU7NZ00M0LMsUgmHJdJzOWLL/kBBHexesnCpNhHlfcWi+v2pLgOBIDl7PR7bu3tfYpdPTHTQYqQJn4ianLnkwZ2rV5tw+GFsHnDyks9srm392m+AimQF4nlIMWhhobaB9jIZMFxCVJ0dXV5eP0cq5cC97jEfnnaF7DL2jouAHCy4QkLf3WYimq0va19ZHT0QDBJob1aTZrpfhnW82oq8lEIeNSDwtDS0nkmgLMMF3FbPp+P2dJkwXHbDloc7NmoQA+rmAK1UzPxFRs3rn8s7RURGc9HAWHSzKRaWzvPAfAGq+VTxbaQEuYKrAYpwtpJIZqOIIWKMEhBYYzJGpjOR8GkmWTJcT2zKhV8ApDnWM0U2Gt+2PnoytKGDU+wLgCo2E6aqcogRUKx7TvnIQhnt01ra+4M2PylcEIqY/cG9W5BOpJmqsa82YMC6au2v1U+sN1mRH/KcQ1SFIvr9kD8Z1nNFNAnbMj50fcVCvnfsi5eYDlIoXEdtrOJEy7ire+2CehmjxgVk5NwFdxVKBQmQnneo1fyvs362FdgbP/e0+8FURjLeNNBCiYBJ0uOe/bvYn/PdwHcxqqmABYi65wfv6pQKBxkXRzR2LimBsACw0V8eHNPz362dNKFivGJX00lnImf0YCR+LC2Mdu/kvd33Q1bh4dvKvMtSNWuq6vLAVho+EP8BJOAkyXTcUWZRhpdA2Avq5uq9t0u8s3Lmy7OhfRL3XQ49Q37FwCoNzzD5lGPhHK5XATIQsNF3BPS0S+xmjQTgSXN9OnIRwFl0kwKw53bd1wEyGy78xnmhiFbpuUe9cHB/F4A1wBgxlmqNpMQ/Uipv/tTXV1dntXx0m+e8W38yiBFUgfHKhcBaDDcR0JaHIuKNFpsBh+5oCbgAqTjZg/HIAUF8ir3tnf8AUyaSba46fqHigPrbgPkS6xyqiL7RVxLsb/nv1kVr7Tisf1roMLx/GZyppMDikMwfaRlZe48AHMNNsNvS3353YG9XVIRpIhdhQsjCmNEGk+aKY5BCrLFTec/dnnTxTcC6GW1UxXYri5q2tj/0yFWxZ/66pn+NbCC8ox72MiJO4npIIWPw5n4ScXbHK8iQU2+s9nOswC8MQWD/zGegadwpjOwHKSo+IlZd7GVyZJpDVJ0dXX52TOjDwK4nVVPJ/BLtXb2zOiK8H6Zm17Nzdc2AHiH4Y5wX6m0doQtnXQVb3onhY8wvi2gdxuTZlYBdZqOq0fBox4UhpUrV55kej4j2MH5DFnjpvsfzOfzY5VaXQXgV6x+muYp1UGF/lWxf911+Xx+jPXxKjIjjQAiwyVkPoqEmpuvbYDgnYbfGTvDuu3H5uLYh3bWWtKRj8Kp3sG3IIVgIs4sMj2f8cKjHmTvG3Mi/tHNPT37I0UWiifYBDRNtsRwl5UGen7EqnitE23jvwaKZ5Aioaju8CIAGbMF1HAmfrlcLlLgUoutUCOT28J6ZEnHTgqn3ElBYfRV6/komDSTDHIn6h8eHFz36ziKrgCwi81Ax1EZkH/Zt3feFZsGuh9ldbyej575XwOZNDPpxC92thdjToPpI4ZvWdk5MDDwXEivTlUsTMHwH589o+ZuvgUpkEW86SBFRRikIINTsBP5j2/qyz8eaXSlQnawKWjKF1CQHc7LkuJA9/XDwzeVWSOv+7NuOUgxvm/PaQ+wjRMvx4zvtpFwAlne7HgNavK9rK3jAgAn21/0YTifz0/yJUiBdFjL36oDVzQteJCNTNa4E/0Ag4P5vXVu8n0CbGNz0BSZVEXX/r1zGwuFbmY7Pgbt7e3zALzF8gSbgavk1Pb1o+P7npoXTABdrOZBCOwXwigl+SiYNJNCsaw9dzZs37azpaury7OlyRpXDQ/R19e3b3xk9p9DcQubhBK6zfnostLgun/mIvTYTVQi0xNtZdLMxFpbc2cAONtq+UILZKnRxbGLXVjbmFVSEaSACpNmUhAyvrLE9lAEj3qQzbFbLQ8yNHTzOIAPtaxYvR2qX4PtWwVo6hedT4ro54r9PQx0TcUCzUVNgFruMAxSJOQlNp4cMJyjHkuXfrgeevAig+/1sWeemXtfYI+diqSZNc5xJwUF8h6xnTQTnvkoyCZXbQ9U7O/+hoisBLCPzUOvwSigX0a5YT4DFFO5PrO9Zdk7YZAi8cTPdj4KDx9MkKK24fBCADX2XkNh7WbJ5XK1ABakYPA/0d+ff5JvQQqE6SBFnIk5nyGTXDU+1Mb+7kEt64Wi6GMT0SuoCHCTjyrnFwd6Pl8qrR1hlUzlJFQtBymev7W/+2E2cuIlpPGbPTLB/DolokyaWQUOjccLANTZH/rKox4UhKVLl2YAXGa4iLs39/Y+zZYmi6r2fvtSqecZACtbVnRcB5VvAZjF5qKjM/L+yPvPDA72PMTKmHqtrZ3nxMAbDBdxK0yfZZmeUQjIIsPV+NtSX353OGtGbVKTnSywbcw+JUkzlUkzKQwzZsy92EMbzI5FMB8F2eWq/QGL/T23IIouAzDA5ko1D0jeeVlY7O9uZ4Di+Kk46xNt3cJWTqa5ffV8QE8xW0CRoCZ+CptjthLQbhbL7fBHE0fHIAWFIXZ4l+XyCYMUZFgmhIcs9uYfBrCiecXqdqf6dQXeyqZLjUkIfqwiXyn1de9kdUzDR8+jCWK4gEyambyPqF8My51EwwlkLVuWmwPE5xtshT2b+vKPB9ZxbI+LIybGD8/h1d4UBAe/RA2PSecZMCTL4zcgpf7uvvGR2Rcq5PMAnmfzmfasQP7NeZxX7F93HQMU07kCNZ40k0mmpuLTsdj2EAjnZo+ozjfB4spYw/qFcOXKlScBcoH1ka+Cu47exkYUwGvE9M0e5VmzonvYymR2phnaAw8N3TxeGuj+cl1UORvQ68FghbXlwbBC/q7Wld+8caD7HwqFdb9hnUyfrq4uB2ij3QkLnry1t/cptnRC3vTNHlqu9dsCetzFNsdqWEduJuLMohDnVK970qjCpJkUhCO7zPB2u18q3J3P58fY0mRVJtQH7+3tPQTgX1pact9BpvJpQD4O4FQ2aZAOQfFTOP+fxf71zBdwAt2+9Z75EWS21fIJj3okls1m67zgEsNF3LW5p2d/QBNVk8ezRAJLmpmOox5MmknBcLWVxYDYDRwK81GQbZnQC1As5p8F8PlsNnuDj+r/El4+A9sTaCs8gJ9BdO3EjMy6oXz+MKukCj7qcItNX3whDFIkFcvMSwVq9ppFDSyxqgqaDC6NvfNjw2G9W6QpDXcGxZFjkIICmc/IEstDUgLbbUb0emWsFKRQKEwAuAXALc3ZjveJyBoIrgZQz2aunvkNgDsg8tOKK/+IdztX4zwbxifawp06iSd+thORhdRHmpuvbRCM/sJeG+jThULhYFCP7PU3EJe3Pfp1JLxkppRWHjoiMDwm4/h2tjKZnrFbLlw2m53to/pVgMtBNQsgYpNPu3EAt0OkH2X9SbG4bg+rpHq1tHX+EoDVfAOawcTcgYGB59jSCRbGbR1rBfI3dr+KfgmPnRERERGdOBnLhTv6S8wtAG5Z1p472/n4agHaAbwHQC2b/7jZCWCTOtk8We828ShHQKt4kTud6t0my6Z4fmCQAYrEa3iI5aSZky6eYLZ0IiIiohM630yhbDY7W119C4A2hbwfwFnsConsVuj/OZXNotjEGzmIbGppyZ2KTLzP8LdjS3Fg3RK2NBEREdGJk0ljoY/usMgf/Q/Z7KrzfCRXwstSCN4D4Bx2jZenwJgAwyp6B8T9IhO7OwcH83tZM0T2+bqJehdH/2i3hHIfW5mIiIjoBM/IWAV/bOmqVSfXx3KRqmsEtBGqjYC8I4X1tQfA/SrygMAPq+r9c2bW7Mjn85PsJURERERERDTVGKR4jZYty82J6svzAblAvVwgDm+HYj6AtwBoCLRYCuBpFTwmwC4odil0F6C7Ij+xK7js6kRERERERBQ0BimmQFtb2yll1L5JIOeI4iwVvAnAPAhOV495IpgLYB6AuQBqjvPjeAD7AewXYL8C+6HYr073icpTUHnKqz5ZI/hNQ0O0h7siiIiIiIiIqFowSDHNcrlc7ejoaINq3exKJDPg4wZ4mSPOOQCA+owITnq5P+u9HhYXlY/8b97D6QEPGXUuM17jR58fGTltbGjo5nHWMhERERERERERERERERERERERERERERERERERERERERERERERERERERERERERERERERERERERERERERERERERERERERERERERERERERERERERERERERERERERERERERERERERERERERERERERERERERERERERERERERERERERERERERERERERERERERERERERERERERERERERERERERERERERERERERERERERERERERERERERERERERERERERERERERERERERERERERERERERERERERERERERERERERERvbL/B0nUwHhUxpaEAAAAAElFTkSuQmCC;strokeColor=#737373;" parent="1" vertex="1">
          <mxGeometry x="340" y="552.54" width="102" height="57.46" as="geometry" />
        </mxCell>
        <mxCell id="V9Rlgw_xiWvQEG7U__is-29" style="edgeStyle=orthogonalEdgeStyle;curved=1;rounded=0;orthogonalLoop=1;jettySize=auto;html=1;exitX=0.75;exitY=0;exitDx=0;exitDy=0;entryX=0;entryY=0.5;entryDx=0;entryDy=0;fillColor=#f5f5f5;strokeColor=#737373;" parent="1" source="V9Rlgw_xiWvQEG7U__is-10" target="V9Rlgw_xiWvQEG7U__is-11" edge="1">
          <mxGeometry relative="1" as="geometry" />
        </mxCell>
        <mxCell id="V9Rlgw_xiWvQEG7U__is-30" style="edgeStyle=orthogonalEdgeStyle;curved=1;rounded=0;orthogonalLoop=1;jettySize=auto;html=1;exitX=1;exitY=0.5;exitDx=0;exitDy=0;fillColor=#f5f5f5;strokeColor=#737373;" parent="1" source="V9Rlgw_xiWvQEG7U__is-10" target="V9Rlgw_xiWvQEG7U__is-12" edge="1">
          <mxGeometry relative="1" as="geometry" />
        </mxCell>
        <mxCell id="V9Rlgw_xiWvQEG7U__is-32" style="edgeStyle=orthogonalEdgeStyle;curved=1;rounded=0;orthogonalLoop=1;jettySize=auto;html=1;exitX=0.75;exitY=1;exitDx=0;exitDy=0;entryX=0;entryY=0.5;entryDx=0;entryDy=0;fillColor=#f5f5f5;strokeColor=#737373;" parent="1" source="V9Rlgw_xiWvQEG7U__is-10" target="V9Rlgw_xiWvQEG7U__is-13" edge="1">
          <mxGeometry relative="1" as="geometry" />
        </mxCell>
        <mxCell id="V9Rlgw_xiWvQEG7U__is-10" value="" style="shape=image;verticalLabelPosition=bottom;labelBackgroundColor=#ffffff;verticalAlign=top;aspect=fixed;imageAspect=0;image=https://www.raspberrypi.org/wp-content/uploads/2011/10/Raspi-PGB001.png;strokeColor=#737373;" parent="1" vertex="1">
          <mxGeometry x="740" y="300" width="89.85" height="80" as="geometry" />
        </mxCell>
        <mxCell id="V9Rlgw_xiWvQEG7U__is-11" value="" style="shape=image;verticalLabelPosition=bottom;labelBackgroundColor=#ffffff;verticalAlign=top;aspect=fixed;imageAspect=0;image=data:image/png,iVBORw0KGgoAAAANSUhEUgAACWAAAAQsCAYAAAAVAKe5AAAABHNCSVQICAgIfAhkiAAAAAlwSFlzAAAOLAAADiwB+ZvuEAAAABl0RVh0U29mdHdhcmUAd3d3Lmlua3NjYXBlLm9yZ5vuPBoAACAASURBVHic7N17mN53Xef/1+eeyakHmhRKaegBKgg2gNAAmUPAqOHQtRUXjVrdQoGfxR6SSYAF1hMjCitdsElD8WdB4AcsssQDVBRdi3aXJmnR/lxxy8KuUhdKK0shLeWQ03w/+0dSKNBD2s7M577veTyua66ZyeTwnD9yuK555f0tAQAA7t2GDSO59REPy4HRozOSJZkpy1N6S5OyLL3uuHRlaXrd0Uk5Nl2WJHlYeuWodHVpSpYf/lmOSuqSb/+k5aiUfPv9mqOSu72fe3m/1Jdm1+XvmqtPFQAAAAAAgAdutHUAAADMqfEty9I7sCK1d3zKyIrMdCuSuiKltyLJ8YferivSlUPvl6xIcvThl2Nz8+F/M/eS1MOvUw+91CSlJrUc+rUOv0qt3377W77rG+qsf6YAAAAAAAA0YIAFAMDg2LBhJP/y6EemzjwyB0dWJt0jU8pJSXlUUg8Pq8qK1ByfZMWhl25pupFDP752h3dQJd+xgKrlHgZTAAAAAAAAcP8MsAAAaG98y7KM5KQc6Fam9FakN3NS0luZmpOSujKHxlQn5eacmtTRpHfo8tS3T04dfl1clgIAAAAAAGBeGWABADC3Jl71yJSZUzNTT03pTknKY1JzSko9JSkrkzwy6RZnJocf79cdfqSfJRUAAAAAAAD9zwALAIAHb9X04qy44+Qc6Faml5NScnpqOT2pK1NyUmq+P/XAsfnWsarDF6vu/jYAAAAAAAAMMAMsAADuS8naqVPSlcel1sen5vEp9bQkpybllGTPSd++XJXDR6vq3d4GAAAAAACA4WaABQBAsvbCFTmw6PT0yqrUnJGS0w9ds8oTMpNjvrWmcrkKAAAAAAAAvoMBFgDAQvHtkdXpKWVVaj3j8Mjq+zOTY791xequfZULVgAAAAAAAHC/DLAAAIbN2ObHZKQ7IzN5UkpZlZJV37pk9a1HBXpMIAAAAAAAAMwGAywAgEG19sIVObB4VUbqGenKqpSsTvKUpB6brrhkBQAAAAAAAPPAAAsAoN99z9CqnpGUJ2cmJ6aXpN5tbAUAAAAAAADMKwMsAIB+sWHDSD73qCdkpHdmas5M8oNJnpyZnPCdQytrKwAAAAAAAOgXBlgAAC2smx7NgTuekK5bnZrVKVmdm/PU9HK0RwYCAAAAAADA4DDAAgCYa6svWJSlR3//d4yt9u05M8myJA5aAQAAAAAAwAAzwAIAmE2rLzgqi5c+NSmHHyNYzkypZ6TrFiUxtgIAAAAAAIAhY4AFAPBQTF6yMt3IZGrWpmR1kqcnWZLk8NjK8wQBAAAAAABgmBlgAQAcqae86ugsO/C09OrqpEwm+aF0eWQSl60AAAAAAABggTLAAgC4N99z3erAM5IstrYCAAAAAAAA7mKABQCQJJOvPjZ1/zOSOpGaNSkZS5dHJLG3AgAAAAAAAO6VARYAsDCtu+iY7F0yll5dm9pNptv37CSLv/Xx2i4NAAAAAAAAGBwGWADAwnDX4Crd+pSszb48M6VbdGho5cQVAAAAAAAA8OAYYAEAw2ny1cdm5sCa7xlcAQAAAAAAAMwiAywAYDjcfXDVy/p0+56Wkl7rLAAAAAAAAGC4GWABAINp3UXHZN+idal5Tkp+ON2+J6UcfpZgbdwGAAAAAAAALBgGWADA4Jjcsiq1Ozu1rs++8qwkSw5PrgAAAAAAAACaMMACAPrXmqkT08uzk7I+qWen61Ye+oDVFQAAAAAAANAfDLAAgP4xvmVZaiaTbn16WZ+aM5MUzxQEAAAAAAAA+pUBFgDQ1totp6ebWZ9azkm69SlZmsTmCgAAAAAAABgIBlgAwPxas/Fh6fWel+TsJM/LTHeiRwoCAAAAAAAAg8oACwCYexMXn5aMPO/Qlas8J8mS1kkAAAAAAAAAs8EACwCYA9O9rPnK0zLSOyepZ6fmzDhzBQAAAAAAAAwhAywAYHaMb1mWmvUp9exkz9lJWZlaW1cBAAAAAAAAzCkDLADgwZt41SNTDzw/ydlJ969ScnTrJAAAAAAAAID5ZIAFADwwY5vPTMlPJPWc1ANPbZ0DAAAAAAAA0JIBFgBw/ya3rEqtG5Lu3NT6/a1zAAAAAAAAAPqFARYAcM/uGl3V+vPpuscd+sbStgkAAAAAAACgzxhgAQCHTfeyZs9ESjak5CfTdY9uXQQAAAAAAADQ7wywAGAh27BhJJ9bOX5odLVnQ5KTWicBAAAAAAAADBIDLABYaO4+uro5P51eHtU6CQAAAAAAAGBQGWABwEJwaHT1Iyk5NzfnBenl+NZJAAAAAAAAAMPAAAsAhtnkllWZ6c7LzXlReh4vCAAAAAAAADDbDLAAYNisnTo1Xc5NzfnpuiemtA4CAAAAAAAAGF4GWAAwDMa3HJ90Zyf1vMzkRxOzKwAAAAAAAID5YIAFAINq3flLs3fFc1K685LuJ5IssrsCAAAAAAAAmF8GWAAwSDZsGMnnVo6nV87LvnpuSnds6yQAAAAAAACAhcwACwAGweSWp6fWF+Xm+jPp5ZFJbV0EAAAAAAAAQAywAKB/rdu8PPu7n04tv5iue1rrHAAAAAAAAAC+lwEWAPSV6V7G7viRlPqi7Ks/lZRlrYsAAAAAAAAAuHcGWADQD57xilOyaObnUvf8YpLHtM4BAAAAAAAA4MgYYAFAK+vOX5p9x52T1AuSmR9NTWmdBAAAAAAAAMADY4AFAPNtzabVKeVF2ZefT/Lw2F0BAAAAAAAADCwDLACYD2svXJFu0YbUcmGSp7bOAQAAAAAAAGB2GGABwNwpmdy0Ll25MDN5QZLFrYMAAAAAAAAAmF0GWAAw29ZsfFhGys+mlkvS5cmtcwAAAAAAAACYOwZYADBbxjafmZKXJ/XnUnNM6xwAAAAAAAAA5p4BFgA8FGdtXJLbez+e1AuSur51DgAAAAAAAADzywALAB6MiY3fl673C7k9L01yQlJaFwEAAAAAAADQgAEWAByx6V7G7viRlO6C1LwwJSOtiwAAAAAAAABoywALAO7PmqkTM5LzU/f8YpLHtM4BAAAAAAAAoH8YYAHAvZnc8vTUmc2p2ZCaxa1zAAAAAAAAAOg/BlgA8B2mexm748dSZjal69YnpXUQAAAAAAAAAH3MAAsAkmTy1cem7j03dc8rkjzB8AoAAAAAAACAI2GABcDC9sxLHpveyMvT7bsgKSta5wAAAAAAAAAwWAywAFiY1mxanV5vKqnnxt+HAAAAAAAAADxIvuAMwMKx+oJFWbzsJ5JsSTKe1NZFAAAAAAAAAAw4AywAht/q1xyXxd88P6W8MjWntM4BAAAAAAAAYHgYYAEwvNZsenx65ZXJ3vOScpSDVwAAAAAAAADMNgMsAIbP2o0/mJmRVyb13Pi7DgAAAAAAAIA55IvSAAyPNVNr08trMpMfS2ppnQMAAAAAAADA8DPAAmDQlYxtOTul+3dJxlvHAAAAAAAAALCwGGABMJhWX7Aoi5edm+Q1SXdG6xwAAAAAAAAAFiYDLAAGy1kbl+SO8uLU8stJTm2dAwAAAAAAAMDCZoAFwGBYs/Fh6ZWX5Pby2iSPap0DAAAAAAAAAIkBFgD9bs3UiRkpF6bWzUmOa50DAAAAAAAAAHdngAVAf3rmJY/NaO+XUvOi1Lq4dQ4AAAAAAAAA3BMDLAD6y8TFp6UbfUVKXp6aJa1zAAAAAAAAAOC+GGAB0B/uGl7VvDzF8AoAAAAAAACAwWCABUBbhlcAAAAAAAAADDADLADaMLwCAAAAAAAAYAgYYAEwvwyvAAAAAAAAABgiBlgAzA/DKwAAAAAAAACGkAEWAHPL8AoAAAAAAACAIWaABcDceMYrTsmig7+WWl6ckkWtcwAAAAAAAABgLhhgATC7xrccn9q9OmVmU2pZ1joHAAAAAAAAAOaSARYAs+Mprzo6xxy4JLV7bUqWt84BAAAAAAAAgPlggAXAQ7P6gkVZsvQlqQemU3NS6xwAAAAAAAAAmE8GWAA8SNO9jO/5ySRvTM3jWtcAAAAAAAAAQAsGWAA8cGNb1qfsuTTJ01qnAAAAAAAAAEBLBlgAHLnJjWPpRn4r6X6odQoAAAAAAAAA9AMDLADu35qNZ6TXm06XDUltXQMAAAAAAAAAfcMAC4B7t3bq1MyUX07qy5KMtM4BAAAAAAAAgH5jgAXA91p74YrMLP7VzOTipC5unQMAAAAAAAAA/coAC4BvW33BoixZ+pLMlN9I8sjWOQAAAAAAAADQ7wywADhkbMv6lG5rala1TgEAAAAAAACAQWGABbDQrdl4Rnq9NyfdWa1TAAAAAAAAAGDQGGABLFSTl6xMN/q6pL4syUjrHAAAAAAAAAAYRAZYAAvN6guOypJlG9Pll5N6bOscAAAAAAAAABhkBlgAC0fJ+NRPJeU/pNbTWscAAAAAAAAAwDAwwAJYCCY3/XC68pYkT0tq6xoA7tntOfSH9DeS7EtyICVfS5LU3J7UmtQvNOwDAAAAAADgHpTWAQDMoWe+4vsz0l2a1Be0TgEYIl9Ncueh1/Xw69yeWu78jm/v5fZDb/fuTOqdmalfT2/kjoykS6nfTN23N/XYg9l56Z0NPxcAAAAAAAAeIgMsgGG07qJjsn/xr6bWzUkWt84B6FMzSW47/PLlw6//T2puS6m3pZQvp9bb0uVLWVS+lNHy1Vyz9famxQAAAAAAAPQdAyyAYTO++dyk/ockj26dAtBAl+SLKbkltd6SUm5OrbcmvS+k1tuS8uWM1Nty4OBt+cQVX24dCwAAAAAAwOAzwAIYFpNTT0hXLk/qc1unAMyRvUluSXJrkltSc2t6h1/X3i0ZzWfzza9/PjdceaBxJwAAAAAAAAuIARbAoFv9muOyeN+vJ/XiJKOtcwAegq+mlptS6k1JbkqtN6WUm9Lr3ZSDBz+f67d/tXUgAAAAAAAAfDcDLIDBVTI+dV6SS5Oc2DoG4AjsT3JzUj+b9D6bUj/7Hderrr3spiS1dSQAAAAAAAA8EAZYAINofOPTkt5bk0y0TgH4LgeT/HOSTyfl06n5THr1f2am+2yuf/gtyXTXuA8AAAAAAABmlUdVAQyStReuyMHF00kuTjLSuAZY2O5IyT+m5rMp5VOp9cZ09bM5uPd/5IYrv9E6DgAAAAAAAOaLC1gAA2G6l4mv/D9JeUNqHtG6BlhQbk5y46FrVt2nM5LPpNf7dD6+9dbWYQAAAAAAANAPDLAA+t2aTatTyltTMtY6BRhq+5P8Y1JuSKk3put9KrX7RK7f9sXWYQAAAAAAANDPDLAA+tWhxw2+KSUvS9JrnQMMlZtS8g/p8smUfDIzI3+f0z7/T9mxY6Z1GAAAAAAAAAwaAyyAfjS++dykXpbkxNYpwEDbl9S/T8rfpZa/T63/kINL/yE3vOmO1mEAAAAAAAAwLAywAPrJMy95bEZG3pbk+a1TgIEzk+QzSbkh6W5IV27Isjv+Nte8e2/rMAAAAAAAABhmBlgA/WDd9Gj2feXipPxmkmNa5wAD4dYkN6SUG9KVa/ONkd355Ju/3joKAAAAAAAAFhoDLIDWxjafmV69MjWrW6cAfevuY6sbcqC3Oze85bbWUQAAAAAAAIABFkA7q19zXBbtfX1KLk4y0joH6Bt3PUrw2qTuzMzMx/OJt97UOgoAAAAAAAC4ZwZYAC2MbTknve6K1JzSOgVo7utJ/ltqrk16O7O0fjzXbL29dRQAAAAAAABwZAywAObT5CUrMzNyeUp+snUK0Mzhxwnm2sxkZ7624hO5cXp/6ygAAAAAAADgwTHAApgP66ZHs3fPxpS8PskxrXOAefWppP51UnZlJNfm2m2fax0EAAAAAAAAzB4DLIC5tmbT6vTKlUnObJ0CzIvPptS/Su39VQ7u/+v8zdv+pXUQAAAAAAAAMHcMsADmyrrzl2b/8tem1l9Ksqh1DjBnvpjkv6bUq3Ow+8t84q03tQ4CAAAAAAAA5o8BFsBcGJtak5J3JfmB1inArLszqdenlKszU6/O9Zf//0lq6ygAAAAAAACgDQMsgNk0vmVZUl+f1C1JRlrnALPiG0n+S0o+ltr9VXY//O+T6a51FAAAAAAAANAfDLAAZsvE5vHU+s4kT2ydAjxkn03K1Um9OksOfDTXvO1rrYMAAAAAAACA/mSABfBQjW9Zltq9LiWviqtXMKi+mdSdKeXqdOWqXLf1f7QOAgAAAAAAAAaDARbAQzG+aSIp70zyhNYpwAN26MpVLR/J0j1/mWvevbd1EAAAAAAAADB4RlsHAAyku65eJf82Sa91DnBEvpHUXUk+kjLzoey64n+3DgIAAAAAAAAGnwtYAA/U2OZ1KfX3kpzeOgW4X19IyVVJ96Hc8fBrcuP0/tZBAAAAAAAAwHAxwAI4UqsvOCqLlv1aiqtX0Oc+m5qPpGZHrt+2M0ltHQQAAAAAAAAMLwMsgCMxvulHk/KOJI9pnQJ8jy4lu1Lrh5ORD2X3Zf/YOggAAAAAAABYOEZbBwD0tXXnL83e46YTV6+gz+xN6rVJPpLR3gfz8a23tg4CAAAAAAAAFiYXsADuzdjmM1Pq+5L8QOsUIEnylaT8aUr9cL626M/zyTd/vXUQAAAAAAAAgAEWwHfbsGEkX1j5qtS8Psni1jmwwN2elD9JLTty53F/kRun97cOAgAAAAAAALg7AyyAuxvb/JiU+v8leXbrFFjAvpHkr5K8J8u7q/LR7ftaBwEAAAAAAADcGwMsgLuMT70oyRVJjmmdAgvQN5N8LMmOfH3RH3q8IAAAAAAAADAoDLAAnrXxhBwceXtSX9A6BRaYvUmuTrIjSw78Ua5529daBwEAAAAAAAA8UAZYwMI2vun5SXlnkpNap8AC8e3RVW/JH2fnpXe2DgIAAAAAAAB4KAywgIVp8tXHptt3WZKXtU6BBaBL8l9T6nsyU/8w12//ausgAAAAAAAAgNligAUsPJMbx9L13pPk8a1TYMh9JqV8IJl5b3Zt/6fWMQAAAAAAAABzwQALWDjWTY9m/+2/klp/JclI6xwYUnuSsiNdfW+u37YzSW0dBAAAAAAAADCXDLCAhWHNpsdnpPx+ala3ToEhtC81H0nynty54s9z4/T+1kEAAAAAAAAA88UACxh+41Mbkrw9yXGtU2ColNyQWt+b0fr+fHz7l1rnAAAAAAAAALRggAUMr3UXHZN9i65I8qLWKTBEPpfk3Unvvdl92T+2jgEAAAAAAABozQALGE6TW1al6/5TklWtU2AIzCT1r5NyZZas+ONcM32wdRAAAAAAAABAvzDAAoZNyfimTUl5U5IlrWNgwP2vlPL+HOj9Xv7mtz/fOgYAAAAAAACgHxlgAcPjmRc/PCMj70rKOa1TYIDtS3JVau/KXHfZx5LU1kEAAAAAAAAA/cwACxgO4xt/KOm9L8nJrVNgQH06Je/OvtHfyw1vua11DAAAAAAAAMCgMMACBtuGDSP5wqN/NbX+SpKR1jkwYPYm+ZPD166ubh0DAAAAAAAAMIgMsIDBtWbjyen1/mOSZ7dOgQHzD0muSG/J+7Pz0jtbxwAAAAAAAAAMMgMsYDCNTf14St6Z5OGtU2BAdEn+LLW3Lddd9rEktXUQAAAAAAAAwDAwwAIGy1kbl2RP79KUbIw/w+BIfDE1b0/p/b/ZfdkXWscAAAAAAAAADBvjBWBwPOMVp2Rk5oMpGWudAn2v5IakXpk68t7svuybrXMAAAAAAAAAhpUBFjAYJjf9q3TlvUmOb50CfWxfkquSujW7L9/VOgYAAAAAAABgITDAAvpdycTUq1PzxiS91jHQp25JKW/PyMwV+fj2L7WOAQAAAAAAAFhIDLCA/vWsjSfkYHl/Uta3ToG+VPPXKXV7Tr71quzYMdM6BwAAAAAAAGAhMsAC+tPklqen63YkeUzrFOgzXZI/S697Q3Zuv651DAAAAAAAAMBCZ4AF9J+JTReklu1JFrdOgT5yZ2reldG8Jddu+1zrGAAAAAAAAAAOMcAC+se6i47J/kXvSM3PtE6BPnJrSrkyvX3bcu3v7GkdAwAAAAAAAMB3MsAC+sP4JU9MRv4gyarWKdAn/i7J1uz/5u/nhisPtI4BAAAAAAAA4J4ZYAHtjU/9XJIrkxzdOgUaq0n9WOrI5bnusj9pHQMAAAAAAADA/RttHQAsYGdtXJI9vUuTbGqdAo3tS8oH0838Vq7f/qnWMQAAAAAAAAAcORewgDYmLj4tdXRHkme0ToGG7kjJFRnptubj27/UOgYAAAAAAACAB84AC5h/k1uela7bkeTE1inQRMltSbkivX3bcu3v7GmdAwAAAAAAAMCDZ4AFzK+JTReklrcmWdQ6BRr4Ykouy9cWvTWffPPXW8cAAAAAAAAA8NAZYAHz46yNS3J774okL2udAg38c1K3ZslXfzfXvHtv6xgAAAAAAAAAZo8BFjD3Ji9ZmZmRP0zJWOsUmGc3Jrk0S1a8P9dMH2wdAwAAAAAAAMDsM8AC5tbY5jNT6h8nObV1CsybWv4+pf52Tr7lP2bHjpnWOQAAAAAAAADMHQMsYO6Mbf75lPr2JMtap8A82Znae1Ouu+wjSWrrGAAAAAAAAADmngEWMPs2bBjJ51e+ISWvaZ0C82RXUn8tuy//WOsQAAAAAAAAAOaXARYwu5558cMzMvKBpKxvnQJzrua6pPfGXHfZn7ROAQAAAAAAAKCN0dYBwBBZM/WU9PKhJI9tnQJz7JNJfjPXbfuDeNQgAAAAAAAAwILmAhYwO8anNiR5V5KjW6fAHPrvSV6f3YZXAAAAAAAAABxigAU8VCUTU69OzRuT9FrHwBz5VJI3ZfeK9yXTXesYAAAAAAAAAPqHARbw4K276JjsG31/Us5pnQJz5NMp9dez6/gPGl4BAAAAAAAAcE8MsIAHZ/KSlakjV6VmdesUmAP/nFL/fRYf/85cM32wdQwAAAAAAAAA/csAC3jgJrc8PV13VZKTWqfALLslJdNZvOJdhlcAAAAAAAAAHAkDLOCBGdv8wpT63iRHtU6BWfS11FyRkSVvyM5L72wdAwAAAAAAAMDgGG0dAAyQ8U1TSf3tJL3WKTBLDiTlXSmjv5rdb/4/rWMAAAAAAAAAGDwuYAH3b930aPbvuTw1F7ZOgVlSk/xBSvfvsmv7P7WOAQAAAAAAAGBwGWAB923thStycPEfpuSHW6fA7KhXJ/XV2b3971qXAAAAAAAAADD4DLCAezex8ftSex9J8sTWKTAL/japr83uyz/WOgQAAAAAAACA4WGABdyzsc2TKfWPk5zQOgUemvK/U7o3Ztfx70imu9Y1AAAAAAAAAAyX0dYBQB8a23x+Sv3dJItbp8BD8KUkr89Xl1+ZG6f3t44BAAAAAAAAYDi5gAXcXcnE5tel1te1DoGH4EBqfidLy+tyzdbbW8cAAAAAAAAAMNwMsIBD1p2/NPuOe2eSc1unwINXr05Xp3L99k+1LgEAAAAAAABgYTDAApLxLccn3VVJJlunwIP06fTqK7Pz8j9rHQIAAAAAAADAwtJrHQA09sxLHpt0u2J8xWD6SlI3Z8mKJxtfAQAAAAAAANDCaOsAoKE1U09JL3+W5NGtU+ABOpCa38nS8rpcs+321jEAAAAAAAAALFwGWLBQjW/60SR/lORhrVPggalXp6tTuX77p1qXAAAAAAAAAIABFixE41MvSvKOJItap8AD8OnU8opct+2jrUMAAAAAAAAA4C691gHAPBub+qUk747xFYPjy6n1wpx8y5Ny3VbjKwAAAAAAAAD6SmkdAMyTDRtG8vmVl6fkotYpcIRqUt6X0ZlX5uPbv9Q6BgAAAAAAAADuiQEWLARnbVyS20fek9Sfbp0CR+i/pZSLsmvr7tYhAAAAAAAAAHBfDLBg2K29cEVmFn04Kc9qnQJH4PakTufkW9+aHTtmWscAAAAAAAAAwP0xwIJhNrb5MSn1o0me2DoF7sehxw129d/m+m1fbB0DAAAAAAAAAEfKAAuG1cSmJ6WWjyY5uXUK3I9PpsvFuX7bta1DAAAAAAAAAOCB6rUOAObAxOYfSS3XxviK/vb1lLw2S1asNr4CAAAAAAAAYFC5gAXDZmLTC1LLB5IsbZ0C9+EjOThyUf7mtz/fOgQAAAAAAAAAHgoDLBgm41MvS/K7SUZap8C9+FTSXZTd2/9L6xAAAAAAAAAAmA0eQQjDYmzTxiRvj/EV/elAat6U5d2ZxlcAAAAAAAAADBMXsGAYTEy9JjW/1ToD7sXOdN0FuX77p1qHAAAAAAAAAMBsM8CCwVYyPvWWJFtah8A9uCOpr8vu47cn013rGAAAAAAAAACYC6OtA4AHacOGkXx+5duTvKR1CtyDj+TgyEX5m9/+fOsQAAAAAAAAAJhLLmDBIDpr45Lc3nt/khe2ToHvcmtK2ZRdW/+gdQgAAAAAAAAAzIeR1gHAA/SUVx2dWj+c5OzWKXA3NSnvS3o/nt1bb2gdAwAAAAAAAADzxQUsGCRrL1yRmcV/mmS8dQrczf9Kr748Oy//69YhAAAAAAAAADDfeq0DgCP0jIselZnF18T4iv5xIDVvyvLuycZXAAAAAAAAACxULmDBIJjY+H2pvb9M8tjWKXBI/US6+pJcv/1TrUsAhtrqCxZl2cgxGS0Hcs3bvtY6BwAAAAAAgO9lgAX9bmLTk1LLf05yUusUSLIvyXSWrHhzrpk+2DoGYF6svXBF9o8sz0hZnjKyIl2Wp9cdnWRZut4x6dVFqVmelNEkD0vq0iTLkhyT1EVJWZ7k8MeSHPo3+PJ7+JWOTrL4PltKfWl2Xf6uWfvcAAAAAAAAeMhGWwcA92Fyy9PTdX+R5PjWKZDkb9PrnZ+dl93YOgTgQRnfcnxqPTG9ekK6+qgkJyY5PqUsT8nyQyOqe3iZSTJy+Oeo9dB8qh7+fwylJvWuX6Dme/n/DgAAAAAAAMPOAAv61djUmnTdn+eeL2TAfNqfkt/I4hW/gS9sVwAAIABJREFU5eoV0HcmX31scuDUzOSk9LpHpcsJSU5MKY9KrSek5K6h1QlJt/jQeCpJ+a5h1D1tpwAAAAAAAOAIGGBBPxrfNJHko/n2o4qglX9Iuhdn1/a/ax0CLECrphdn+W2PyMHeSemV01NyerqsTMlJKTk9NSvT7Tv0iN5vDavu+sHV8SkAAAAAAADmhQEW9JuJqWen5k+THNM6hQXtQGp9Qw7sfWNuuPJA6xhgSK2bHs3+L5+W2ntcSr4vNY9Lyukp9eTUnJzsOTHdSNI7/P3vPrBysQoAAAAAAIA+YYAF/cT4iv7w39PV83P95Te0DgGGwKrpxVlxx8k5mNPTmzk93eFLViWnZ9+eM5LesiR3G1RV4yoAAAAAAAAGigEW9Is1U89JzYeSHNU6hQXrYFL+fb66/Ddz4/T+1jHAgFn9ykdk0cyTkvxASrcqKU9MyuOSPadkJr1DjwgsLlgBAAAAAAAwdAywoB+Mb3p+kj9Ksqx1CgvWjen1zs/Oy/62dQjQ59ZeuCIHFq/KSD0jXVmVUs9IyunJwdO//Z2srAAAAAAAAFg4DLCgtfGps5P8QZIlrVNYkLrUXJYV3S/no9v2tY4B+shTXnV0jt7/gynlqal5cpIzkqzKTB6eXu52zarc508DAAAAAAAAw84AC1qa2PxjqdX4ilb+JbW8NNdt/WjrEKCx1a85LqN7n5xeXZ30Vid1dXLgCUkZccQKAAAAAAAA7psBFrQysfmnUuv7kyxqncICVPOH6Q6+PJ+44sutU4B5NnnJyswsWp1ed0ZqWXVobLX3B5IcPmllcQUAAAAAAAAPhAEWtDCx6WdT63vj9yDz76tJNua6be9pHQLMg3Wbl2dfXZNkTWrWpJdnpssjUrrDOytjKwAAAAAAAHiojD9gvk1s+tnUYnzF/Ku5LqV3XnZf9o+tU4A5sGHDSG45+YnputVJmUzq2uyrT0zSS+K4FQAAAAAAAMwRAxCYTxObXpJa3pG7vhgO8+NAavn1nPKF38qOHTOtY4BZMr7l0al1TUodS7ImN2d10h196IOWVgAAAAAAADBfDLBgvoxterHxFQ3clFrOy3Vbd+a61inAQzJ5ycp0I5NJWZ/UtUl3RkrrKAAAAAAAAMAAC+bDxOafSq3GV8yz8t4s2X9Rrnnb11qXAA/C2i2np5tZn9pbm+TZ6epphz7guhUAAAAAAAD0EwMsmGtjm1+YWn8/fr8xf76UUn8hu7Z9uHUIcKSme5m84wdSZyZTy/ok6zLTnZCUGFwBAAAAAABAfzMIgbk0sekFqfUD8XuN+fOxHDzwb/I3b/uX1iHA/Ri/5Impveek5DnJnmely/J4piAAAAAAAAAMHKMQmCsTG5+bWj6QZFHrFBaEmZTym3n0F34jO3bMtI4B7sHqVz4iiw/+cFLWJ3leUk+ztwIAAAAAAIDBZ4AFc2Fsy/rU7sNJlrZOYUH4Yrqcl+u3/mXrEOBu1k2P5pt7xlJydnpZn3rwaUl6HikIAAAAAAAAw8UAC2bb2OZ1KcZXzJOaP8uB0Rfnhrfc1joFSLJm6inp1ecmvedk355npZdlSWyuAAAAAAAAYIgZYMFsmtg8nlqvSnJU6xSG3sGU8obsXv76ZLprHQML1rrzl2bvirVJd05KfiLJqUmJxRUAAAAAAAAsHAZYMFvGNp+ZWv80ybGtUxh6n0vqudm1bVfrEFiQnrXxhBzsnZXk7OzL81M6f+4DAAAAAADAAmaABbNhYvNTU+tfJlnROoVhVz6clJdm92VfaV0CC8rkllWp3dmpOScHM5FDZ64AAAAAAAAADLDgIVsz9ZTUenWS41unMNT2JXlVdm99a+sQWBDWnb80e497bnr1nNTyY+m6k1onAQAAAAAAAP3JAAseismpJ6TLXyR5eOsUhto/p+Znc92261uHwFAb37IsNetT6obsqy9IycNSHboCAAAAAAAA7psBFjxYh8ZX1yR5VOsUhljJf0pZ8gvZeemdrVNgKK3bvDz7u3NSywuT7nkpWdY6CQAAAAAAABgsBljwYKzZeHK68hdJNb5irhxMya9k17Y3tQ6BoTO+5fikOzvJhuyrz03K4tZJAAAAAAAAwOAywIIH6lkbT8jB3tVJPa11CkPr1nT56Vy/7drWITA0nrX5pBzMC1PrTybds5OMtE4CAAAAAAAAhoMBFjwQazY+LDO9jyZ5QusUhlX9eEZ7P5OPb721dQkMvNWvOS6L974gyYYcrM9PMprSOgoAAAAAAAAYNgZYcKTGtyxL6lWpdXXrFIZVuTL7v3lJdl95oHUJDKyzNi7JntHnptQNyd6fTHJU6yQAAAAAAABguBlgwZHYsGEkN3fvS/JDrVMYSl9LrS/Ldds+2DoEBtN0L2v2TKRkQ+7Iz6V0j2hdBAAAAAAAACwcBlhw/0puPunKJC9sHcIQKvV/poy8MDsvu7F1CgycyS2rMtOdl7LnRUlOSpLUtkkAAAAAAADAwmOABfdnbGprkpe2zmAo7UhZ+rLsvPTO1iEwMNZOnZqZ+uKknJeue3xK6yAAAAAAAABgoTPAgvsysXk6tW5qncHQOZiSX8mubZfGvR64f2dtXJLbez+e5EWZyfOT4t8vAAAAAAAAQN/wBUy4NxNTF6XW17XOYOh8KannZtflH2sdAn3vrkcM3pGXJXlE6xwAAAAAAACAe2KABfdkbPPPp9btrTMYNvUT6XX/OjvfekvrEuhba6ZOTCk/n1Jfmq5blRJ34gAAAAAAAIC+ZoAF32186uykvitJr3UKQ6TmAykjL83Oy7/ZOgX6zoYNI/n8yT+c0l2Q5CeSuqh1EgAAAAAAAMCRMsCCu5uYenZqPpjEF/+ZLTNJfW2uu/zNrUOg70xcfFoyekFuzktTuke1zgEAAAAAAAB4MAyw4C5rpp6Smg8lWdY6haFxZ2r+Ta67/KrWIdA/pnsZu+NHUroLUvOv498iAAAAAAAAwIDzRU9IkrVbTs9M95+TrGidwtD4THp5QXZu+0zrEOgLa6ZOTK+8NNlzQfJ/2bvzKL3L+u7jn989WQgIJEiLAlbrY7VqS22jJDOBmqfWVlxataQuLZZWGxRJZoIKrpBqa0XFzCSCFcW6VatYKy0uVZ+KlswkYqyttUprXUGsVhNASSaZ+V3PH1i1dWHJzFz38nqdk5ME/uB95uTc4Zx88r1yj9o5AAAAAAAAAHPFAAtOfPqdM9u+J8kxtVPoG3+Xpc3jc+X4ntohUN2qjSvT6axPymlJcWEQAAAAAAAA6DsGWAy24U3LkvZvktyndgr9orkkS5c/PVdunqldAtWs2nBEhprHpzRnJfn5pNQuAgAAAAAAAJg3BlgMrnXrhnJt+5YkI7VT6Av70pT1mZx4U+0QqGb12H3TlI1JTkvJYbVzAAAAAAAAABaCARaD67rjtiTl0bUz6AtfScljM7V1Z+0QqGLV6Enp5NykPCJJUzsHAAAAAAAAYCEZYDGYhseek1I21M6gL/xjhvLoXDXxpdohsKDWnn5Ipo/87STnJLl/7RwAAAAAAACAWgywGDwjGx+fUv6kdgb9oLwjGXpSrtqyt3YJLJiTx+6a2ZyR6XJWkjvXzgEAAAAAAACozQCLwbJ6bG1KeX08kcXBKtmaHUdtSja3tVNgQazauDKdzmhmyhPi/x8AAAAAAAAAvssfoDI4Vo2ekKa8K8nS2in0tP0pzRnZMf762iEw79atG8p1d12X0pyd5EFJqV0EAAAAAAAA0HUMsBgMw5uOS9NekZIja6fQ03anU34r2yc+VDsE5tUpG5ZmT+dxuTbPTXKf2jkAAAAAAAAA3cwAi/63asMRSfuelNytdgo97XMpzSOzfeLTtUNg3qw55/C0+/4ge5pzkhxbOwcAAAAAAACgFxhg0d/uv3lJOrvfmeSE2in0sJId6Sz+zUy9/Gu1U2BerBo9JkPN09JOjybN8to5AAAAAAAAAL3EAIt+1uSIPa9N8pDaIfSy8o40Q0/K5Mv31i6BOXfSpntmph1Nk/Up5ZDaOQAAAAAAAAC9yACL/jU89tKknFY7gx7WlD/J5NYXJCm1U2BODW86MWnPzWz76DTp1M4BAAAAAAAA6GUGWPSn1WNPScoza2fQs/anNGdkauL1tUNgTq3ZdHLa2fOS9ldrpwAAAAAAAAD0CwMs+s/I6C+nlItqZ9CzdqdTfivbJz5UOwTmzOqxNWnKs9O2j0ya2jUAAAAAAAAAfcUAi/5y4tn3Tpn96yRLaqfQi5ovJjMPy/ZXfqZ2CcyJ1WNr05Tzk7K2dgoAAAAAAABAvzLAon8MbzoqzczfpjRH1U6hJ30q7ezDsvOV19YOgYO2avSkdLI5KQ+pnQIAAAAAAADQ7wyw6A8r1y9O2renNPeunUIvaj6c/Ut/M7suuKF2CRyUW4ZXf5TkV2qnAAAAAAAAAAwKAyz6w5JlW5O49MId8a6keWJ2XbC3dgjcYatGT0qTF6bJ/62dAgAAAAAAADBoDLDofavHzk7KU2tn0IvKRZk6amOyua1dAnfImk0np23/NMma2ikAAAAAAAAAg8oAi962euyUNOWltTPoOSVN88JMTmyuHQJ3yJpN90/bnp+2XVc7BQAAAAAAAGDQGWDRu1ZtuF+a8tYkQ7VT6CmzacqZmZy4pHYI3G6rx+6RJs9J2z45PvsAAAAAAAAAuoIBFr3pQWfeJZ3Oe5McWTuFnnJzksdlcusVtUPgdhnedFxKe06a8tQkS2rnAAAAAAAAAPA9Blj0nrWnH5J9i/86yU/VTqGnfDOl+Y3sGN9eOwRus+FNR6W05yTtxjRZVjsHAAAAAAAAgB9kgEWvabL/iNemyeraIfSS5ovJzMOy45WfqV0Ct8kJzzwsdzpwVkr77DRZXjsHAAAAAAAAgB/NAIveMjJ2fkr5ndoZ9JR/TmfmlGx/5Vdqh8CtWrt5UfbvXp9y4PyU/GTtHAAAAAAAAABunQEWvWP16ONSynm1M+ghJTuyaP/Dc9WrdtdOgVs1PPrITO9+aZL71k4BAAAAAAAA4LYzwKI3nLThFzKbS5M0tVPoFc2HM7TkUblq4qbaJfBjrdpwvzSdlyV5eO0UAAAAAAAAAG4/Ayy63/CmozLbvjPJYbVT6BnvTpp12f7SvbVD4Edac9axaRedn5QnJxmqnQMAAAAAAADAHWOARXdbt24o17Z/keSetVPoESV/mQN7n5RdlxyonQI/1Mr1h2bpsg1p87ykHF47BwAAAAAAAICDY4BFd7v22JcleVjtDHpFc0l2LH9aMtHWLoEftLmT4d2/m+QlKblr7RoAAAAAAAAA5oYBFt1rZPR3U7Kpdga9onl5psbPSVJql8APWDX60HR2X5jk52unAAAAAAAAADC3DLDoTiNjD0gpr66dQY8ouSA7xp9dOwN+wKoNx6cz9OKknFY7BQAAAAAAAID5YYBF9znx6XdOKe9McmjtFLpeSckzsmNiS+0Q+B+GNy1L025MyfOTcqfaOQAAAAAAAADMHwMsusvazYsyvfsdSX66dgpdbzbJGdkxcWntEPgfVm96VNJOpPgcAwAAAAAAABgEBlh0l+ndW5KsrZ1B19uf5HczNXFZ7RD4rlUbfyadZiJpT6mdAgAAAAAAAMDCMcCie6weOz0pZ9XOoOvtTcpjM7X1fbVDIEmy5pzD0+4/LymjSRbXzgEAAAAAAABgYRlg0R1Wj/1SmnJx7Qy63t60+c3s3PqB2iGQpMnw6Kkp0xcmuVvtGAAAAAAAAADqMMCivgedeZc05fIky2qn0NVuTtM8KjvH/752CGTV6Anp5OIka1JqxwAAAAAAAABQkwEWda1cvziLFr8tyfG1U+hqt4yvJo2vqGx407I05dyU8pwkS2rnAAAAAAAAAFCfARZ1LV42nuSXa2fQ1b6VJo/I5PhHaocw4NZsfHja9qKU3KN2CgAAAAAAAADdwwCLekY2Pj4lZ9bOoKt9O6V5VKaMr6joQWfeJYuWvDRtOa12CgAAAAAAAADdxwCLOtaM3idtLqmdQVf7dkrzyOwYv7J2CAOryfDoaUm2JOWo2jEAAAAAAAAAdCcDLBbeCc88LO2BdyY5vHYKXeuGNM0pmRqfqh3CgFo1ekKavDrJ6topAAAAAAAAAHQ3AywW3mEzr0pyv9oZdK0b0mkflu3bdtQOYQCtXH9olh56Tkp5TpIltXMAAAAAAAAA6H4GWCys1WNPS8pptTPoWnvS5NeyfdvVtUMYQGs2Pjxt5+KUcvfaKQAAAAAAAAD0DgMsFs7I6INSypbaGXStPUnn1zO5xfiKhbV2bHmmc0Hasj4ptWsAAAAAAAAA6DEGWCyMk562IrN5e5KltVPoSrtTml/Nji0frx3CgBkee3Smy8VJ7lo7BQAAAAAAAIDeZIDFQmgyu+R1Se5RO4SudGPSeZjxFQvqpKetyOzSlyRlfe0UAAAAAAAAAHqbARbzb3js2Ul5dO0MutLNafKoTG75aO0QBsjw6LrM5qKk/ETtFAAAAAAAAAB6nwEW82t4w4OT8sLaGXSlvemUR2b71o/UDmFArBo9Jp3yyiSn1k4BAAAAAAAAoH8YYDF/Vo0ek+Qt8euMH7Q/TbMu2yc+VDuEATE8ui5NLk5pjq6dAgAAAAAAAEB/MYxhfqxbN5Rr85dJjq2dQtc5kJJ1mRp/d+0QBsCas45NO/TqJI9MqR0DAAAAAAAAQD8ywGJ+XHvsHydZWzuDrjObpjwpU1v/pnYIA2B4dF3avCrJnWunAAAAAAAAANC/DLCYeyNjj0gp59bOoOu0acrvZ3LrX9YOoc+d9LQVmV1yUZIn1E4BAAAAAAAAoP8ZYDG3hjcdl7SvT9LUTqGrlCRnZnLrm2qH0OdWb/rVzLZ/nuT42ikAAAAAAAAADAYDLObQ5k6y+40pObp2CV2mybMyOfHq2hn0sbWnH5J9R25O0z4rSad2DgAAAAAAAACDwwCLuTP8zeclza/UzqDrPCeTExfWjqCPjYw+KNN5Y5r8bO0UAAAAAAAAAAaPARZzY3jjSNKcVzuDblPOy9TWl9SuoE+t3bwo+775vJQ8P34/A3rbzUmmkxxI8q0kSZPdSZLSfCtpDyTNdJKb03Y+XysSAAAAAACAH66pHUAfWDu2PNP5RFLuXjuFLtKUV2Ry6zNqZ9Cn1ozeJ215Y9KcWDsFGHj7k3wjyX995/uvJ83ulLI7aW5Kp9yUlJuSzk1pmz1pcmNKuSll9qbMHHpTdl1wQ918AAAAAAAADpaLIRy86XJJEuMrvk/zhkxOPLN2BX1q9canps2FSXNo7RSgb92c5MtJ89WU8uU0uT6l+WrSfiOdzn+lmf1G2kX/lXbma9m57cbasQAAAAAAANRlgMXBGRn9w5Ssq51BF2nyN1my/ClJSu0U+sxJT1uR2SWvTfLY2ilAT7shpflCOuWLKflSSq5Pk2vT5vqkvS4zh17nKhUAAAAAAAC3hycIueNWbbhfOp2rk7hCw3+byv69v5pdl9xcO4Q+s3p0VZq8Jck9a6cAXW9/kmuT8rmk87k05XMp+VzaXJ/Fna/kqi2fqx0IAAAAAABAf3EBiztm7emHZLrz1hhf8T2fyP5DTsmuCeMr5s66dUO59q7PTXJe/J4FfM9ski+k5Jp0ymeSXJNSrsmioX/LP4xfXzsOAAAAAACAweIPs7ljpo98WZITamfQNT6bNg/zZBNzanjTcbm2fXOStbVTgGpuSvKZpPlMSvlMOrkmKdfkyPLvee+26dpxAAAAAAAAkHiCkDtizcaHp22uiF8/3OIrmZ09KR995edrh9BHVo/+Rpq8Lsmda6cAC+b6JLtS8qk0+dd0Oruy/chPJ5vb2mEAAAAAAADw4xjQcPsMbzouTfuJlBxdO4WusDvpPDhTWz5ZO4Q+sfb0Q7J/+UtTylnxexT0qz0p+cckn0yaT6ZT/inTez+VXZd4whYAAAAAAICe5AlCbofNnWT3G4yv+I69afMb2Wl8xRxZM3qfTOcvk/KA2inAnPl2kk+kZFea7HLVCgAAAAAAgH5kgMVtt3rPc5I8pHYGXeFASvNb2Tl+Ve0Q+sTI6O+mzZ8lOax2CnCHTSf5RFI+ltL5WIaaq3PstZ/JZZfN1g4DAAAAAACA+eR5J26bkbHhlPKRGO2RtElOy9TEW2qH0AdO2bA0ezrjSZ5aOwW43b6SZHtStqdpJjO99xPZdcmB2lEAAAAAAACw0IxpuHUnPPOwlANvjF8vJEmTTZk0vmIOnHjWT+eGzmVJVtZOAW7VbJJPpeSqpJlMsj07xr9QuQkAAAAAAAC6gkENt+6wAy9Pcq/aGXSBkgszNbG1dgZ9YHj0kUnemJIVtVOAH2o6yVSSjySZTNtOZee2Gys3AQAAAAAAQFcywOLHG9nwayk5o3YGXeGy7FhxTu0Iety6dUO57rgXpJQXJOnUzgG+azZNPpE2H0w62zO0+Mpsf+lNtaMAAAAAAACgFzS1A+hiJz79zhla9Mkkd62dQmVNrsqSGx6aK1+/r3YKPezkDT+R2c5fpOShtVOAtEk+kzRXJeWDWdp8IFeO76kdBQAAAAAAAL3IBSx+tKFFr4rxFck1mZl5dCaNrzgIwxsenJnOW+MzBWr6fJq8L6V5f4amP5yrXrW7dhAAAAAAAAD0AwMsfriR0d9NybraGVT39aTzyHz0om/UDqFnNRneuDFpXpZkce0YGDB7k7I9TfPBzJYPZufWXbWDAAAAAAAAoB95gpAftGrD8el0Pplkee0Uqvp2Op212b7lY7VD6FFrzjk87fQbkzy6dgoMkGuSvDfJ+5LORzK1ZW/tIAAAAAAAAOh3LmDxvzXpNH8e46tBN5OmeZzxFXfYqo0/k3b6XUnuVzsF+tz+JB9KaS5PO/O+fPSVn68dBAAAAAAAAIPGAIv/aWR0Q0p+tXYGtTVjmRx/d+0KetTwxoclzVuSrKidAn3q20k+lOSy7D/k8uy64IbaQQAAAAAAADDIPEHI9wyf9bPJ0MeTLKudQkVNXpzJiefVzqBHDW8cTZoLkwzVToE+86WkeV9Kc0VuOvLv8qnN+2sHAQAAAAAAALcwwOIWazcvyvTuySQPqp1CRSVvzo6JJyUptVPoMSvXH5qly16XksfVToE+8i9J3pnSXJ4d4x+vHQMAAAAAAAD8cJ4g5BbTu18Q46sB13w4K2afEuMrbq8HnX23LJp9Z0oeWDsF+sC/pmkuy+zs27Nz27/WjgEAAAAAAABunQtYJCOjD0rJZAzyBtmns7QZyZXje2qH0GNGxn4lKW9LydG1U6CHGV0BAAAAAABADzPAGnQr1x+aJcs+nuQ+tVOo5ptpy+rs3PrvtUPoMSMb16c0r0yyuHYK9KDPp+RvU3JZdk5cVTsGAAAAAAAAuONcPBp0i5f9aYyvBtmBpH1sdm4zvuK2O2XD0uwZenVK+b3aKdBjrk3TvCWleXOmtnyydgwAAAAAAAAwN1zAGmQjY8Mp5aokndopVPPUTE28unYEPeTEp985Q4v/KikPrp0CPWJvkitSOm/KIUe+N1dunqkdBAAAAAAAAMwtF7AG1SkblmZPuTTGV4OrKa/I5FbjK267VRt/JkO5IqXcu3YKdLk2KX+fNG/K0gPvzJUXf6t2EAAAAAAAADB/DLAG1Z7Oi5Lct3YG1bw7x11/Tu0Iesiq0Yemk7enZHntFOhiH0+aN6Utb83Orf9ZOwYAAAAAAABYGJ4gHETDm05M2skkQ7VTqOLT2X/IcHZdcEPtEHrEyOgfpuSiJItrp0AXuiFp3pbM/lmmtv1j7RgAAAAAAABg4bmANWjuv3lJsvvSGF8Nqm+kaR9lfMVtsm7dUL587J+k5NzaKdB1muxKyiWZ3vfm7Lrk5to5AAAAAAAAQD0GWIPm8N0vSPJztTOo4kBKc2qmtv1H7RB6wNoz75RrF70lTR5VOwW6yPUpeWOazmszueWztWMAAAAAAACA7uAJwkEyMvaAlPLReEZsMJVyenZsfUPtDHrAyNPvnrLob5P8fO0U6AIzafKetJ3X5pAj35srN8/UDgIAAAAAAAC6iwtYg2Ll+sUp5XUxvhpMJRcYX3GbrNmwOm3nXUmOqZ0ClX01Ja9N0/mzTG65rnYMAAAAAAAA0L0MsAbF0mXnpuQXa2dQQcl7crevPC87aofQ9YbHHp22vCXJstopUE2TXUm5JEtufGOufP2+2jkAAAAAAABA9/ME4SBYteF+6XQ+nmRp7RQW3L9k6YHhXHnxt2qH0OWGx56elIkkQ7VToIKb05S3JJ2LMjn+idoxAAAAAAAAQG9xAavvbe6ks/s1Mb4aRLuTzmOMr7gVTUbGzk8p59cOgQr+I01ek5mZ1+ajF32jdgwAAAAAAADQmwyw+t3wN89OmpHaGSy4NilPzNSWz9YOoYvdf/OSHL770pTyu7VTYGGVD6aTLdl+1PuSzW3tGgAAAAAAAKC3eYKwn5149r0zNPuJJMtqp7DQmudmavxPa1fQxdaeeadML74sycNqp8AC2Z/k8jR5WSYnrq4dAwAAAAAAAPQPF7D61uZOhna/JsZXg+hdmRp/Se0IutjJY3fNdHl3kl+snQIL4IaUvCGlfVl2bru2dgwAAAAAAADQfwyw+tXwnqcl+eXaGSy4T2XpgdOSlNohdKlVG+6XmfLeJD9VOwXm2TUpZTwH9r0xuy65uXYMAAAAAAAA0L88QdiP1px1bNqhTyc5onYKC2pP2nJidm7999ohdKk1m05O216eZEXtFJg/zYeT8vJMrXhPsrmtXQMAAAAAAAD0Pxew+lHbmYjx1aBp0ym/kynjK36EkbFT07ZvSnJI7RSYByXJu5Pyp5mamKwdAwAAAAAAAAwWA6x+M7zxYUlzau0MFlhpzsv2iffUzqBLDY8+KaVcGp/59J82yXvS6fxRtm/5WO0YAAAAAAAAYDB5grCfrFx/aJYs+2SSe9ZOYSE1l2dq/DG55QL1C5I8AAAgAElEQVQM/E/DG0eTZkt83tNf9ifN29Ipf5LtE9fUjgEAAAAAAAAGm2so/WTJss0xvho012T/0t+L8RU/zMjouSl5Se0MmEPfTsmlKe3LsnPbtbVjAAAAAAAAABIXUfrHqtET0snHkiyuncKCuSGzQyfmo6/4t9ohdJl164Zy7XEXJ2V97RSYIzelKVszvXg8uy78r9oxAAAAAAAAAN/PBay+sLmTzu4/i/HVICkpndOMr/gB99+8JNfueVNSfrt2CsyBbyVlW2ZnL8xHL/pG7RgAAAAAAACAH8YAqx+s/ub6pBmuncGCuiA7tvxt7Qi6zMr1h2bJ7nckOaV2ChykW54anD3wp7n64q/WjgEAAAAAAAD4cQywet2q0WPS5MW1M1hQH8nSFS+oHUGXWTu2PPvL36bkpNopcBBuTslrs7h5Sf5h/PraMQAAAAAAAAC3hQFWr2synmRF7QwWzNeSzhNz5eaZ2iF0kVWjx2S6vC/JA2qnwB00nTRvyKJsNrwCAAAAAAAAeo0BVi8b2fBrKXl87QwWzGxSnpipLdfVDqGLjDz97in5YJJ71U6BO+BASl6Txc0fG14BAAAAAAAAvcoAq1cNb1qW0l5cO4OFVP4oU1v/X+0KusjqsXuklL9P8tO1U+B2KknekbY8Lzu3/nvtGAAAAAAAAICDYYDVq5r2+Sn5P7UzWDB/n+Ovf3HtCLrIiWffO83s/0tyfO0UuH3KB9Pm2dm5dVftEgAAAAAAAIC50NQO4A5YM3qftPmnJEtrp7Agrs2i9pfyD9u+XjuELnHLZ8DfJzm2dgrcDh9LyrNd8gMAAAAAAAD6jQtYvadJW16TNMZXg+FASvN44yu+a2Tjz6XNB5McUzsFbpOm/FtK8/xMTbwjtzw9CAAAAAAAANBXDLB6zfDoaUlOrp3BQinPzY6J7bUr6BIjYw9IygeSHF07BW6Dr6WU87N/36XZdcmB2jEAAAAAAAAA88UThL1kzTmHp52+Jslda6ewIK7I1MRvxMUYkmT12C+lKe9PcufaKXArDqTkVTlwyHnZdcENtWMAAAAAAAAA5psLWL2k7NucNMZXg+FLmZ05PcZXJMmqjSu/M746qnYK3Ior0rRjmdr2H7VDAAAAAAAAABaKC1i9YvXYfdOUf0qyuHYK8246nc5J2b7lY7VD6AKrx9akKe9JckTtFPiRmuxKcnYmJz5SOwUAAAAAAABgobmA1Ss6ZSLF+GogNDnH+IokyfCGByfliiR3qp0CP8K1acpzM7n1zXGxDwAAAAAAABhQLmD1gtVjj01T/qp2Bgvi3ZmaeFQMGViz6eS07XuTHFY7BX6Im1PKS3Ng38uy65Kba8cAAAAAAAAA1OQCVrcb3rQsaV9eO4MF8Z+ZOfCUGF+xZsPqtO27Y3xFd7oipdmQHRNfqB0CAAAAAAAA0A0MsLpdU85NyU/XzmDetWlzWq6++Ku1Q6hseMMvpu28J8nhtVPgf/lsSrMxO8bfWzsEAAAAAAAAoJt0agfwY5w0+lMp5Vm1M1gATfPy7Jz4QO0MKhsZe0DS+WCSFbVT4PvcnKb5oyxvf874CgAAAAAAAOAHuYDVzWYznuTQ2hnMsya7csPyF9TOoLJVoyeklA8mOap2CnyfK9LMnJXJi75YOwQAAAAAAACgWzW1A/gRhjc+JGk+WDuDefftdLIy2yeuqR1CRWtG75M2Vya5S+0U+I5/T2lGXbwCAAAAAAAAuHWeIOxGK9cvTppttTNYEGcaXw244bN+1viKLrI3aZ6bG1d4bhAAAAAAAADgNvIEYTdaumxjSu5bO4P51rw9U+NvrF1BRcOb7pW0/y/GV3SF5sPplDOyfdwoFAAAAAAAAOB2MMDqNqtGj0nJC2pnMO8+l3b2D2tHUNFJoz+V2fYDSY6tncLA+2aa8pxMTrwmSakdAwAAAAAAANBrDLC6Tae5IClH1s5gXh1IyROzc9uNtUOoZNWG4zObDye5R+0UBlpJkzdkZuaZ+ehF36gdAwAAAAAAANCrDLC6yZoNq9OWJ9XOYL4152fH+M7aFVSy8hlHpzPz/hhfUVNT/i1NnprtWz9UOwUAAAAAAACg13VqB/BdTdrOK5I0tUOYRyUfytTyC2pnUMmqDUdkycx7k9y3dgoDa39K/jhLbvwF4ysAAAAAAACAueECVrcYHj01yXDtDObVDZkd+r1kc1s7hAqGNy1L2suTPLB2CgPr6jTlDzK19V9qhwAAAAAAAAD0ExewusH9Ny9J8uLaGcyzpmzI1a/4cu0MKli3bihp35xkbe0UBtKBlFyQ/XvXZNL4CgAAAAAAAGCuuYDVDY745sakuVftDOZTc3kmJ95Uu4Iqmnz52NekyWNrhzCQPpGm+f1MjX+idggAAAAAAABAv3IBq7aTnrYiaZ5TO4N59fW05YzaEVQyPHphmvx+7QwGzr40eXaO/8oDM2l8BQAAAAAAADCfXMCqbWbJ5jQ5qnYG86g0T83O8f+snUEFw2MvTMqm2hkMnJ0pze9navzTtUMAAAAAAAAABkFTO2CgnbTpnpltP51kSe0U5kt5Xaa2Prl2BRUMj56VZFvtDAbKvjTZnOO+8vJcdtls7RgAAAAAAACAQeECVk2z7ctifNXHmi+mbV0/GkSrx05PytbaGQyQJrvSNqe5egUAAAAAAACw8Dq1AwbWyNhwksfUzmDetOm0v5+d226sHcICGxl7RJrymrgwyMJoU7I1N6wYyQ7jKwAAAAAAAIAaXMCqo0kpF8ZAo381ZTzbt36odgYLbM2mB6Zt3xafrSyML6TJ72Vq4iO1QwAAAAAAAAAGmQtYNQyPPiHJcO0M5s2nU4aeXzuCBXbSpnumba9IcljtFAZB86Z0lp6QSeMrAAAAAAAAgNpcYFpoa08/JNPLP5OUu9dOYV7MpMlIJieurh3CAlr5jKOz9MD2lObetVPoe19PmvWZGn9X7RAAAAAAAAAAbuGZrIW2/8hR46u+9iLjqwGzcv2hWTLzN8ZXLIC/S2f2D7L9lV+pHQIAAAAAAADA9xhgLaSVzzg6ZeY5tTOYN1dn6YoX145gAa3dvCjTu98eT4oyv/Ym2ZSpiVfXDgEAAAAAAADgBxlgLaQlBzYnzZG1M5gX+9OUP8iVm2dqh7CA9u2eSJNH1M6gr30mbR6XnRP/XDsEAAAAAAAAgB+uUztgYJx49r2TZn3tDObNn2Ry67/UjmABrd54fpqcWTuDPlbymuzfu9L4CgAAAAAAAKC7uYC1UIbaFyVZXDuDefHPuXHFS2pHsICGR5+cZHPtDPrWjUnz1OwYf2vtEAAAAAAAAABuXVM7YCAMb/jFpLMrvt79aCZtWZ2dW3fVDmGBrNn48LTN5TFgZV6Uj2Zo6Am5asvnapcAAAAAAAAAcNt4gnBBdF4c46s+VV5mfDVA1my6f9rmLTG+Yu6VlGzNjUedbHwFAAAAAAAA0FuMCObbmk0np20fVjuDeXFNlt74wtoRLJAHnXmXtO17khxZO4W+87Wk/F52bH1f7RAAAAAAAAAAbj8DrPnWlhfVTmBetGnzlFz5+n21Q1gAw5uWpbR/neSnaqfQd65OM7Mukxd9sXYIAAAAAAAAAHeMJwjn08jYI5Ly4NoZzIdmW3ZOXFW7ggXRJO2labK6dgj9prkkN644yfgKAAAAAAAAoLe5gDV/mhTXr/rUF7J0//NrR7BARja+KCVPqJ1BX7kpJX+YHeNvqx0CAAAAAAAAwMEzwJovw2OPT8ov1s5gzpU07Rm58uJv1Q5hAawefVxKnls7g77ymXQ6p2b7lk/VDgEAAAAAAABgbniCcD6sWzeUlPNrZzAPSl6byW3vr53BAlg9tiZN3pCkqZ1Cn2jKX+Tbix9ofAUAAAAAAADQX1zAmg/X3fXJSe5TO4M5d30W7T+3dgQLYPXYPdKUdyZZWjuFvjCdlHMzuXWidggAAAAAAAAAc89ll7k2vGlZ0v5bkuNrpzDHSuc3smPL39bOYJ6tPPfILNk3meR+tVPoC9emyWMzOXF17RAAAAAAAAAA5ocnCOfc7NNjfNWPLjO+GgBrNy/Kkum3x/iKudDkqrR5oPEVAAAAAAAAQH8zwJpLa8+8U9I8q3YGc+7GpLOpdgQLYN/uC5Pya7Uz6AfNJblhxUOyc+I/a5cAAAAAAAAAML8W1Q7oK9OLn5XkJ2tnMOeel6kt19WOYJ6NbDwtJRtrZ9DzZtLk+Zkcv6B2CAAAAAAAAAALwwBrrqx8xtHJzFjtDOZYk1057iuvqp3BPFs99ksp5dW1M+hxTf4rTfntbN/6odopAAAAAAAAACwcA6y5smTmuUmOqJ3BnJrNbDkjl102WzuEefSgM++SplyeZFntFHpYk105MPSYXP2KL9dOAQAAAAAAAGBhdWoH9IVVo8ckOaN2BnOteWV2bt1Vu4J5tHL94ixa/LYkx9dOoYeV/GWm9/6y8RUAAAAAAADAYHIBay4MlXNSmkNrZzCnrks7e17tCObZkmXbkvxy7Qx6Vpvkedkx8ZLaIQAAAAAAAADU09QO6Hkrn3F0lsx8Psmdaqcwh5qcmsmJv6qdwTxavfGpaZpX1c6gZ+1Lmj/I1Phba4cAAAAAAAAAUJcLWAdryey5Mb7qN+8zvupzwxtHkmaidgY96/o0+c1Mjl9dOwQAAAAAAACA+jq1A3raymccnZSn1s5gTu3NUOfptSOYRyeP3TVpLkuypHYKPemTGcrqTE4YXwEAAAAAAACQxADr4CyeeWZcv+ovTf4oV235XO0M5sna0w/JTPuuJMfWTqEnvS9te1KumvhS7RAAAAAAAAAAuocB1h218hlHp4lLSf3lU5ne+4raEcyj6SMuSpoTa2fQg5ryihz/lUdm57Yba6cAAAAAAAAA0F0W1Q7oWUsOnJ00rl/1j5LSnJVdlxyoHcI8GR59cpI/qJ1Bz5lJmrFMTlxUOwQAAAAAAACA7tTUDuhJw5uOStovJDm8dgpzpbwuU1ufXLuCeXLShl/IbGcqybLaKfSUm9K0p2Zy2/trhwAAAAAAAADQvVzAuiOa2bNTGuOr/nFjFnWeXzuCebLmnMMzO/22GF9x+3w1pXlEprZ9vHYIAAAAAAAAAN2tUzug56w898iU5um1M5hLzfn5h/Hra1cwL5rMTv95kvvUDqGnfDbpnJwd48ZXAAAAAAAAANwqA6zba8m+s5Msr53BnPnX7L/5otoRzJPh0WemyW/VzqCn7MyidiRTWz5bOwQAAAAAAACA3tDUDugpK889Mkv2fT7JitopzJmHZWri72pHMA9GxoZTyoeTLK6dQq9oLk+aJ2Rqy97aJQAAAAAAAAD0Dhewbo/Fe8difNU/Sv7K+KpPjTzzJ1PKZTG+4ra7NEuXn2p8BQAAAAAAAMDttah2QM9YteGINM1o7QzmzN6keWbtCObD5k6y+81JjqtdQk8oaZoXZnJ8c+0QAAAAAAAAAHqTAdZtNdTZmOL6Vd9ompdmavwLtTOYByO7X5SSh9bOoCfMJHlyJsffWDsEAAAAAAAAgN5lgHVbnPDMw5IDrl/1jy+kNBfUjmAerNn48LR5du0MesK+NOXxmdx6ee0QAAAAAAAAAHqbAdZtcdj+p6Q0R9fOYI6U5hnZsWVv7Qzm2KrRY9LmdUk6tVPoet9Om8dk59YP1A4BAAAAAAAAoPcZKtyalesXJ51NtTOYM3+fHePvrB3BXNvcSSd/keSY2iV0vd3ptL+anRPGVwAAAAAAAADMCQOsW7P0kMcn5e61M5gTM0lnrHYE82Bk93OTPKR2Bl3v+qTz4GzftqN2CAAAAAAAAAD9wxOEP16T0pxTO4I5sy1TWz5ZO4I5NrzpxJT2vNoZdL3Pp2kfmsmJ/6gdAgAAAAAAAEB/cQHrxxkefUSSn6udwZz4WpY2L6wdwRxbO7Y8ad+WZHHtFLrav6Yze1ImtxlfAQAAAAAAADDnDLB+rOL6Vf84L1eO76kdwRybbl+T5B61M+hqUxnaf1K2v/IrtUMAAAAAAAAA6E8GWD/K6tFVSXNy7QzmxKezdMWltSOYY8OjZyTNqbUz6GJNrkpn6a/nqlftrp0CAAAAAAAAQP8ywPpROnlu7QTmSKc8M1dunqmdwRxas+n+SV5RO4Ou9pEsOXBKtr/0ptohAAAAAAAAAPS3pnZAVxo+62eToU/FQK33lXwoOyZ+pXYGc2jt6Ydk3/Idacov1E6hWzXvT5pHZ2rL3tolAAAAAAAAAPS/RbUDutOiZyfF+Kr3tSnlWbUjmGPTR44bX/FjvDdL9zw2V75+X+0QAAAAAAAAAAaDkdH/9qCz75aUJ9TOYC40b8rOrbtqVzCHhsceneSM2hl0q+by3Lji0cZXAAAAAAAAACwkF7D+t0WzZydZUjuDg7Y3Q+W82hHMoZM3/ERmyp/VzqBblXdk/94n5lPjB2qXAAAAAAAAADBYXMD6fsObjkrylNoZzIGSC3PVxJdqZzCHZjqvS3JM7Qy6UfP2LD3qCdl1ifEVAAAAAAAAAAvOAOv7Ne2ZSe5UO4OD9p8ZWvrS2hHMoZHRP0zyyNoZdKW35PjrnpgrN8/UDgEAAAAAAABgMDW1A7rGyvWHZsmyLyT5idopHLSnZmri1bUjmCMnnvXTGRr6pySH106hy5T8VQ5Z8XjjKwAAAAAAAABqcgHrvy1ddnqMr/rBp7N0xaW1I5gj69YNZWjoTTG+4gf9dQ7sfYLxFQAAAAAAAAC1GWDdoknJhtoRzIGmeZZBRh/58rHnJllTO4Ou874sb5+QXZccqB0CAAAAAAAAAJ4gTJKRsUeklCtqZ3DQrszUxP+tHcEcGRl7QErZmWRJ7RS6SfP+LN3zm7ny9ftqlwAAAAAAAABA4gLWLUo21k7goLUpzTNqRzBH1p5+SEp5U4yv+H5NPmB8BQAAAAAAAEC3WVQ7oLpVG+6XlIfWzuCgvS07xj9eO4I5Mn3ki5P8XO0MukiTq/KtxY/JPxtfAQAAAAAAANBdXMDqDI3GU4y9bjaZfWHtCObImk0nJxmtnUFXmcySA6fkn1/+7dohAAAAAAAAAPC/DfbwaHjTUUn75SSH1k7hIJS8Jjsm1tfOYA6sOefwtPs/mZS7106ha3wsbfuQ7Nx2Y+0QAAAAAAAAAPhhBvwCVjkjxle9bl9mh15UO4I50k6/1PiK72rKv6XNI42vAAAAAAAAAOhmgzvAWrt5UZrytNoZHKSmXJyrX/Hl2hnMgdVja5OcUTuDLtHky+k0D83Oif+snQIAAAAAAAAAP87gDrD2f/PUlNytdgYH5VvJkgtqRzAHVq4/NE15TQb9WVT+29fT5KG5auJLtUMAAAAAAAAA4NYsqh1QTduMmnr0uKa5MJMv/1rtDObA4mV/muRetTPoCjck7a9n+7ZraocAAAAAAAAAwG0xmBew1mx6YJqsrp3BQflGZmdfUTuCOTAyNpwmT6+dQVe4OZ3OozK17R9rhwAAAAAAAADAbTWYA6y2Pbt2AgervCQ7t91Yu4KDdMqGpSnl0iRDtVOo7kBKc2q2b/mH2iEAAAAAAAAAcHsM3gBrzVnHJjm1dgYH5bpk6KLaEcyBPZ0XJblv7Qyqm03yO9kx/t7aIQAAAAAAAABwew3eAKt0zkyyuHYGB6GUP87Ulr21MzhIq0dXJXGNjqQ0GzI1cVntDICeNrxpWU562ookTe0UAAAAAACAQTNYf0AzvGlZmvZLKTm6dgp32H9k/977ZtclB2qHcBBO2bA0ezofT3K/2ilU1uTFmZx4Xu0MgHk3vGlZmv0/mdmho9PJ8jTN8rTNijTt8jRZnpL//n5pkuVJsyRNDkvJoUmWpskRKRnKLX+B4sjb+V/fn+Tb3/nxt7/z8xuSzCTlhqSZTnJzkhtTsied7EnJnjTZkzS702ZPhpo9KUNfz+TLv56kzMnXBAAAAAAAoE8sqh2woEr5ncT4qqeV5nzjqz5wQ+e8GF+R5g2ZHH9+7QqAg7JqwxFZtOhumS0/lU45PmmOS8pPpuSuSX4iyU8muWvS3ill0ffuz5YkTUnSfG/O9L9nTeVH/Pj2W/Kdb0my4n/+q+YHf/o/esot/6wtSdpkeHQ2ydeTfC1pvppSvpYmX0+T65JyXdrOl1Nmv5hld/5qrtw8c1DVAAAAAAAAPWKwBlhN2VA7gYPyyexY/tbaERykkbEHpJRzamdQ3d9l/81/GFdUgG43vGlZknsls/dK8n+S5l4puVua3D3J3ZIckbb9vuFS33+sDSW5yy3fygnf3W+VJGluGZU1nWR692yGR69P8sU0uTYln0/y2ZTmP1JmP5ud267LAHyxAADg/7N352FylXXexr/PqeruLEASEGTfZQsGnDbpruogzS6LC0JGBFEUDZKku7oxAzLi2K6DiKY7YRHcQBCU4MIiu5oRegmSUVQU3EYlwqhACGt6qfO8f4SZd4xZajlVv3NO3Z/r8t+qe65JOk3V9zwPAAAAAKAxNM4VhLnuvOQGrTNQBadTNTTwLesMVKMvUG7NkKQ26xIYclql5vFOrbjiBesUAHiF05xFeyqbPUhhOFNO+0vBPpLfV9Iu1nEptU7Sb9f/z/1W0q8k9wuFE49q5bLnjNsAAAAAAAAAAADK0kAnYAUf4CH7RPuFhmZ8xzoCVco9e64YXzW636uoExlfATDT1rWrguBQOc2UdzPl/EHyOkDSVHkvub870gm1M0nSwev/93/uPAwCKVf4k6RfyflHFAa/UuAfVvPan2vFNevscgEAAAAAAAAAADatMU7AmrNwO2Wyq7X+ix4kkfdv18jSm6wzUIXZC3ZUtulXkqZbp8DM0wrUocGBx6xDADSIjkU7q9jUqsC3yvtWSa/X+uvzkDwTkn4t6RE590uFbpXGg2Gt+txT1mEAAAAAAAAAAACNcQJWNnuWPOOrBPulRra92ToCVco2LRXjq0b2koLwJA0uY3wFoDZmL9hRTdk2ebXJu3Y5vV6htpYLOcwqHbKSDpJ00PqTyrzUHHrlCr+T8ysVaqVcZqXGXvyJVl09bh0LAAAAAAAAAAAaSyOcgOWUKzwm6TXWIaiUO13D/TdaV6AKHd0nKHTfs86AmVByp2i4/7vWIQBSonV+k1qmvF6hb1fwyuBKfg/rLMTCOkn/KelBeY0oU7xfg5c9YR0FAAAAAAAAAADSLf0DrLbCMQp0j3UGKvYb7frEgVq+vGgdggq1zp+i5sk/l7S3dQrMnK/hgc9aRwBIsM6+rF5+5hBl3NHymivpMEnTrLOQGE9KekDO3yeXGdTgkkesgwAAAAAAAAAAQLqk/wpCp3OsE1AFp48zvkq4likflfeMrxrXlxlfAShb6/wmtUzOybujpbBTo2vmKHAtXCWICu0kaZ68mycfSrnCanmtkNMKZXSvHhj4k3UgAAAAAAAAAABItnSfgHVYz06a8H+U1GSdgor8Vi0zDtSKvgnrEFQo1/taKVwl/g42qh/puRnH6JG+MesQAAkwt3dvhcWj14+udKw44Qr183vJ3Sf5+9Ti7tWK/metgwAAAAAAAAAAQLKke4CV6/6I5D5unYEKeX+WRpZea52BSvUFal8zKKd26xKYeEyZsZweuHKNdQiAmGrr2kZBcJycTpDXMZJ2sU4CJE3IaUTS3fLh9zS87CfWQQAAAAAAAAAAIP7SO8CaNy+j1bv8TvJ7WKegIr9Ty4wDOP0qwfKFBfK63DoDJp5R6Nu1culvrEMAxMycRXspGxwj794k6RhJLdZJwBb8VXJ3S/42BS13afCS562DAAAAAAAAAABA/KR3gNVeeLOcbrHOQKXc2Rru/4p1BSo0e8GOyjb9StJ06xTU3ZicjtHQwI+sQwDEQV+g3DPtknurpDdJOsC6CKjCy5K+L+dvk5q/q6FL/2odBAAAAAAAAAAA4iFrHVAzTudaJ6BS7o96bvr11hWoQrb5YskzvmpETosYXwGNri9Q25q8nObJrTlFclwtiLSYLOkkeXeSNH6lcoVhyS9X6L+llctWW8cBAAAAAAAAAAA76TwBa86ivZTJ/FZSYJ2CCjjN19DAF60zUKF8T07eDyqtP1+wORdreOBC6wgABlrnN6l50lFyOkXevUXS9tZJQB15SSOS/7aK4bf04GX/ZR0EAAAAAAAAAADqK50nYAWZc8T4Kqn+pLUzrrWOQKX6Avln+iXH+Krx3K1dn7jIOgJAnbV1t8q5d8npNEk7yFsHASacpJzkcspkPqt8YZW8v04TE9/Uj6/4b+s4AAAAAAAAAABQe+kbSczsa9Y2ax6XtIN1CirhFmm4/3LrClQo3z1f3l1lnYG6e0xjk9q06jNrrUMA1EFbYZacTpfTOyTtbp0DxNiEpPvk/A1yk76rwUuetw4CAAAAAAAAAAC1kb4BVq7nHZK/wToDFfmbxl7eU6uufsk6BBXI9W4rFz4mr1dZp6Cu1krFdg1f9qh1CIAaOqxnJ42HZ8q5MyUdbJ0DJNDL8rpFzl+rXZ+8V8uXF62DAAAAAAAAAABAdNJ3BaH370/hrKxB+GWMrxLMh5+QGF81mFDSOxlfASk1s69ZWz97kpx/jyb8G+Vc+n5vBOpn8vqrOt1pWr3zauULX1PRX6OVS39jHQYAAAAAAAAAAKqXrqnSnEV7KZP5ndL2f1djeEHFiT314OVPW4egAvmeQ+X9Q5Iy1imoI68Pa2Tg09YZACLWVpilwL1Xzp/BqYZATXk5DUr+K2qeWK4VV7xgHQQAAAAAAAAAACqTrpMMMpmzxPgqqb7E+CqxnLz6xfiq0XxbIwP/bh0BICLHd7Xo2eDNkp8v6WjJS946Ckg9J6+5kpur0aYB5XpulNOVGur/qXUYAAAAAAAAAAAoT5oGWE7SO60jUJFxuYl+6whUKF84Q94fbp2BOvLuYb2UfZeYZwDJ19b9Gjl3ttbqbEmvYscOmNla8vPlNV/5wirJX63RdddzPTcAAAAAAAAAAMmQnpFRPrgAACAASURBVG/Zct1HSe4+6wxUwl2n4f53WVegAh3nb61w9FFJO1unoE6cnlLoZmuk/w/WKQAq1NmX1diat8jrXElHKk2/DwLp8rTkvipX/IKGlv3OOgYAAAAAAAAAAGxaek7AcnoPZ7EkkpcLL7GOQIXC0Y+I8VUjCeX1TsZXQELNPXeGJprer9E1CyXtbp0DYIu2k/xi+eA85Qu3S25AQ/0/sI4CAAAAAAAAAAD/KB0nHrReME3N656QNMU6BWW7XcMDb7KOQAXm9u6tYvhLSS3WKaibj2p44OPWEQDKlOvdVz7sktPZkqZa5wCoymOSv1Jj677I9YQAAAAAAAAAAMRHOk7Aal53mhhfJVMQcPpVUk2El8gxvmogd2l4xietIwCUId91rHzQK4XHyaVkdA9gf8n1q3nyh5Xr+YJCf7lWDvzFOgoAAAAAAAAAgEaXji/jcoURSW3WGSjbSg0PtFtHoAL5npy8H1RafoZg85we12j2n7Tqc09ZpwDYkr5A7WtPlAs/Imm2dQ2AmhuT3DcV+E9pcOAx6xgAAAAAAAAAABpV8scTHYX9FepR6wxUwOstGhm41ToDZXPKFR6QlLcOQV2MS75Tw0uHrEMAbMbxXS16Nni7pH+VtL91DoC6CyXdIQWf0PCSB61jAAAAAAAAAABoNMm/gjDU2dYJqMivNDLjdusIVCDXc5rkGV81Cu8KGhlgfAXEVWfPdK3zC/SsuiW92joHgJlA0klSeJJyPfcoCC/W4NIfWkcBAAAAAAAAANAokn0CVmdfVqNr/iRpJ+sUlMm792ik/xrrDJSp86xJGp3+qOT3sE5BXdyo4YHTrSMAbETH+VvLjy6Q1wWSZljnAIilIfngYo0suc06BAAAAAAAAACAtEv2CVija94oxldJ9ISen36DdQQqMDatwPiqYfxCLza93zoCwAZyvdvKh70KR7slbWOdAyDW8nLhrcoVhiR9XMMDd1sHAQAAAAAAAACQVskeYEnvsQ5ABby7Qo/0jVlnoEyHdW2vCV1onYG6eEGBTtXPLn3ROgTAK+Ys3E7Z7HnyYZectrbOAZAoeUl3qb0wIrmPa6T/TusgAAAAAAAAAADSJrkDrPVjkJOsM1C2lzWeuco6AhUYD/rkNM06A3Xg/SINLn3MOgOApLaubRQEH5TUK8/wCkAVnNolf4faCyPK+H/V4NIfWicBAAAAAAAAAJAWyR1gTWTOkHyzdQbK5PzXtepzT1lnoEy5RQdImm+dgTpw+qaGl15rnQE0vJl9zZr2zFny7uOSXm2dAyBFnNoVuh8o132fgsyFGlzykHUSAAAAAAAAAABJF1gHVMzrLOsEVKDollknoAI+8zklebCJUv1WxZChHWCqL1CuME/brHlU3l0lxlcAasYdrTD8sXLd96qtMMu6BgAAAAAAAACAJHPWARXJdb1OCv7TOgNl+4GGB46yjkCZ8j1HyvvvW2eg5kblXV4j/fxsBWw45XtOkcJPybv9rGMANJyi5K+VMv+m4SV/to4BAAAAAAAAACBpknmijQ/OSOh0rLH5oN86ARUI/af4+9YI/AUaGWB8BVjIF2bL61J5/4akbuMBJF5Gcu+VwtPUXlgmH35aK5c9Zx0FAAAAAAAAAEBSJPBbvr5AuTV/lLSrdQnK8lsNz9hf6gutQ1CG9p63yflvWWegxrzu0MjASZK8dQrQUGaft5uy4ack/04l8ncyAKnl9JS8/6R2ffIyLV9etM4BAAAAAAAAACDuAuuAsnU8c7gYXyWP0zLGVwkzb15Gzn/COgM192eNZ98txldA/XQu2Er5nj5li7+W/JlifAUgbrxeJbl+rd7558r3nGidAwAAAAAAAABA3CXvCsIwOI2dQOI8p2J4jXUEyvT4LmfK+YOsM1BTRTmdrlWfe8o6BGgMfYHya87WqD4l+e2tawCgBAfK+9uVK9wuBb0aXvJb6yAAAAAAAAAAAOIoWScuzOxr1jZrnpC0nXUKytKv4YFe6wiUYf3ftUcl7WWdglpyn9Bw/79ZVwANoa27VYFbJilnnQIAFRqX15XKtFykwUuet44BAAAAAAAAACBOknUF4bRnjhfjq6QJ5cLLrCNQpm2eOVeMr9LuP/Xc9E9aRwCpN2fhdmovDChwD4rxFYBka5JTt8LRR5UrvEtJe5gHAAAAAAAAAIAaStaH5u2FG+V0mnUGyuB0q4YG3mKdgTJ0LthKo02/k7SDdQpq5iWp2Krhyx61DgFSq7Mvq9FnF0m+T9I06xwAiJzXDxX4bg0t/YV1CgAAAAAAAAAA1pJzAtasxVPl9CbrDJTJ+X7rBJRpNNsrxlcp585nfAXUUHvPP2l0zZDkl4jxFYC0cjpC3v1E7YUBdS7YyjoHAAAAAAAAAABLyTkBK999prz7mnUGyvILDQ/MkuStQ1CiOQu3Uyb7OzEYSC+nezU0cJz4ewlEr/WCaWpa93E5LZSUsc4BgDr6L3m3UCP9d1qHAAAAAAAAAABgITknYIWOqweTxvllYuSRLJnsBWJ8lWZPyxXPEn8vgejlCvPUvO6XcuoW4ysAjWcvOX+H8oVv6LCenaxjAAAAAAAAAACot2ScgHVY1/aaCP4sqck6BSV7Ti3ju2jFFS9Yh6BEud5dpPA3kiZbp6BGnJunof6brTOAVMkv3ENh9go5nWCdAgAx8ay8v1AjS68So28AAAAAAAAAQINIxglYxWCeGF8li9f1jK+SJrxIjK/S7GuMr4BIObX3nCuf/TnjKwD4O9Pl3JXK9fxQud59rWMAAAAAAAAAAKiHrHVAid5hHYAyueAL1gkow+zzdpOK77XOQK24P2qspdu6AkiNfNc+8sGXJN9pnQIA8eUPl/zDai9cpN2eWKrly4vWRQAAAAAAAAAA1Er8T8CaW9hdXh3WGSjLoIaX/Nw6AmVoKl4oqdk6AzXh5Yrzteoza61DgBRwynfPlw9+KqnTOgYAEmCKnD6vx3d+QO09B1rHAAAAAAAAAABQK/E/Aauo0yU56wyUwYnTr5KkrWtXeXH6VXpdpaFl91hHAIk357z9lCl+hVE4AFTAqV3y/6lc4WPa9YnPchoWAAAAAAAAACBt4n8ClnS6dQDK8rSa195sHYEyuOBCSS3WGagF90cFLedbVwAJt/7Uq0xxlcT4CgCqMEnSv2v1zoOac95+1jEAAAAAAAAAAEQp3idL5bsPlndcZZco7lIN9/+LdQVKlOvdRQp/JwZYaeQlf4yGl37fOgRIrPU/I78s6TjrFABImRckLdbwwNWSvHUMAAAAAAAAAADVivcJWN7Ns05AWbyKwRetI1CO8ENifJVOTl9gfAVUIVeYJ4UPi/EVANTCVpK+oFzhzvVjVwAAAAAAAAAAki3eAyzpbdYBKIPTfXrw87+2zkCJOhbtLOl91hmoBfdHuZYLrCuARJp77gzlCjdIuknSdtY5AJByx8mFP1W+cIp1CAAAAAAAAAAA1YjvAGvOeftJOtg6A2UI3ResE1AGn/2QpEnWGYicl/w5GrzkeesQIHHaC20qNj8k6R3WKQDQMLxeJa+blev5mmYtnmqdAwAAAAAAAABAJeI7wAqKp1onoCxPavyl26wjUKLZC3aU95x+lU5XaXjgbusIIGGcct0FOd0vaW/rGABoTP5MTR1/SPmeQ61LAAAAAAAAAAAoV3wHWE4nWyegLF/UqqvHrSNQomzzhyRNts5A1NwfFbScb10BJEqudxflCj+QXL+kJuscAGhwB8j7YeULC6xDAAAAAAAAAAAoh7MO2Kj2nj3l/O8V1z5sqCg3sY+GLv+jdQhKMHvBjso2/U7SFOsURMwHb9bIEk6iA0qV7zpWPviapFdbpwAANuRuUXH8bD14+dPWJQAAAAAAAAAAbElMT8DyJ4vxVXI4fY/xVYJkmhaL8VX6eH2D8RVQotb5TcoVPi8f3CXGVwAQU/4tymZ/oo6udusSAAAAAAAAAAC2JJ4DLKdTrRNQhjD4knUCSjT33Blymm+dgcitVab4QesIIBFyvbuoefIPJfWKsTcAxJvXbgqD+5UvXCB+ZgMAAAAAAAAAYix+A6zZC3aUxFPOyfEXjb94l3UESlRsWiRpa+sMRMy7xRq87AnrDCD2OrqPkMKHJHVYpwAASpaV18XKFb6tzp7p1jEAAAAAAAAAAGxM/AZY2eZTFMcubIK7TquuHreuQAk6z5okuQXWGYiav18j/V+2rgBizilfuEChu1fSjtYxAICKvFVj4Uq1FWZZhwAAAAAAAAAAsKEYDp3826wLUIbAXWOdgBKNTj9bDA/SZlQ+OEeStw4BYmvOwu2UK9wpr4slZaxzAABV8G4/BRpWvvtM6xQAAAAAAAAAAP4vZx3wd1o/+Co1TzwpKWudglL4BzW8tM26AiWYNy+j1Ts/Jmkf6xREyLmPaai/zzoDiK22wiwF+o6kva1TAABRc1dr7KVFnMYLAAAAAAAAAIiDeJ2A1VR8qxhfJYfXV60TUKLHdzlNjK/Sxflfq/nZi60zgNhq732TAt0vxlcAkFJ+vpon36f84h2sSwAAAAAAAAAAiNcAy/lTrBNQsnXKjn/TOgIlcv6D1gmIlJeCc7XimnXWIUAMOeULF8iF35W0jXUMAKCm3iCNP6SO3tdbhwAAAAAAAAAAGlt8riBsvWCamtf9VVKzdQpKcqOGB063jkAJ2nuOl/N3WGcgQk7XaGjgPdYZQOys/13i65JOtE4BANTVi/I6WyMDPCACAAAAAAAAADARnxOwWta9SYyvksOF11gnoEROF1gnIFLPSk38/xTYUK53XzWvGxHjKwBoRFPldKPy3Z9UnB4yAgAAAAAAAAA0jPgMsLy4fjA5VmuX//6+dQRKkOudI/nDrTMQqY9o6NK/WkcAsdLe0yGFg5IOsE4BAJhx8u7Dai8sV+v8KdYxAAAAAAAAAIDGEo8B1voPyI+zzkCJnL9Wy5cXrTNQivBC6wJEyLuHtesTV1pnALGS736PnP+BpB2sUwAAMeB0iponr9BhPTtZpwAAAAAAAAAAGkc8BlhNU4+SNNk6AyXx8plrrCNQgo7C/pLebJ2ByHhJCxk/Av+jL1B74WJ59xVxhTEA4O/NVtGv1NyuQ6xDAAAAAAAAAACNIR4DLBeeaJ2Akt2v4SW/tY5ACYrqVlz+jiMK12mkf9A6AoiFWYunKrfmW3K6wDoFABBTXrupGDyg9t43WacAAAAAAAAAANIvDuMMJ4kBVlJ491XrBJRg7rkz5PRu6wxE5jll3YesI4BYmLNwO00dv0fSW61TAACxt5Vc+B3lehZahwAAAAAAAAAA0s1+gJXrOlTSrtYZKMkLmjR2s3UESlBsfp+kqdYZiIjTR3R//5PWGYC5XO++ymRHJOWtUwAAiZGR/GXKdX9a6x/+AQAAAAAAAAAgcvYDLAVcCZEUXt/ViitesM7AFnT2ZSUtss5AZH6h5hlXWEcA5vKF2VI4KGlf6xQAQBK5C5XruVYz+5qtSwAAAAAAAAAA6RODAZZOsA5AiTL+RusElGB0zcmSdrfOQEScFmpF34R1BmAq33OivH4oaQfrFABAkvkzNW3N7eo4f2vrEgAAAAAAAABAutgOsNoKr5Y027QBpfqb1q271zoCJemxDkBU/M0aGviRdQVgKlc4W95/V1yrCgCIgtcxCkd/pNkLdrROAQAAAAAAAACkh+0AK3AnmjegNF7LterqcesMbEFbd6ukvHUGIjEmZS60jgBM5Qvdkr4oKWudAgBIlUOVbRpSrpdrbQEAAAAAAAAAkTAeP/kTbd8fpXM3WBegBIE7zzoBEfFaouElv7XOAMzkCxfIa0CSs04BAKTSXlJ4v9oKs6xDAAAAAAAAAADJZ/el5sy+Zm2z5ilJW5s1oFR/0vDAnpK8dQg2o2PRzgoz/yWp2ToFVfurxibtp1WfWWsdAtRfX6DcmisknWNdAgBoCGvk3Ika6h+2DgEAAAAAAAAAJJfdCVjTnu4U46uE8F8X46v485mFYnyVDs5/hPEVGtLMvmbl19wgxlcAgPqZIe/vVb7rWOsQAAAAAAAAAEBy2Q2wwoDrB5MidN+wTsAW5HonS5pvnYFI/EK7PPll6wig7nK9k7XNmlvk9XbrFABAw5kqH9yqXM9brUMAAAAAAAAAAMlkN8ByYoCVDL/QyoGfWUdgC7w/Q16vss5ABEKdp+XLi9YZQF3NWjxVCm+X9EbrFABAw2qR/E1q7/5n6xAAAAAAAAAAQPLYDLDaug6StI/Je6NM7gbrApQg8B+wTkAkbtfKgXutI4C6mrV4qqaM3ybpSOsUAEDDa5JzN6i9+93WIQAAAAAAAACAZLEZYAVcP5gQXsUJrh+Mu/ZCm7xarTNQtXGp+C/WEUBdtV4wTVPH75HTEdYpAAC8IiPnvqz2nrOsQwAAAAAAAAAAyWF1BeFJRu+L8gzpwcv+yzoCW+DcudYJiIDTlzR82aPWGUDddPZMV9O6uyTlrVMAANhARs5/RbnCIusQAAAAAAAAAEAy1H+ANffcGeLL1qTg9Ku4m3vuDMn/s3UGqvaiMu4T1hFA3eR6t9Wo/76c2q1TAADYBCdpqXI9C61DAAAAAAAAAADxV/8B1kTzsZKydX9flGtCrukm6whswUTzWZImW2egSs736/7+J60zgLro7JkuF94j6Z+sUwAA2AIn+WVq7/6AdQgAAAAAAAAAIN7qP8AK/NF1f09U4j4NXfpX6whslpPTOdYRqNrTGp38WesIoC7aurbRqL9LXq3WKQAAlMjJucuV63mvdQgAAAAAAAAAIL7qP8DyjgFWEnj3TesEbEGu+0hJ+1tnoEpen9Kqz6y1zgBqrnX+FAXBbZLarFMAAChTIPkvKt99pnUIAAAAAAAAACCe6jvAmnPefpL2rOt7ohITGs/cbh2BLfDuXOsEVMv9UTPCK6wrgJprnT9FTZNvl/QG6xQAACoUyLuvKlc43ToEAAAAAAAAABA/9R1gZcJj6vp+qJBfoVWfe8q6ApvRsWhnOb3ZOgNV8uFHdeeyUesMoKZyvZPVPPlWOR1hnQIAQJUykq5Ve8/brEMAAAAAAAAAAPFS7ysIGWAlgrvZugBbEGbeJ6nJOgNV+bl2e/J66wigplrnN0nhcklHWacAABCRrJz/hjq6T7AOAQAAAAAAAADER/0GWJ19Wcl31u39UKlQWXerdQQ2Y968jOTea52BKjl3oZYvL1pnALXTF6h58rWSTrQuAQAgYk0K3c3q6D3MOgQAAAAAAAAAEA/1G2CNPjNH0rS6vR8q5Ad1f/+T1hXYjD/vdJLk97DOQBWcHtBQ//esM4Cayq+5TNI7rDMAAKiRyQrDWzW36xDrEAAAAAAAAACAvfoNsFxwbN3eC9X4lnUAtsC791snoErO/5t1AlBT+cKn5HWudQYAADU2XcXgXuUWHWAdAgAAAAAAAACwVb8BlvfH1O29UCmvjPuOdQQ2Y/aCHSUdZ52BKjg9oMGlP7TOAGomX+iW179aZwAAUCfby2XuUX4hJ9QCAAAAAAAAQAOrzwCrrWsbSXPq8l6ogv+xHhj4k3UFNiOTfZekrHUGquDDi6wTgJpp7363vPqtMwAAqCuv3eSzdyjXu611CgAAAAAAAADARn0GWBl3hBiNxJ/n+sHYc+4s6wRU5QcaXvYf1hFATeR7jpRzV0ty1ikAABg4SArvUOv8KdYhAAAAAAAAAID6q88Ay4vrB5PAZb5tnYDNyHXnJR1onYEqOH3MOgGoibbuVnl/i6Rm6xQAAAy1qWXyjZo3L2MdAgAAAAAAAACor/oMsBwDrNjz7mENL/mtdQY2w+k91gmogtO9Ghr4kXUGELk5i/ZS4G6XtJV1CgAA5rzerNU7X2adAQAAAAAAAACor9oPsPIL95B3+9X8fVAdF3L9YJzleifLu1OtM1AFF3zCOgGI3JyF2ymTuVPSjtYpAADEyAeU615sHQEAAAAAAAAAqJ/aD7B89uiavweqF3D9YKy54qmSpltnoGJ3a3DJ/dYRQKRyvZOVyd4maX/rFAAA4sddonz3adYVAAAAAAAAAID6qMMVhO7Y2r8HquL8rzW45BHrDGyGd++1TkAVvD5qnQBEzEnhlyTlrEMAAIgpJ+++qlx33joEAAAAAAAAAFB7NR5g9QVy/sjavgeq5h2nX8XZnEV7STrcOgMVu0sjAyutI4BItRc+Lul06wwAAGJukuS+88rv8wAAAAAAAACAFKvtACv/7Cx5vaqm74HqeXe7dQI2I5M5S5IzrkClnP7dOgGIVL7wTjl92DoDAICE2EGZzG1qvWCadQgAAAAAAAAAoHZqO8DyIaf2xN/T2u3PI9YR2JS+QHLvtq5AhbxGNDTwI+sMIDLtPR3y+pIYhQIAUI6Zal73TXX2Za1DAAAAAAAAAAC1UeMBljuspq+PCLg7tHx50boCm5B75gjJ72GdgQpl/CesE4DIzFm0l5z/jqQW6xQAABLoOI0+028dAQAAAAAAAACojVoOsJycGGDFnQ+5fjDOvDvDOgEV+6kGl95pHQFEouP8rZXJ3CZpe+sUAACSyy1UvrDAugIAAAAAAAAAEL3aDbDaug6UtEPNXh9RGNek4B7rCGxC51mT5HSydQYq5P2/S/LWGUAEnMLRL0uaaR0CAEDiefWrvafTOgMAAAAAAAAAEK3aDbCce0PNXhtR+ZFW9D9rHYFNGJt+kqTp1hmoyO+025Pfso4AIpHv+aikedYZAACkRJOcv1lzFu1lHQIAAAAAAAAAiA4DrEbm9T3rBGyG9++wTkCl3Ke1fHnRugKoWr77LfL+I9YZAACkzHbKZL6t1vlTrEMAAAAAAAAAANGo4QBLc2v22oiG97dbJ2AT2rq2kXS8dQYqslrPTb/eOgKoWm7RAfLuWtXydwUAABrXoWqe/EXrCAAAAAAAAABANGrzpWq+ax957VaT10Y0nP+1Vi79jXUGNiHInCppsnUGKuEv1SN9Y9YVQFXmnjtDytwmaZp1CgAAKXa68oUPWkcAAAAAAAAAAKpXo1MtuH4wATj9Ktb86dYFqMgzerH5S9YRQJWcis1fk7SvdQgAAKnndbFyXYdbZwAAAAAAAAAAqsMAq1GFwW3WCdiEw3p2ktRpnYEKOH+lfnbpi9YZQFXaCxdKOsk6AwCABpGVgm+qY9HO1iEAAAAAAAAAgMrVZoDlxQAr3tZq/KVB6whswrg/TVLGOgNlG1fRf8E6AqhKe0+nnD5mnQEAQIN5tcLsDersy1qHAAAAAAAAAAAqE/0Aq61rV0l7R/66iI7XnVp19bh1BjbBiesHk8jp61q5bLV1BlCxtsKr5fwNkvjyFwCAuvOHa3TNJ6wrAAAAAAAAAACViX6A5TKHR/6aiJi73boAm5Dr3VfS660zUAk3YF0AVKyzL6tAN0nayToFAIAGdoFy3SdbRwAAAAAAAAAAyleDAZY/LPLXRJSKCsfvso7AJjj/TusEVOT7Gur/qXUEULF1az4pcX0wAADGnOS+rDmL9rIOAQAAAAAAAACUJ/oBFl/gxpxfpQcvf9q6Apvg/dutE1CBwH/eOgGoWK5wnJzOt84AAACSpBkKMjeodX6TdQgAAAAAAAAAoHTRDrAO69pe0gGRviai5d091gnYhI7emeLvTxI9psFtOVUOyZRfvIOkayQ54xIAAPA/nNrVPOlj1hkAAAAAAAAAgNJFO8AqZg4XX+LGW6B7rROwCcXiqdYJqIDT56S+0DoDKF9fII1fL2lH6xIAALAhd4HaCsdYVwAAAAAAAAAAShPtAMv7jkhfD1F7QWtnjFhHYFOCk60LULa/yQfXW0cAFWl/ZrG8+GIXAIB4ChTo2ldOqwQAAAAAAAAAxFy0AyypLeLXQ7T+Q4/0jVlHYCNyvfvK+UOsM1Am56/W8JKXrTOAsrUX2uTcJ60zAADAZu0kP36NOGUaAAAAAAAAAGIvugHWzL5mSa+L7PVQA57rB+PKhadYJ6BsExrPXmUdAZStrWsbOd0gqck6BQAAbNHxau/ptY4AAAAAAAAAAGxedAOsrde8TtKkyF4P0fPBPdYJ2ASvU60TUCavW/Tjzz9unQGULRMMSNrbOgMAAJTI+U+rrTDLOgMAAAAAAAAAsGnRDbACrh+MuT9rpP9X1hHYiNnn7Sap1ToDZcr4y60TgLLlu98ir7OsMwAAQFlaFOgGdZ7FA08AAAAAAAAAEFPRDbA8A6xY8+L0q7jKFE+V5KwzUJZfaXDpCusIoCyHdW0v77g2EwCAZJqp0WkftY4AAAAAAAAAAGxcdAMsqT3C10LUnLvXOgGb4HSKdQLK5S6X5K0rgLKMB1dKerV1BgAAqNj5ynUdbh0BAAAAAAAAAPhH0QywDuvaXtLekbwWasFrYuyH1hHYiNkLdpSUs85AWZ5XWLzOOgIoS3vP+xh7AgCQeIEUfFVtXdtYhwAAAAAAAAAA/l40A6xiZk4kr4NaeVg/vuK/rSOwEZnmkxXtSXSoNa/rtHLZc9YZQMnae/aU85+3zgAAAJHYS0HAv+sAAAAAAAAAEDPRDD9Cz/WDcebcPdYJ2ATnT7VOQJkCf6V1AlAGJ6erJG1tHQIAACJztnLdb7SOAAAAAAAAAAD8f9EMsBwDrFgL3b3WCdiI1gumSTrMOgNl+YGGlv7COgIoWa4wX/LHWmcAAICouavUcT4DawAAAAAAAACIiQgGWH2B5F5f/eugRl7WpDUPWEdgI1pePl5Sk3UGyvIF6wCgZLPP203SJdYZAACgJnaXH/2MdQQAAAAAAAAAYL1s1a/Q/uz+kqZXn4IaGdKKa9ZZR2CjTrIOQFn+pudm3GIdAZQsW7xa0jbWGQAAoEa8PqD2nps00r/COgUAAAAAABiY2desbdb8RNIk6xRE6iYND1xoHQGgfNUPsKS2CF4DNeP/w7oAGzFvXkar3RutM1AG56/TI31j1hlASfLd75EXP2MQpZ9LetQ6AoCJsxiGyQAAIABJREFUEyVNsY7ARjk5/yXNWnyIfnbpi9YxsdXRO1NheJB1BiIS+t9r5dJV1hmx1d5zvJzfyjoj0aaHt+rOZaPWGYnS3nOgnD/YOgNlaFl7Gw/sRqUvUG7NKdYVMDT28ve06uqXrDMANLBpz86VF//NmzY++L51AoDKVD/Acr49gg7UjP+RdQE24old81K4nXUGylD0X7ZOAErSsWhnhe7z1hlIlecVhido5bLV1iEA6qy98GY5zbPOwGbto6njn5TUax0SW764r+Russ5ARAL3PXGa9MbNm5fRav8tSZOtUxJtbTBH0o+tMxLF+W5JH7DOQMn+Wyuuudk6IjXa1x4pid8zGlnzlNMl3WidUVedfVmtWzMg56I44AHxt1LD/V+xjsBmhP4EOesIRMrpcQ1P+0Hd3zfffZp8cETd3xdIi0zxCj2w7OHqf0Hyrl3OR1CEGhhVy/MrrSOwEd7zgXGyDGrlsl9aRwAlCYMBcTUwouR0EeMroAHNWjxVbnzAOgMl6VZH1zc1uGzEOiSWRtfdq+bJL4tRSlocaB0QW4/vsp+c58951fzrxACrXIdYB6As90jiw/youPBM6wRY8403wFrRN6FcYXeJ7zgaxOGSGGDFmdPx1gmI3HVSX1j3d/WuQ/Lz6/6+QFqE7g5JDwdVvcisxVPl/MxoihA9N8Jx0jHl/ZusE1AGx+lXSIj2nuMld6p1BlLEaZV2eeJy6wwABqZOfErSntYZKEmgMLhKnX08gb4x66+EWWGdgcjsqdb5XIu6UX6WdUEqePc664SEcZL4bDhZ7rYOSI1Zi6dKOtk6A+beqPziHawj6s65a60TUDf7q61rV+sIbMLcwu4S1w+mji9eZ50AoHLVDbCmjr5eUVxjiFrh+sE4mtu7t3hqN0meV/PEcusIYIta50+R8wxlEKWiiv4cLV9etA4BUGcdva+X/CLrDJRlltat6bKOiC2n260TEJlAzS37W0fEUuBfa52QDv6frAsSpb1nD0nbWGegZKFc033WEamx1fjJkra2zoC5rDTeeA9Drp1+q5yess5AnWQcV5LFVcj17KnjNaLhyx61zgBQueoGWArmRJOBmvCOAVYchSG/ECXLDVpxxQvWEcAWNU/uk7SXdQZSZZlWLl1lHQGgzjr7sgrDqyVlrFNQJqePa/Z5u1lnxFLAACtVfIYnvDfGixOwIuFmcaJgORzDv2RZpaFL/2odkRpe77ROQEx4nWGdUHeP9I3J6xvWGagTHxxlnYBN8P6N1gmImvuadQGA6lQ3wPLiqbD4GtdLmWHrCGwE1w8mSxB8yToB2KJc72sl9VhnIEWcHlfQ8m/WGQAMjK0pSOL6pWTaSpniF6wjYumBgT9J+pl1BiIShJwovVHuEOuClJik0bX8GSsZV18mi7vLuiA1DuvZSdLR1hmIjdwrt140liDgGsJG4fyR1gnYiOO7WiROJ0uZMYXjN1lHAKhOdQMsp0Mj6kD0HtLPLn3ROgIb6Dh/a8kdZp2BEnn3sAaXPGSdAWxeXyCFX5TUZF2CNPFdGrzkeesKAHWWX7iHvD5mnYEqOJ2gXPfJ1hmxxDWE6eEdJ2BtqLNnuiROwIuKL/LAacn8wdYFKEPo77FOSI2iP12cGIv/z2nCv8M6ou7Wf27+c+sM1IHXbmrrfo11BjawVodL2so6A5G6RQ9e/rR1BIDqVD7AmrV4qiT+wY0rL64fjKPi2DGSWqwzUKrwy9YFwBa1P/teSW3WGUiV72po6S3WEQAM+OzlkqZaZ6Barl+t86dYV8SPY4CVHpxOtKFx91pJzjojNVzASZClcuIKwuR4VpNnjFhHpEbozrROQMw433jXEEqSE6dgNQonriGMG585wToBkeP6QSAFKh9gTR07RDzlEWPuP6wLsBEB1w8myIS846hPxNvcc2fI+U9bZyBVnlcYdllHADDQ3v3Pkk60zkAkdlfzlA9ZR8TO0PSVkv5inYFI7Lv+ug38rzDk+sFIhZyAVYr1fw/3t85Aqfx9WtE3YV2RCh29M+U8P3exoQOV62q8AW9R10sat85AHbiAq+5ixzPASpe/auzlu60jAFSviisIeRosxooabxmyjsA/cPI6zjoCpfJ3auUAX9Ag3opNn5C0vXUG0sR/RCuXrbauAFBnbV3byLnPW2cgSv58rojYUF8opzutKxCJrJ7L7msdEStes6wT0sW9bv1V79istZkDJWWtM1AiH/CFXlRCf5Z1AmLKB413Ctb6z8/5+dIQ/FH8fhQjc3v3FrdUpYvz12vV1QxagRSo4h9LzwArrpx+qlWfWWudgQ3keg+WtJN1BkrlrrMuADYr332w5M6xzkCKOK3Srk9eZp0BwEAQXCJpF+sMRKpFQfBZ64j4cd+zLkBEvOcawv/LMcCK2Faa8xwjvy0KuX4wSbL+HuuEdOgLJH+adQViyukdmjev8W6NcY5rCBvDdpr7NP/2x0UYnmSdgIgFnusHgZSoZq3MACu2PNcPxpELj7VOQMmek4LbrSOAzXDywWXiaWNEp6iiP0fLlxetQwDUWXuhTdL7rTNQC/4t6ujmSoL/q3nsLkmj1hmIgPcHWSfER18gaaZ1RepkJ7iGcEu840vY5PilHhj4k3VEKuSfPlrSrtYZiK2d9eddDreOqLu102+V01PWGaiDicxR1gl4hdfx1gmI1E/1wLKHrSMARKOyAVbr/CZJfNgVXz+yDsBGeB1jnYASOX+Thpe8bJ0BbFJ7z+mSb7wPdFBLS7Vy6SrrCAB11tmXldxVqu7BHMRZ6AZ0fFeLdUZsrLjiBTn+ezkVvDgB63+0PbOPpK2sM9In4MHTLePktaRw/i7rhNQIgzOtExBzPmy8awgf6RuT1zesM1AHzh9pnQBJud7JkvhuIFU4SRBIk8o+aM9OPlDSpGhTEJFQE8UHrCOwgfVfehxmnYESeX+9dQKwSa3zp8j5z1hnIEWcHlfQ8lHrDAAG1q05X84fYp2BmtpXz7ou64iY4aTbNHA8FPi/XMApRLXgQ07A2rKDrQNQKn+3dUEqdC7YSk4nW2cg7twp6jyr8b47C/011gmoize8ckAHLAXFIyRNts5AZMblsjdYRwCITmUDLOf4ECK+fqUHL3/aOgIbWJvpkDTFOgOlcH/U8Hb3W1cAm9Q06V8k7WKdgRTxrluDlzxvnQGgznK9+8rpIusM1IP7sFo/+CrritgIuGo8JfbTvHkZ64hYYEhbI65VkrOuiK1c77biv0uT4mX5LJ9zRWG06W2SplpnIPamaWzaidYRdbf+VPWfWWeg5rZWy5TXW0c0vFAnWCcgSv4uDV36V+sKANGp8KoJzzHc8TViHYCN8J7rB5PChddLfaF1BrBRbYVXy7kPWmcgRbzu0HD/d60zAFgoXimemGwU09VS/DfriNh4YMnvJf3SOgNVm6TVu+5lHRETXANXGzOUX7i7dURsec+fu+RYoeElL1tHpIPn+kGUxqvxriGUJPnrrAtQD/4o6wK4N1oXIEKO6weBtKnwBCwGWLHltNI6ARt1rHUASuQyN1onAJsU6FOStrbOQGq8KLmF1hEADOQK75Lc0dYZqCPvz1VbF1e2/Q/nOAUrDXzIn+n1GMLUis9wA8AmhVx9mRhcPxiJjkU7S+4I6wwkxomvnBTYWEJ3naRx6wzUWKgjrRMaWm7RAZL2sc5AZJ7RtJDPJ4CUqWSA5STHhztxVWSAFTvrr/s41DoDJXlIg0sesY4ANirX+1pJZ1lnIE3cRRrp/4N1BYA6m7NwO0mXWmeg7rIKMp+2jogNBljp4MQAq+P8rSXtaZ2RXgEPoG6KCw62TkCpQgZYUQgzZ0ji6luUqlnev806ou5WDvxF8ndZZ6DGnHLK9XKathWfOd46ARHy+obuXDZqnQEgWuUPsHK9+0iaFn0KIvC8dn+C8UjctIwfrYqv+0RdecfpV4gxf6n4sA9R8e5htUy/zDoDgIFM0+ckbW+dAQv+LWrv5eQzSdp59ZCkp60zUC13gHWBuXDda8XnDTXkOQFrk/wh1gUoyR80fNmj1hEp8U7rACSM8415DaELvmadgJqbJBXz1hENy/kTrBMQIRdw/SCQQuV/SOM8J/nElddDWr68aJ2BDXiud0kIr6y/2ToC2Khc4TjJc5UpolJUxr1PK/omrEMA1FlH9xGSf5d1BgwF4cWSnHWGueXLi3I8nZ98fqZ1gT3HNXC1xQlYG+ckTqBLCE6/ikK+51Bx3SvK9wa1de1qHVF3a6ffKh50aARHWQc0pM4FW0nuMOsMROZRDS950DoCQPTKH2D5kKe/4irQsHUCNuoY6wCUZFgPDPzJOgLYCCeJK4MQpWUaXPKQdQSAOju+q0Whu0KMbxqbV6vau+dZZ8QE1xAm3wFq9J9pTpxCVFs7a/aCHa0jYmdu716StrbOQCk8A6xIhGdaFyCRAgXBO6wj6u6RvjFJ3DKReu5I64KGNJY9SlKLdQYiw+lXQEpVcEy54+mvuAq10joBG+go7C9pd+sMlMItty4ANirf/XZJjJ8RlSc1NqnPOgKAgTXBRVo/VkCjc+6T6uzLWmeYG518p6Rx6wxUZSvNLexmHWHKcyJLzTVn+W+xDRU9f+6SYUJjk39gHZF48+Zl5F3jjWgQDe8a8xrCgCu1GsDr1dkz3Tqi4Xh3vHUCIhNqIvN16wgAtVHBAEtcQRhXngFW7BR5EiAhvCaCb1lHAP9g/ZejH7POQJr4hVr1mbXWFQDqrK3rIDmdb52B2HiNxta8xzrC3Pp/DwetM1Clom/ka9CcpIOtI1KvGPAg6oac589dMgzx334RWL3z0ZJ2ss5AQjl/iDp6G+/K5PWnrv/cOgM1ldE6/wbriAbEACstnL6vH3/+cesMALVR3gCr9YOvksTR2/H0e60c+It1BDYQ+MOtE1ACp0F+2UEsjT3zXnm3n3UGUsLrDg0v/Y51BoC6c3LBZZKarUMQI159ap0/xTrDnv+edQGq5N2B1glm5izaU9I064z08wywNsTJa8ngxfWD0XiXdQASLiw25ilY8l+zLkCNOQ4fqKtc72vFbTvpETpOCgRSrLwBVvNY4631k2PEOgAb4XWYdQJKwvWDiJ/OsyZJ7iLrDKTGS5JbaB0BwEC+8D45HWGdgdjZWS2Tz7WOMBe426wTULXGHWBlA0Yw9eC4Dn4jXmsdgFK4u6wLEm/W4qmS3mydgaRzZ2j9qZWNJXTXieu+U84zwKonX+T0q/R4QZPGbrGOAFA75Q2wfKaRj3aPN8f1g7Ez57z9JO1snYEtCuW5fhAxNDqtS167WWcgJbwu0kj/H6wzANRZW+HV8vqMdQZiyutCtXVtY51hanDgMUm/sc5AFZwa93MqTiGqlz2V693WOiI2Os+aJOk11hnYor9pZPpPrSMSb8rYqZK2ss5A4u2utkKHdUTdrRz4i+QZgqbbwZq9gBuT6sU5Blip4W/SiitesK4AUDvlDbCcb9wPtuLOB5yAFTdByB3YyfCAhpf82ToC+Dvrn7JcbJ2B1PiZJs1YZh0BwIBTv6QZ1hmIre0UuIJ1RAzcbh2AqjTy51QMsOrDyflDrSNiY930gyRlrDOwJe4uqS+0rkg85860TkBKBGrMawgdV2ylnFNTttM6oiGsf3Cq8YacacXPRiD1yhtgNfYHW3E2qukTD1tHYANODLCSgesHET9bjS+StIN1BlIhVBCeoxV9E9YhAOosVzhOTqdZZyDu3Hnq7JluXWHKOQZYyTajYZ+8dwyw6saHXEP4v0KuH0wCr7utExIv17uLpE7rDKTGP2tmX7N1RN2tnXGbnJ6yzkANhY5rCOshkzlWUpN1BiLxBw0N3G8dAaC2GGClgddPdOeyUesM/AMGWPHnFRS/bR0B/J1Zi6fK64PWGUgJr8s0uIxTMoFG0zp/iqQrrTOQCNM15hdZR5gafel+SWutM1CFpubG+6yqdf4UebePdUbjcK+zLogNFxxsnYAtChVk77WOSDxfPEOc9obobKut1x5nHVF3j/SNSe5G6wzUkNNR1gkNwfs3WicgIutPv/LWGQBqq/QBVq53W0mN+VRh3DnxxWrc5BfuIfk9rDOwJf7HGrzsCesK4O9MHTtX0vbWGUiF1cq0XGQdAcBA8+Q+SXtZZyAhvHpfudKgMa26elxynBSSZF4HWifUXcvkmWIYUE+cgPW/PCdgxZ3TTzR06V+tMxKP6wcRtSBszGsIiyFXbaXb3mrv2dM6IuWcpOOtIxAJLxWvs44AUHulD7ACzaxhB6rh3UPWCdiAzx5unYBSBN+1LgD+Tuv8KZL7F+sMpIXv1v9j787D66qve/9/1j4aPOARwmDmIYAxmMHBtiwTBE5KDGnTJhUJU5u2qVsGIQsI6XPTtLrtc2+blGLZJpDy3P4uEBLa0tv+eoFgpsQptuQhJsGJyUiTEObBthg8SDp73T9kiCxrOEc6e3++++zP658mDTnn/TyRZemcddZa/6W32BUikrKGtjMALGdnSKbMhEX53oJlsc4QZlqcvwGs2M5kJ+TMyWi65iB2RCD0tRc8X8MuyLyFy88BoG1vUlmOj2He56axM1K3cdUWAFvZGZIgg84QJqmh5SwAs9gZUgm+Dp2rn2VXiEjySh/AiuP8rXTPjqfYAXIAnR/Mgrj4H+wEkf3UT7wawKHsDKkCjm+ga9W/szNEJG3tERD/A4BadolkjOEGNN48hZ1B44WHABTZGTJWlr8BrAhz2Qk5E2FPnQaP5t14CHQdIXxW0FbH8TLX9itJwgTU7fkYO4LCcA87QRJksQawkuSFi9kJUimmjYAiOVH6AJZDA1hh2oWjX/gJO0IOoAGs8P0MG1c/w44QeU9D20Q4tP1KKuFt1OBqdoSIECzcfi2ABnaGZNLBiPdey46g6VqxHcAGdoaMWf5er3KdgUtfrDOEE3r1dRe+N7HnHf19Nh5N7TUAPsXOkGplOT1DiHsB9LEzJCFuF6L/TJ4kIfKPsBOkInYjju9nR4hIOkofwDLP3wta2fA07r9fn9QNyXnLjwDwfnaGjMZ0flAC438I4DB2hVQBx19g3crn2BkikrLzlh8Bs79mZ0imtaGhbSI7gkhnCLPrcDS0zWRHpEyDMKmzs9kFdLE2r2XA49hyZy87ItP27PwwtOlNEuNLcO41+fv62rjyFcAfZmdIYo7Agpb8baRNw+KrZ8CxkJ0hFfHv2Lj6TXaEiKSj9AEsmAawguQ6PxiaYnw+O0FKELvOD0o4mpsLgLexM6QqbMWEGavZESJC0Oe3A5jGzpBMOxTun2ZH0JhrACvL3PPzps+5NxwN4GB2Rv6YNmDBNPgXOnOdHxwvnR+UZBVQU/NJdgSF6fRWVYsinSFMQlx7EYAadoZUgMX6HiiSI6UNYDUtnw5gVrIpMiYefY+dIIM4FrMTZFSv4ZgXu9gRIu95/shLAZzIzpDMK8LwGaxt11p3kbxpWP7bAH6bnSFVwPzG/sHwHOpc9QMAv2BnyBhFOdraXtenIRgG89OwtKWenUF2OjtARlPUANZ4LGiZCuBj7Aypdjk9Q9g94wEAb7AzJDFL2AFVyW0pO0Eq4gUc+fIT7AgRSU9pA1h7MCfhDhk7bcAKjjWwC2Q0/oBOd0pY/LPsAqkCji+jc+VmdoaIpKzx5imAa/OdVMqJeOGIZnYEkbZgZZafyi5ITdHOYifkVC3erMnx8Ft7BA1ghe6H6PzyL9kRmVawTwCYxM6QqncuGltPYUekblt7D8y+zs6QxDTl9oM8iWmPAFzErpAKcNyr9yNF8qW0Aaw8fZIwW3owo7iNHSEDNLRNBJDjF+Qywk3nByUcC5cvBXA2O0My7yX0TvgLdoSIEHjP/wBwFDtDqkgc/RkAY2eQaAArq9zy9LqVXnNg8WJ+zxA2dJ8AYDI7Q0ak7VfjFZvOD0o63C5jJ1AUdYKrik3Hi0fp9e1KWrRjHoDD2BlSAZHfy04QkXSVNoDlyNMLWVnyDB5evZcdIQPE8TwAtewMGdEu9O5+nB0h8h7zm9kJUgXcrsOWL3azM0QkZQ1t8+F+DTtDqoz5mWho/Q12BsX0eC2At9kZMib5ed3KNIBF45bjNxaL+roLnmsAazzOveFoGM5nZ0hOuF/OTqDYuGoLgO+zMyQhHusMYSU5dH6wOmxG56ofsCNEJF2lDWAhV58kzA7Hd9kJMkgBC9gJMgrHWmy5cxc7QwQAsKj1XABN7AzJOn8AGzr+jV0hIilraq8B4n8AoDX/koR8nkfu/4DTY+wMGZOj+0+yVrmmT08AkL+zRcHw/G7AgmkAK2x7gMK32RGZVlO8AiW/VyIybu9HQ9t8dgSF213sBEmI24XshKqiAaxqcQ87QETSV+IvFTpBGCTDU+wEGSRGAztBRmF4mJ0g8h7HcnaCZN4uFONWdoSIEOzd0QbgLHaGVK0lWNxyJjuCw3SGMJsMvvdUdkTi9kw/DUANOyO/bC7mLcvn1nPHXHaCjOjb6Fqxmx2RcVewAyRnPM7n11xUcy+AXnaGJMEXY2lLPbuiKsy78RAY8jmkWV160FPzT+wIEUnf6ANYC1qmAjgy+RQpW4zvsRNkkEg/FAUv1kp2CUTjdbMANLMzJOPcvoBNt/2cnSEiKVu4/DgA7eQKqXbFqIWdQNHX8w0AMTtDxsAxm52QvFhbiLgmoG5y9Q/6DcVwOjtBRuDQa13jseD6eYC+xiVlhk/2bzXOmc5bXgV8DTtDEjEJ3ZEuxFRCbfEiaCtjNXgQW/7+dXaEiKRv9G/gVjgJgCWfImWKMbFXA1ghabxuFhxHszNkRD/HxlU/ZUeIAAC8cC2AfH56WiplK3p3rWZHiAiB+WoAk9gZUvWuxILWw9gRqdt8+8uAf4edIWNS/QNYZjndTBcQL+bvDGFD20QAJ7EzZCSmYYbxiKKr2AmSS4dh744l7AgKs7vZCZIUnSGsCPOL2QlSAQ59rxPJqRImaGP9gh2mn2Dt7W+zI2QAL+j8YPgeYgeIAHj3Bexl7AzJtBhR/CfYcqfWtovkzaLrPwXgo+wMyYV6RJ7Xn1d0hjCLDKexE1KgM3BsFp3NTkhdhDkACuwMGdbz2NDxQ3ZEZjW11wD+KXaG5JXl8wxh94wHYNBWmKrk+RwqrKTm5gKAi9gZMm5v4K0ZGpAXyakSBrBMA1hh+i47QAZxaL1q6EyfCJRAWHwlHIewMyTDHLdh/eoN7AwRSdm8z02D29+zMyRP7Do0fXoCuyJ9rgGsLMrFCULoBCGd528Ay4v6uguZ42F2Qqb17LwIQP42fkog/OOYe9NkdkXqtrX3AHYfO0MS4FiApmsOYmdk2gtHzgdwMDtDxsvu7f9eJyJ5VMIJQj8xhQ4pnwawwqMBrLDtxds1a9kRIgAMjhZ2hGTaC/D4C+wIESGo2/slALPYGZIrh6JnajM7InVdq78H4Hl2hpTthKoeGDz3msMBHMrOEJwFtJfwgdaqcjo7QEYQ4RF2QqbFfiU7QXJtMg7q+U12BEUx1mmu6lSLPXXnsSMyzbGUnSAV4LiHnSAiPNqAlV1b2QEyQFN7DYB57AwZgeE/sfWWd9gZIli4/Hzok+syHoZWbFz9JjtDRFLW2LIQ8M+wMySHHNexEwgcOl+eRQXsnnYyOyIxNTVnsRMEADAV89/M12ulbmeyE2RYfaizJ9gRmbWgZSoMv8XOkJzznJ4h3LhqC/QeV3Uyv4CdkGnmF7MTZNy2YUPHU+wIEeEp5RNb2oAVor7CM+wEGWDPzrkA8rcuOFv0iUAJg+FqdoJk2sPoXPl/2BEikrI57XWIo39Eab+/iVSYzceC6/P4YROdIcyigp/GTkiMYy47QfaJink7Q6gPEIXKsAFrO3ayMzIripoBTGJnSO5dhHk3HsKOoDBtiKlSS9gBmXXuNYfDcQ47Q8bJ8L/ZCSLCNfIL+POWTYJOXIToTWy+VecQghLPZxfIKCxaw04Q6T8b4r/NzpDMegfWpwE+kTyatuNmANU7VCDhM/sTdkL6oicA7GJXSJk8qt7vlRbpDFwoIsvPG2OLbjoUOn0ZMn3YcHx0flBCUIvaYv5OfgNAEfcC6GNnSMWdhfnXHsyOyKRC3UcAGDtDxqUPBfs6O0JEuEYewKqfcAL0zT48jmfQfxJBgpGjF9+yyPArrF+xjZ0hgkLdHwGoY2dIRhn+Ep1f/iU7Q0RSNv+Gk+H4PDtDcs5wOeZ9bho7I1VdK3YD+CY7Q8oVz2YXJMd1Bi4Ynp8NWN6j7Vdh0wDWWC269lgAH2RniAAAzHN6hnDlK4A/zM6QiotQU9PEjsgkw1J2gozbY3iy4yV2hIhwjTyA5Xh/Sh1SDoMGSUITaS1o4J5gB4gA7RHMP8OukMzair27V7EjRCR1hkLxdgAT2CGSe5NRtzePWyJ0hjBzrDoHsOa01wE4lZ0h++TpNIybTl+GyvA6OmdsYWdkVlxzBXTeW8KxCPOvO54dQWF2NztBEuB+ATshc5qbC4B/iJ0h4+R+FztBRPhG+yXjxFQqpDxuz7ATZIB5y2rhmMPOkBE4vsVOEMHC7ksAHMfOkEyKYfan2HJnLztERFK2cPnvA1jCzhDp59cibxuyo+ID0PbprDkZ85bVsiMqbsYbs6FNuiE5GItbj2FHpEQbsILljwDtMbsiswyXsxNEBjBEhcvYERTdMx6A4XV2hlSa6XWMcr0wqxHATHaGjEs3rPAAO0JE+EYZwDINYIXIYg1ghaRm4mxoK0HY+goawJIAxH/KLpDMuh2dHV3sCBFJ2bwbD0Hkf8fOEBlgNhrbFrMjUrX+thcBfI+dIWWpRV1d9b2W1Vc4nZ0ggxQtH1uwDPraC5Xbo+yEzFrUei6gD9NKYAz5PEO4rb0HsPvYGVJxp6Kh7Uh2RKa4f4SdIONl/4yuFbvZFSLCN8oAlp+UToaUJfYfsBNkAMvJi27Z9VNsvvVX7AjJuYa2I2G4iJ0hmfQS6u0L7AgRIaiON/usAAAgAElEQVQr3grHIewMkf14/IfsBAJ9gjVrvOY0dkLFmZ/JTpDB/Gx2QeKamwvQkEqoHDX2GDsiu+wqdoHIEE7DouVnsSMoirHOEFYji3WGsBweXcxOkHEy3MVOEJEwjLYBSwNY4XkTG1e/wI6QgXLwolu2fZMdIAL3TwMosDMkgwwtWNuxk50hIilbuLwJ8CvZGSIHcDRjQctUdka6oofYBVK22eyABMxlB8gBqv/DeL88+kQAk9gZMqTv4smOl9gRmdTUXgP3S9kZIkPynG7B2rhqC4Ct7AypOJ0hLFXjdbNgrp/3s+2n6OzYwI4QkTAMP4A1p70OwNHppUiJtgFwdoQMYBrACppD5weFzWD+aXaEZNLD6Fz5f9gRIpKypS31MP8KAGOniAxhMqKomR2Rqq4VmwG8yM6QMkRxNQ5gaQNWeKp/AKsm1huBwfJH2AWZtad7KYDD2BkiQ/PL920fzB/DPewEqTgNYJXKC5dArwFlm9vd0Hv3IrLP8ANY03ccD23rCNEz7ADZjwGmF6TC5XCsZUdIzi1qPQ+ANkpKuXahWLyWHSEiBN3RXwA4hZ0hMoI/YAekzAE8zI6QMrhV1wnC81reB+BwdoYcYBbOvaa6/3dxP4OdIMPRANaYWazzgxKyWXjxiA+yIzhqvwqgl10hFeQ4Gg1tek28FI6l7AQZF0fc93V2hIiEY/gBLNf5wSA5trETZIAF158EYBo7Q4a1DRtXvsKOkNzL25uUUhH+l9h028/ZFSKSssa2OXDcxM4QGUUjGq47lR2RLtcZwmw5BWgf/vWurOmt0farUBXqqn0jugawwvQWevZ2siMyqf+M8kfZGSIjii2fZwg7b3kV8DXsDKm0WFuwRjNvWS2AC9kZMi7f0uv4IjLQCANYsQawQmTagBUUQ7W/2JZtjm+yEyTnmq45CI5PsDMkc76Pnj0r2REikrb2CHH8DwDq2CUioyv8PrsgVe/UPQpgDztDSjYJi7uPY0dUjmvrdriq/QyhBrDC9AS23KktMWNhhUsBTGRniIyiGQ1t+fw6NbubnSCVZhosGk39pPOgJQ9Zp+9dIrKf4QewLDoxxQ4pVV9BA1ghMZzFTpARmH2LnSA5t7fuUgBT2BmSKTEQfUYvqIvkUMOOPwbQyM4QKdHvo7m5wI5IzdZb3gHwbXaGlKEYV88Zwkhn4MLl1fuhvHnLJgE4gZ0hQ3CdHxwzc50flCyYCvd8niPrnvEADK+zM6SS/AIAxq4Ims4PZt3bqO/9N3aEiIRlhA1YfnyKHVKabmy+9Xl2hAxk1ftiW/bFgP0nO0LyzvO5NlzGwe9A14pN7AoRSdl5y48A8LfsDJEyHIEXDs/ZOQl7gF0gZZnNDqgYhzZghaqat6LXT5yDkV43Fp441gDWWCxcfhyA89gZIiWxnL6euK29B7D72BlSUe/D4hb9LDuinA5cVo9/w9rb32ZHiEhYRvpF+tjUKqRUzwBwdoTsp3pfbMu+Z9C1Yjs7QnKs8bpZAM5nZ0imvIz66M/ZESJC0IcOANPZGSLliS5jF6Sq4BrAyhKvkgGspvYaANWzzav6HI+GtpnsiERo8C9UP8am237OjsikyK+EtrBIdlyCpuX5/P2wGOuUV7Xpi3SGcDjn3nA0gDnsDBmHyO9iJ4hIeEYawDoqtQopjeNH7AQZYEHrYQAOY2fIMBxd7ATJOS9cBiA/p3lk/MxasLZjJztDRFLWeP3FgF/KzhApm+PjaGibyM5IzbqVzwH4ATtDSmRVMrS0+42TAUxgZ8iwDOZnsSMScjo7QIbg0ParsXJcyU4QKUM99von2BEUG1dtAfB9doZUkEEDWMMp9F3CTpBxeQ7rZ36bHSEi4Rl6AKvpmoMAzEg3RUrwM3aADFAwTaaHzLCOnSA557icnSCZ8jA6O/6VHSEiKZu3bBJiW83OEBmjqTDP2QvG2oKVIbNRDZtOosKZ7AQZjVfnZnSHvvZCVHANYI3FwtYFAE5hZ4iUxZHPM4QAYNAWrOpyPuYtq2VHBMlwMTtBxsFxD9AeszNEJDxDD2DtLhyTcoeUxDWAFZI41gBWyCxez06QHGu47lQA57AzJDN2oVi8lh0hIgS1E/8KwAnsDJExc8/XGULgQXaAlGwqGtpmsSPGLz6DXSCjqdIBLNMGrADtxVt12rIwFuZXsRNEymY4HwtacnqlpvarAHrZFVIxUzChfh47IjhLW+oBu4CdIeNQwL3sBBEJ09ADWFF0dModUpJIA1ghiWw2O0GG9Qo6Vz/LjpA8K+TtzUgZF/9LbLrt5+wKEUnZgta5MFzPzhAZp0vQtHw6OyI1XTM3AHiVnSEliuPsnyF00xai0LlV3wdvzr3mcADvY2fIIIb/xNZb3mFnZM68ZbUw+yQ7Q2QMIkT2KXYERectrwK+hp0hFVQsLGEnBKcb5wM4iJ0hY9aJ9St/zI4QkTANPYAF5HSyPnBe1ABWSNyy/2Ju9epkB0ju6fyglMbtadTP7GBniEjKmpsLiPCPALSGX7KuHnvxcXZEetpjAHozKCsiz/7v7BG0ASt8J2PuTZPZERUV1errLkw6PzgWtROXwnEIO0NkbCy/Zwg9uoudIJXkGsAazKOl7AQZl3vYASISruEGsHSCMDyvYOPqN9kRMoC5ThCGym0dO0FyrKHlbAAnsTMkE2JEuBpr2/vYISKSsuePuA7AB9gZIpXhl7ILUuX+EDtBSmWnsgvGpaFtJhzaUB++Aib1ncWOqKgC5rITZAgWaQB4LHR+ULLtLCy6Pp8nYd+a/iAMr7MzpEIMDWhom8jOCIr5xewEGbM9qLd/ZkeISLiGHsDSCzwh0varkCy66VB9eipkvp5dIDlm9gl2gmSF34HOji52hYik7Nwbjgbsr9kZIhV0IRraZrIjUuO+BkAPO0NKku0NWO4agskK87PZCRXlpg1Y4Xke61c8w47InHmfmwbYJewMkfGxy9gFFNvaewC7j50hFTMBKC5iRwRj/nXHw+1kdoaMkeE/sLZjJztDRMI19ACWuQawgmMawAqJ9Wj7Vbh2460Z32VHSI65BrCkJC+jPvpzdoSIENTEqwFMYWeIVFAtEH+UHZGa/s3UT7IzpCTZ/r090gBWdlTZABZcA1ihMV8DwNkZmVO/+5MAtHFFss3tCgDGzqAoxnezE6SCzC5kJwQjivLz+3M1ik3fm0RkRMOcIDQNYIXGXANYIYmjbH+Strpt7v+EjAhBY9scANk+dSJpuV6flBHJoYXLPw74x9gZIhVnyNcAukNnCLPhYJzX8j52xJi5zsBlh53DLqiY5uYCgNnsDBkseoRdkE2m84NSBfxYLFyez81BG1dtAbCVnSEVEkMDWO8yW8pOkDF7BROmP8aOEJGwDTOAhaNSrZASaAArLLFejAqV2QZ2guRYXPw4O0EywPENdK28n50hIilb0DIV5qvYGSKJcPwGGm/Oz2Y3ix5gJ0iJ+rJ8hlBbiDJkDpa21LMjKuL5w94PbQwKTRHR3ifYEZkz/7rj4WhkZ4hURORXsBNoXJtmqobhA/2nYXOuoW0igCZ2hoyR416sbe9jZ4hI2A4cwJp/7cEAJqefIiOyggawgmLZPmVQ3TazAyTP7HfZBRK8XaiJWtgRIkIQ2f8EcCQ7QyQhE+B7LmFHpKZrxc8A/IidISVwy+iHp9ojve6QKbXYbqezIyqjoMG/8GzEujt2sCMyp1C4Cnk92ybVx/FJzGmvY2dQRDX3AuhlZ0hF1KC254PsCLqoeAE07J5djnvYCSISvgMHsOoibb8KUa02YAUmw5+irXIxvsNOkJxa1HIioDMhMqp2rFvxX+wIEUnZwtYFgF3NzhBJlOfsDCHsQXaBlCCKsvm7+/w3T4I+HJkthao5Q1glg2RVRecHx+ZKdoBIBc3ElO6L2BEUnbe8CvgadoZUiPkSdgJdrPODGfZdbFyps6giMqoDB7D6ao4hdMjIXsPajp3sCNln3o2HADiUnSFDeg0bOn7BjpC8in6bXSDB+z56dnewI0QkZU3tNTDcgeHPv4tUCVuKpk9PYFekp6gBrCzwOJsbsArFM9kJUraz2QGVYfraC06kwYNyNbYsBPB+doZIZcWXswtoTGcIq4dfwC4IgAawsspwFztBRLJhiDcBXBuwQuN4lp0gA9T3ZfMTtPmwhR0gORYjP2d3ZCxiRPEybLlTa9NF8qZnx42omjdlRUY0GT1T8nNSov7g9QB0Eip4ltHf301n4LLGUSUbsFwbsMLyBo56Xq91lasYXcVOEKk4w2+h8eYp7AyK7hkPwPA6O0Mq4gwsuim/yw0aW08BcCI7Q8akF4X4PnaEiGTDgQNY5tqAFRqzn7ITZIDYTmYnyLA2sQMkp+Z9bhoMi9kZEjK/A+tXb2BXiEjKFl17LBxfYGeIpKfwUXZBata29wHQVpLwzcLiq2ewI8pmri1E2TMXTe017IhxmXvTZADHszNkP4/i/vuL7IhMmdNehwiXsjNEEjAJvief2/e3tfcApsGH6mCIe/O7BauIi9kJMlb2DTy5+jV2hYhkw1ADWEcTOmRE/jN2gQxgrgn1UHn0HXaC5FT97qUAatkZEqyXUR/9OTtCRAi85ssAJrMzRFLj+C12Qsp0hjALvOYUdkLZHHPZCVK2iejZfio7Ylym7D0DOpkcFvdH2AmZM3XnxXAcws4QSYTbFewEmmKsM4TVwuxCdgJNpPOD2aXvQSJSugN/qfZIJwhD46YThEHxk9gFMoxa1wCWcMSm84MyPPdWrO3Yyc4QkZQ1tF4O6Dyt5I0fi8a2OeyK9ERrAPSxK2QUcSFbZwgXtEwFcCw7Q8bALdtnCIsFnR8Mi6M2epQdkT2u84NSzZZgQeth7AiKjau2APg+O0MqwZewCyjm3jQZjg+yM2RM3sCbMx9iR4hIdgzxqSY/Mv0MGVHkv2InyECmAawwvYAnO15iR0gONTcXYPr0igzD8Q1sWPUv7AwRSVlD20wAt7IzRCg8zs8Zwq4V2wF0sjNkFO7ZGsCywhkAjJ0hY3I2O2B8/Ax2gQzgtlWvc5Wp/+SsPgAh1awGBXySHUHjdhc7QSriRCy6Nn8fNpjUuwRAPTtDxsL/qf8UqohIaWqG+P/lc4I+ZLE9x06Q/egEYZBM26+E47lZDYhwMDtDgrQLsGvZESJCYMUvwk2/V0lefRTAF9kRKXoQ0CeZAzebHVAmnR/MrmxvwAI0gBWSCDo/WK5i3aXQm9tS7dyvALCKnUHh/jUY/hZALTtFxslrlwD4/9gZqdIHuLPLTOcHJWTPwKNWdoTsU9P3NDB4AGveskkApjB6ZFhF9O56gR0h+5x7zeHQn5EwuW9iJ0hOFbAUzo6QILn/d2xY+Qt2hoikrLHtPMTxH7EzRGgcDVh89Qysu2MHOyUVbg/C/EvsDBmBZWwAy/xMdoKM2VlAewS0x+yQMTEN/wXF4jXshAz6PXaASPJsPubfcDI23foTdknqNq58BQ3XrwHsN9kpMk7uFyBvA1iwpdCbCFn0DDpXbmZHiIxgJzaseJwdIfvb/wRh7aRDSR0yvJex5c5edoTsU6jT9qtg2XfZBZJT7h9iJ0iQtqJ3zwp2hIikbGlLPeL4H6DTUZJvBRRrm9gRqdnQ8UMAz7IzZETHYu5Nk9kRZdAWouyaigXbs/m6UeN1swBtdg7I29g5cz07IlMWtZwIoIGdIZKKqO8ydgKNR3exE6QCDEuQp9dNGtvmAJ6/s4vVwHAPO0FEsmf/AaxC8XBShwzvl+wAGSg+iV0gwyj0r/UTSdXiq2cANo+dIcGJAb9aA9QiObTD/gzZO3UlUnlmH2YnpMseZBfIiCJM6juFHVEiA3A6O0LGwSybZwjjSNuvQmL4Jra197AzsqVwFfL0Zr7km9mVyOvX+1vTH4ThdXaGjNsRWLj8VHZEaorFS9gJMiYxivHX2BEikj37D2AVI23ACo3jOXaCDGBRNj/JWP3ewPrbXmRHSA4V6z4EoMDOkMA4voKuVZ3sDBFJ2fwbTobZn7EzRILgyNcAlmsAKwOyMRy7qOUEAFPZGTIuZ7MDxsa0eS0sj7ADsifO70YgyaOTsKj1A+wIim3tPYDdx86QCjBcyE5IjdlSdoKMyWPYuPp5doSIZE806N8dRuqQ4Rh+xU6QgVwbsMKk7VfCkbc3F6UUL2OCfZ4dISKpMxSKdwCYwA4RCcRJWNx2AjsiNb3vfBtANztDRhDF2RjActMWoqwz0wCWVECsAaxyNFy/CG4nszNEUuV2BTuBphjfzU6QSvB8DGAtaJkKYBE7Q8bC9L1GRMYkGvTvNYAVGncNYIVFA1hh2soOkJwyfIidIIFxb8Xajp3sDBFJWcPyPwBy9OlNkVIU4/wMqm+5sxfwx9gZMgK309gJJXFoACvzPKMn6l0DWOH4KTpXP8uOyBa7il0gkj6/DE3tNewKio2rtkDvB1SDC9HcXP2XJQrRhwHUsTOkbG+iZ9d/sCNEJJsGDWCZThCGJtIJwsBoACtI9n12geRQQ9tJAI5nZ0hQ1mDDqn9hR4hIyubdeAjMv8jOEAlO3jaFOnSGMGzZGMAybcCqAgdjcesx7Iiy9L+Bn40tcfmg7VflmNNeB6CZnSFCcCh63sjvh4AM97ATZNym47kjzmJHJM6h84NZZP4v2HLnLnaGiGTToAEs1wBWaOJIG7BC0dA2E8AMdoYMwVwDWEIQL2EXSFB2oVi8hh0hIgS1fSvgOISdIRIcwwVA++Ct29Wr1r8BIGZnyLBOxNKWenZECbSFqBrEnq0zhHt2vh9AFv585IUGsMoxdfslAA5mZ4hQeJTjM4S4F0AvO0PGyVDtr68bgI+wI2QMrKAhTxEZs/1XlLpOEAantqgBrFBYfCKcHSFDKGLv7m3sCMmlD7IDJCjbUSh8EQ2t7A4Jyy/QtfJmdoQkaEHrh2G4kp0hEqiZWPzGGViHp9khqXhy9WtoaN0IoIGdIkOqQbe9H8AP2CHDmnvTZKD3RHaGVIDbOQAydLLEtXktHHvxTu232BHZovODkmu/g3nLrs7llpaNK19Bw/VrAPtNdoqMg9mFAL7EzkjM4pa5KOJIdoaU7VmsX7GOHSEi2TX4RrQ2YIVlF55c/To7Qt6TrRXyeWH+bC5/yZQQnM8OkKAcBZ09kAPpU27VrKFtIhDfwc4QCVqffRDIyQAW0H+G0DSAFSy32Qh5AGtS7+k4YFO9ZFPGNmABp7MD5D3rsPWWd9gRmdHQNhOIL2Fn5Fw3gCnQ318sU1A/4bcA/BM7hMKju2CuAaxsW4w57XXY1t7DDklEsXAxtNUhe9y/Cv0PJyLjMPgH48MpFTKc56Bv8uGINYAVJLf8vKEj4WhoOwnQp1dEZCR2N7pW6nxIVYv/AoA2lYiMxOw8dkKqHA+yE2QE7qexE0YU+ZnsBKkUO4ddUBbT115A9PtDOdw/CaCOnZFv9giAH7Ercs1xOTuB5q3pD8KgBQbZNhnTuxewIxJjfjE7QcrmqCl8lR0hItn26wGsectqAczgpcgBDDo/GBLD0ewEGYp/n10geeQ6PygiwzO8jpriZ9kZkqBF158O4EZ2hkgGnA/A2BGp2bhyK4BfsDNkGJHNZieMyKEzcNXjSCxoPYwdUTo7g10g74rWsAsyxVznB+n8URg2sSvyzT6CeTcewq6g2NbeA9h97AwZJ/cl7IRELL56BhwL2RlStiexbsV/sSNEJNt+PYA1oe59yNMLo1ngrgGssBzFDpAhhXtCQqqZBrBEZHgxrsOTq19jZ0hS2iO43Qmgll0ikgGHouG6U9gRqXJ8g50gw3CEvQFLQzDVJcrIGcLGm6cAOJadIQCAF9G1Qq9xlap/M7ne2GbrKzwKYDM7I+dqUVtsZkfQxLiLnSDj5PGF7IRE9NV+GEANO0PKZXezC0Qk+349gBVbhj6ZlRMWaQArJK4NWEHySGuuhUAbsERkGIb/iw0r/5mdIQlauPNPADSwM0Qyw6Kc/dxkOkMYrpPR1B7qmyAGaANWVfGMnCH0ntOhD+SGwfEIAGdnZEd8FfS1y/YMNt/6K2gAiy/y/J4h3NDxFICt7AwZD1uAuTdNZldUnEU6P5g9uxAX/5UdISLZFw34l4fyMmRo8YvsAhlAJwhD1Ie3pj/LjpCcOfeGowEcz84QkSB1w6Nr2BGSoMbrZsH8b9gZIhmTrwGsCTu/BeAddoYMqR673jyBHTGkxa1HA5jOzpAKsoxswEKszWvheIQdkCEG4Ep2hOBRAED3jKcB7OWm5JyjEQuXH8fOoHFtrMm4OkzuOY8dUVntEeAfYVdImcz/HRtXv8nOEJHs+/UAlvvhxA4ZSmwvsxNkn3nLagHoz0hozP+r/9a7SIoKfdp6IiJDM3wWXSteYGdIgoqFVQCmsTNEMsUtX+eB1t61B7DH2RkyjJq+2eyEIfVFZ7ITpNKysgFLm9cCUUTcp787SrWgtRFAmAO1ueL9Q4Pb2nsAf5ock3cGw2XsCJqo5l4AvewMGQeLLmAnVFRj9zkAdHUqa4oa5hSRyvj1AJaZNmCFxiINYIWidtKRAArsDBnMdH5Q0hdhATtBREJk30bnyv/FrpAELVy+FIZPsDNEMuhELGjN14vPDp0hDJVbmANYUawBrOpzPBZfPYMdMTrTBqwwbMKmL7/BjsiMyK5iJwj24p26J3/9b20TL0X6eX7/XHTe8irga9gZMh6+hF1QUXGs84PZ8wKOefGb7AgRqQ4DB7AOIXbIUNxfZSfIPu5HsRNkCI4fsxMkh9w0gCUig+1GHP8xAGeHSEKarjkI5l9hZ4hklkXz2QmpqsVD0N8JgbLT2AXDOJ0dIBVn8Nqz2BEl0NdeCMweZSdkxtKWesCb2RniT2LrLQNPLm+mpci7ZmPR8iz8vZMMj+5iJ8g4OM5GQ9tMdkbFOJayE6RsX8X99xfZESJSHX49gBV7Bj6VlTNmr7ATZJ8Ix7ATZEgawJJ09Z8jzcYpCRFJ019i46qfsiMkQXtr/wrQz4MiYxYV8zXA/mTHSwC2sDNkKB7mBiyHNmBVIw/8DOGClqMAVM+bnVlmRW1uKVV39FEAeh+DbtDQoJsGsELgfjk7geat6Q/C8Do7Q8YsgnsTO6IiGtpmwnAuO0PK5HYPO0FEqseADViYTuyQA3Wja8VudoTsYzianSBDcJ0glJRNmHwmgInsDBEJiNvT6Nndwc6QBC1uORNACztDJNPcFrITUueuM4Rhmg3A2BH7aWibCOD97AxJgp/NLhhRjc1lJwgAYAdmvazhlVK5zg8GIcYj+/37DR0/ArCTEyMDXIHm5gI7gmJbew9g97EzZBwsvpCdUBHuSwHk889hZvkmbOj4IbtCRKqHBrDC9TI7QAZw1wBWiHoL2oAl6Yrj/L15KCIj6QPwh9hyZy87RBLS3FxAHP0jgBp2ikjGzc/dm0EODWCFaTIWXRvWRsMIc6A3aapT6Buw3M5gJwgAw6M6eVOihraZgOusE9/L2Ljy+4P+fw7gKUaM7GcWfnXkeewImmJ8NztBxsOqYwArivX3VNaY6XuHiFTUrwew3KcRO+QA/iq7QAaKjmIXyAHewJa/11phSZnNZxeISEj877ChQy8yV7NfzboejnnsDJEqMAUvHBHm6bekbFz1FIAX2RkyhLj2NHbCfryoIZjqdTLm3jSZHTGsGKezEwQA/JHR/xnp55cBqGNXCB5F/8DVYJvSDpEhRPEV7ASajau2ANjKzpAxm43G62axI8alubkA2EXsDCnLXnj0T+wIEaku2oAVrlfYATKAuQawwqPzg0LgehNeRN71Y9S/+VfsCEnQ4tZjYND/xiKVEkcfYCekzOF4iB0hQwprGNB1Bq6KFTC550x2xPC0ASsADi88yo7IDPcr2QkCwG3or1k3ndIMgdvvYmlLPTuDxrXJJtO8kO0tWC8efi4ch7AzpAyOB9G1Yjs7Q0Sqy4ANWKYBrKCYThCGxHEYO0EGcfyEnSA5M2/ZJACnsDNEJAgxouiPsfauPewQSVARXwZwEDtDpHr42ewCAp0hDJF5WBuwAA1gVbUozO9985bVwvxUdobgB+ha8QI7IhPm33AyDAvZGQJHVPPYkP9JMdIAVhimY0fhEnYEjfvXAPSyM2SMYmR7ACuOdH4wcyINbYpIxUUD/rUGsELiGsAKiAE4lB0hg0T4L3aC5EzdhLMAFNgZIhIAx1ewfsWT7AxJ0KLlvwvgo+wMkapiORzAsugxALvYGXKAsDZgmQawqlt8DrtgSPUTTgGQ3w0p4VjDDsiMqHgVO0EAAN9F5y2vDvmfbL71V9D55UD45ewCmo0rXwFc31uzyrCEnTBOF7MDpCyvovcdfb8QkYrrH8BquuYg6H56aHSCMBQNbTOgPx/hie3n7ATJm0A/uSwiaXsRE+zz7AhJ0IKWqXDvYGeIVB87E2iPRv/nqkjXit0AvsXOkAOEswGroe1InSmpdhbm75Ee6fxgEPwRdkFGGAz5HSgJyihfs4bvpBQiIzFcgqbl+V24YDpDmGHHYFHLieyIMVl006EAwhy8l+F8HVvu1MY8Eam4/hc/dxfy+8NYsEwDWKFw1/nBEFmsASxJWQ63NojIgcyvwdqOnewMSVAh+lsAR7IzRKrQVDR0n8COSJ3bQ+wEOcB0nLf8CHYEACAqnslOkMTNwdKWADdNxRrA4nsH030dOyITGtsWA8jfzxAh8ujRUf4JnSEMwwTsxcfZETTdMx6A4XV2hoyVZXMLVtx3Mfa/OiWh07CmiCSk/y+DgmkAKzRRrBOEobCizg+GqCbSAJakTQNYIvJ1dK76D3aEJKihbT4cf8LOEKlecf5+nipGDwJwdoYMUgzkDGFsOj9Y/eqw3U5nRxxIX3sB+BYeXr2XHZEJxVjnB8PwDmYUu0b+R+JN6aTI6PwKdgHNtvYewO5jZ8hY2YXsgjExLGUnSFl+gM6O77EjRKQ69Q9gFTWAFZxIJwiD4dOP+EYAACAASURBVKYNWOHZgyc7NKQo6ZnTXgdgDjtDRKjegNW2sSMkQU3tNUD8D9AnFkUSlMONoptv/RWAp9kZMoh7KGcItYUoDyzIc/b62uPT+cFSNH16AgzN7AwBUMrQoNd8Bxo8D0UTFrQcxY6gKcbabJNVjgsAGDujLM3NBcA/xM6QMrj9b3aCiFSvdzdgTSN3yGA13a+yE2QfM23ACs8voF/mJU0H7TgVQIBnI0QkNYbl6LxFP59Vs707PwvgLHaGSFVzy+e5NceD7AQZxKABLElP5OewE/Yz73PTABzNzsi92DWAVYq9034TgD48HgL30c4PAl0rtgP4WfIxUoIIkX2KHUGzcdUWAFvZGTImh2JBa7Z+Rn5uVgOAmewMKVkfij1fZ0eISPXqH8CK9UtMYN7E2rv2sCNkH4c2YIVH5wclXYVgPiEvIhwPo3PlvewISdCilhMB/wI7Q6TqmeV1o6gGsELjAZwgXNpSD+BUdoakIA7snH3t3tORtc0S1edZbFz1U3ZENrjOD4aiYKMPYPXbnGiHlMEuZxdQuWkLVlZFGTtDGPnF7AQpyyPYfLsu7IhIYvad14g1mRuW7ewA2Y8GsELjGsCSlHmkASyR/HoHxeK17AhJWnQHgInsCpHq58eg8eYp7IrUbZixGYBe4A0LfwBrJ04DUMvOkBQYzuw/dRyMuewA8TXsgkyYf+3BgF3EzhAAsF9i/cofl/jPagArHGejsS2vH4AAopp7AfSyM2Qs4mwNYHmkAaxs0XCmiCSqfwDLtAErMDvYATJApAGs4JhrAEtS5vl9sUIk9+xz2HSb/t6pZotar4Tjw+wMkZww+N4cbvxpj+F4mF0h+zms/419IjcNweTHRPR2n8KOeE/k2TrrU428oPODpYgKlwOoY2cIAKCMr9l4U3IZUjYvXsZOoOm85VUNvGaVNWHesmx8UOG85UfAXD/XZ0c3EGlDtYgkqn8Ay20auUP2pwGskOgEYXjM9Ea4pE0bsETyyLEBXdPvYGdIghraZsLx9+wMkVyJc3raOcJD7AQZxGrIW7BMQzB54sVz2AkD6GuPqweF2rXsiEww0/nBUJiXen4QQOG70NahcHh0JfJ8dtZ0hjCjpmBC/Tx2REl6cQny/Gcse+5D14rd7AgRqW7966+1ASs0O9kBsp/3sQNkkKL/gp0gOTKnvQ7YcSI7Q0RStxewPwTaY3aIJKn4d4Adyq4QyRWzfG4WtfpH4Xv3Aqhnp8g+BT8NwDra80eYC6c9u6TN7WwAX2VnAAAcp7MTcs2xHuu/9BY7I3iNracgxrnsDAEA9KHOnij5n+5asRsNrT8AcHZySVI6PxYLly/Cho717BKK7hkPYNqO1+E4hJ0iZSoWlgDYwM4YlflSdoKUIYo1lCnVZjoWtn2IHZEbG1Y8AYz+Sk7Nvv87I9kaKYv5dnaC7OdwdoAMUufPsRMkR6ZtPxlu2Vh5LCKV4/bX2NDxQ3aGJGhR6wfh+AN2hkgOkbcOkaz/0ltoWP5twH+DnSL7uHHPYTp0qiRXLIwNWItbj0FRH8Sliso55ZZj7ldpoUgwNmFtR5kfGLfNgGsAKxh+OYB8DmBta+/BouX3Ad7CTpEymV8A4H+wM0bUfyZxCTtDSvZTrF+9kR0hUmGnweLH2BG50dRei7XtfaP9Y/0nCA1TEg+S0sXWzU6QfRraJgKYxM6Q/fTgyYPfYEdIjsQ6PyiSQ1vRu+tL7AhJ0NKWejjuhN7VEWHI5wYsAPD4QXaCDETcxrag9TAAh9GeXwj8LITwc0es05d0UbyGnZABBrcr2BGyj5dzfvDd/w42J1AiYxXh0n2DIvkU4y52goxJI5o+PYEdMaLaSY0AprEzpESOu1DC5hoRkfHqH8ByTCZ3yP60ASscM9kBMpi9pHNQkqrITmYniEiqioiiP8KWO3vZIZKgndF/A3AKO0Mkp47F0pZ8nuGLiv+XnSADmPO2sRXiM2nPLSzT0NDGP22vzWtsL2Pd6q3siOA1tHwQwHHsDNmn4OVvbXPflECJjJXjENRPyu8W1g0dTwHQ997smYCe6YvYESMyv5idICWLUYN72REikg/Rvv+rDT9BsR3sAtkn0lr28PgL7ALJHf6L5CKSpluxfsV32BGSoPk3nAzgZnaGSI5F2OnHsyMoOr/8SwDb2Bmyj+MoLGiZynlu0xBMHnkxgDOErg1YTIY10OaFEkRXsQvkPTsx6+Xyt1kd8+I2AO9UPkfGzD3fW+UM97ATZCziC9kFo9AAVnZ8C+tWPseOEJF8eHcAayK1QvYXxRrACkXRNYAVHg1gSdpOYgeISGp+jndq/zs7QhJlKBTvABD2GnuRqlfI789XDp0hDIchqjmV9NQagskjs7PZCQD0tUc1hk1CedN/buoT7Ax5lz+O++8vlv1fu//+IgzfTSBIxu5jaLrmIHYET+1XAWjTedbEtoSdMKxzbzgaAO+kuZTH/G52gojkR/8AlmkDVlAcO9kJso82YIVIA1iSLtcAlkhOODxahq236FO61Wzh8j8CEPonKEVywPL785UGsMLiRdYZQm3AyiXjbsCa014H4GRqQ77FKPgT7Ijg7Zn2MUCvxwbD7NGx/5d1hjAwk9BT+9vsCJrOW14FfA07Q8pk+ABtY+1oCn2XsBOkZO+gru/f2REikh/9A1iuAayguE4QhsNnsAvkAC+yAyRH+j8Zdhg7Q0RS4Phf2LDicXaGJGjejYcg8r9hZ4gIAHh+Tzwf82IXDK+zM+Rdlv4AVlN7DQDW4JdQ+Tzq0x+041QAddSGfNuMJ1e/xo4InkHnB0PSVxzP78jlny6UZDnyfYbQo7vYCVK2GkTRB9kRQ4psKTtBSmS4H2tvf5udISL5oROEIYoLGsAKhesTVwHSBixJT0/dSQCMnSEiiXsJNT2fY0dIwur6VsFxCDtDRAAA+R3Auv/+ImLo0/ehMD8t9efc2z0bQH3qzyshOHjfuRoO0+lLMp0fHM15Le8D8BvsDHnPj7Dptp+P+b8dFbQBKzwfwoLW/H7Q9K3pDwLQIGz2hLfFfGlLPTzALhlabDo/KCKpitD/xrIGsEJS36sBrFCYBrCC46YNWJKm/J7HEckVvxbr7tDPX9WsofUiAJexM0TkPXn/GUtnCINB2IDlrvODeVbbRzxD6BrAonINYI2mzy4HUMvOkH0c4zg/CGDdip9r62dwamB+KTuCZlt7Dxz3sTOkbEvYAQfYHn0QwEHsDCmF/RIbpv8nu0JE8iVCQ9sEaLtHWLYf3M1OkH3cprETZJA40gCWpMf9eHaCiCTN/xVdq/6dXSEJmrdsEoDb2Rkisp/j0NxcYEfQTLBHAPSyMwQAcDwa2lL+UKKGYPItOpv21IbTac8tO1A/U9uARmVXsgtkgMjGN4AFOBzfqUiLVI5Zvs8QQptwMugMLLrpUHbEfiLo/GB23AO0x+wIEcmXCMWeSewI2c/b2Nbew46Qd/kMdoEMsifSCUJJkR/LLhCRRHUjilvZEZKw+kl/CeAEdoaI7KcWzx91ODuCZm3HTjjWsTMEAFBAoe/kVJ/RoA1YeeYxcQMWziQ+d949jrXtfeyIoC1cPhvAB9gZ8p4e1PV8uwKPo8HD8CzA/BvS/dknJBs6noLb0+wMKYsh7mliRwxyMTtAShT519gJIpI/ESzS+cGw7GQHyECuDVhheQtbb3mHHSF5Eh3FLhCRBJm3Yf1t2qxYzRa0zoV7GztDRIZgfgw7gct0hjAUxcJpKT+jBrByzTgbsJqWTweg3295dH5wNBZfxU6Q/azD2tvfrsDjbK7AY0ilRX2XsRPI7mEHSJksCucM4eK2EwCcws6QkqzH+pU/ZkeISP5E8FptwArLm+wA2c90doDs53V2gOSNH80uEJGk+OPoXHUXu0KS1B4hwp0AatklIjKEOM73z1lxpAGsULinN4A1/9qDARyZ2vNJiI6inNHpNZ2+ZIpjDWCNqD0C8n4WLTCG8Z4f7BdrACtIES5nJ1C5fw06B54xfiG74D1F1/nBrDDo5KiIUESoiTWAFRZt9wmJmU4QBsVfYxdIzhhyvplBpGrtgvmfAnB2iCSoYcc1ABawM0RkGHn/OWvTrT+B+U/YGQLA/NTUnqumVifgBPCe9M8Qxq7Nazw/wMbVz7Mjgta4/Xwg5z8XBMcqMzS4ceUrgP2yIo8lleN2Mhrb8nvyc+PKV2B4mJ0hZTkJC5cfx44AALjr/GA27EGd3c+OEJF8iuAawAqL7WIXyACuDVhBcdMGLElPQ9tEOA5mZ4hIEuzz6Fz9LLtCEnTe8iMA/DU7Q0RG4JbvDVj9tAUrCJbeBizX+UEBgIhwhtC1AYvFdX5wVEXT+cGwvILOjqcr93CxtmCFKI7zvXUuNm3GyZoovoCdgIa2iTA0sTOkBI7/H2s7drIzRCSfIgAT2REykGsAKyxT2AEygNkb7ATJkbh4FABjZ4hIxW3EUS+sZkdIwvr8NuiUtEjYDBrAMg1gBeL9mLcspXO1sYZgBECc/gYs4HTCcwqgAazR9L+Z/Ql2hgzgeAwV3RZtmyr3WFJBn0Jzc4EdQfPW9Adh0Ie9syQ2/hlC9yYAWmqSBeYashQRmghe0F8WQXGdIAzLZHaADGCxThBKeiKtvxepQj0w/wzuv7/IDpEENV5/MYCPszNEZFQawKqd+SQAfSqXrxa1k05K5ZnMdIJQAFjaG7AMgIb/OHYjitaxI4JmxY8BmMrOkAEif7Sij+emDVhhOhzPzeIPtLBsa+9BjK+zM6QMhiXsBJjOD2bEizjqpcfYESKSXxGgE4Rh0QnCwExgB8gAHulTKZIewyx2gohUmNnfoHPVD9gZkqC5N01GbF9mZ4hISfSz1tr2Ppg2owRiduLP0NxcgCO9c4cSshOw+OoZqT3bwuXHQgMuHI5voWvFbnZG0GKdHwyMoxA9XtFHnNDzHQD6EFSIIsv3GULoDGHGHIGG604lN3yE/PxSmq/pw7ciwhQhcg1ghcSgDVihaPr0BAD5XcMbInMNYEmK7FB2gYhU1I9Qt/Nv2RGSsEm9/xPAcewMESnJoUB7xI4IgM4QhiDy5AejfnXkyQAmJv48kgWGvvoUt6H53PSeS/YTach2RItuOhSG32BnyH6expMdL1X0Edfe/jaAH1X0MaVC/OOYtyy/7w9u6HgKbk+zM6QcNbwtWI2tpwBIZ2uujFP0VXaBiORbBJhe/AlJDG3ACsXeGfn95SNUrgEsSZHjMHaCiFRMDLfPYO1de9ghkqDGtg/AcC07Q0RKVoP5r6W3ASZUHn0DQB87I/c8hQ1YGoKR/Z2T3lOZzg+y9BXWsBOC5n2XA6hhZ8gAZpU9P/je40JnCMM0BbUTPsqOILuHHSDlcN7ZzNiW0p5bSmfYgq4V32dniEi+RdCn78JiOkEYEP3ZCI3ZG+wEyRNtwBKpGo7bsKFjPTtDEtTUXoM4vhPaXiqSLRZp4L1rxXYYNrAzJIXTgJFrCEYG8LNTfK7T03suGeDn2HTrT9gRYXOdHwyNx8kMYMW2KZHHlfHL+xnCqOZeAL3sDClZE3GLsgawsiB2nRYVEboIjlp2hAxgrhOEoYiL2oAVmtheYydInrjeEBSpCvZLTOj9PLtCErZ3+3IAKb6RKSIVYQUNvPfTGUK+U9HcnOwQr1uKJ+ckeJbiBiyDtq8xGLT9aiQLWk5DqpvgpAS7MN3XJfLIBdMGrFA5lmL+tQezM2g6b3kVhofZGVKymVi486zUn3XuTZMB/2Dqzyvl6kWt/xM7QkQkgoM1LSxDiV0bsIKh85zBiWq0AUvSpDcERaqC/wnW3v42u0IStOjaYwFrZ2eIyFjE+nkLACzSABbfBLxw+HHJPoXOwMl+TsG8Zcl/8G9pSz2A9yf+PHIgT+iUW7WIIm2/Co1jLR5evTeRx945bSuAZB5bxqsWUaGZHUHlfhc7QcpgviT155xUvBDAhNSfV8r1EJ5crSUOIkIXwXRnPSgWaQNWKGpibcAKzbS93ewEyZXD2QEiMl52N7pWPsKukIR5YTWAyewMERkTbRwFgPUrtgF4lp2Rex7NTuyxm5ZPB/yYxB5fsqiA+knJb0XrLswGdP2AoBc99d9iR4SrPYIh32fPQmSe3NDgtvYeAN9L7PFlfAyXsxOo3pz5EAANbWTHhak/o8UXp/6cMgam84MiEoQIQLIr1qU8FmsDVii8oAGssPQk9ikskaEdwg4QkXF5BcXeG9kRkrCF118K2G+yM0RkrEwbsN5l9g12Qu65n5bYY/faGQAssceXbPI0zq/F2rxGYZ3Y8kV9iHA4i3Y2wXE0O0MG8SjprW06QxgsW9y/WTqntrX3wHEfO0NKdh7mtNel+5S2NN3nk7IZXseb0/U7tYgEIYK5BrBCEhe0ASsU7hrACoteuJL0NN48BUDKv8iJSIW1YNOXdbq2mi1omQqzW9kZIjIO5jPYCeEo6gwhW2TJbcCK4+Q3HUkG+dnJP4VOX3L4GnZB2FznB8PzPDZ0/DDh59AAVrgMXnMZO4JLm3MyZDKmdy9I7dka2+YAnt8Bxcyw+/ZtWxQRoYvgpgGskFhRG7BCoQGs0LzFDpAc6embzk4QkXF5CF0r72dHSMKi6EsAjmRniMh4mAaw3tV98Frodx4uR3IDWI65iT22ZFkKG7D0tccR6wz6cBraJsLxO+wMGcTSGBosbkr+OWQc8j0YuaHjKbg9zc6QEhWL6Z0hjHV+MBOKsYYoRSQYEWA17AgZIHJtwArHRHaA7OdNdoDkSI1rAEsku95EHP8pO0IStrB1AYA/ZmeIyDg59DPXu/o/rfsYOyPnZiOpM4GmIRgZ0hwsbalP+Dm0ASt9r6Br9ffYEeGKfwfANHaFDOKW9PlBoOu2HwPYmfjzyFidhgWtef955R52gJTILL0BLIfOD4bvGWxctYUdISLyrggWR+wIGaAv0gascGgAKyiuT4NLeuJYLwaKZNfN2Lj6eXaEJGhOex0M/whAv8eIZJ1pAGs/5jpDyDUV595wVOUftj0CMKfyjytVoA47Csl9bTS0zQQwK7HHl2HYowCcXRGwfG/ZCVMRiJ5I4XkcgN4gD1mEK9kJVFHNvQB62RlSkoWYe9PkxJ9lQctUGBoTfx4ZH3dtvxKRoETwSCcIQxIVdaM2FBZNYCfIQKYNWJKeSG8GimTUWnStvJMdIQmbsvOz0BvZItVCJwgHKto3AMTsjFyr7a38GcKG7hMAHFTxx5XqYH52cg/ep+1XFGmccsuoc685HMCH2BkyiGMzulZsT+nZNqf0PDIWhk/tGxzPp85bXoXhYXaGlKQOk3sXJ/4skS0BUJf488h4FFGI72VHiIgMFAGxThAGpbaPXSDv0p+NwHSzAyRXZrIDRKRse4Hi1dCnzatbQ9tJMP88O0NEKkZD7wNtXPkK9MYkl1vlB7AsPrPijynVw3FOco9teT8lxRDDah9nRwSrUHc5AL3eGprIHkntudz0c07IHEej4Y3z2BlUsWmTTlakcYbQcHHizyHj9RjW3/YiO0JEZKAIMG3ACom7BrBCYfqzERhtwJL06ByOSBZ9AV23/YgdIUkr3gGdiRapJvqZazCDzhBSJTCA5dAQjAzPkOAGLNMGrPRtQectr7IjgmWu84Mh8vjR9J6ruCm155Kx8egKdgLVW9MfBPAaO0NK4J70AJbBbWnCzyHjZTo/KCLhieDQkElIvKgBrFDE+rMRFnubXSC5MpUdICJlMGxB/YwV7AxJWEPr7wGmkyUi1WUi5rTrpMN+TANYTJbIiVsNwchIzkRzczKvPxlOT+RxZXiO9DYJZc2i608HcBY7Qw7QjfqZ6Q1FbVz9PICXUns+KZ/hd7G0pZ6dQbOtvQeO+9gZUpKz0dCW3BWLxS1zARyZ2ONLJXTDC//BjhARGSyCuYZMQhJrACsYppXYYYm1AUvS4z6JnSAiJetDbMuwtl0/Q1Wz+dceDODv2BkikoD37dTPXQN1dnwPsF+yM3LLUfkNWIBOEMpIJuHFo05N4HEN0ABW6jSANYJI26/C9ET6v0ubtmCFbQZ2FnK+9UdnCDOiABTPT+zRiwWdHwyd41/QtWI3O0NEZLAIiDSAFZJ4ot48DIVZxE6QATx6h50geWI6byWSGf532NDxFLtCElao/XsAh7IzRCQBvX0awDqAP8wuyLGDseimyv1903jzFADHV+zxqst2AEV2RBA8rvwZwvnXHQdgSsUfV0bSjYkzNrAjwtQewf1ydoUMKb3zg+9ybE79OaU87leyE6j6X2Pays6QkixJ7qHjnA8iZoDjHnaCiMhQIlisLT8hmaINWOHQn42gRL6HnSB5YnojUCQLzH+C+jf/ip0hCWtoOR/w32NniEhCXIPvBzCdIaSK+06r3GPtOQP9m4jkQGsB/IQdEQTHORV/zJpobsUfU0bmeFxbeYexsPtCAEexM2QIheix1J8zKmoAK3SGS9C0fDo7g8q1BSsb7MJEHnbe56YBtjCRx5ZK+Rk2rlzPjhARGUqE2LQBKyg9+kU9FK4/G0Fx0wCWpEcnCEWyIIYVPoO1d+nvh2q2tKUeiL4CvXktUr28Rj93Deb2TQDaAMxTuTOEDg3BDMdtPRxb2BmBqPwGLH3tpS/S+cFhWazzgyEy/wnWrfiv1J+3rrAJgKf+vFKOCeiJf4cdQRXV3Augl50ho5qNhrYjK/6otbsvAlBb8ceVCvJ7oL9LRCRQEQwaMgnKLg1ghUN/NkLi2MtOkBwx6I1AkdA5voL1K55kZ0jCdkR/DuBUdoaIJMhj/dw1WNeK3TA8wc7IraiCA1iRaQhmOGbrAOiMdL9zUPFhczujso8no9IA1tDm3jQZQL4HOULllv75QQBY27ETwM8ozy2lc7uCnUDVecurMOgseBa4N1X8MSPT+cGwOQqFr7EjRESGE0FDJoE5TgNYoTDXn42QRBrAklTpjUCRsL2ICfZ5doQkrLH1FBg+y84QkaT9P/buPc6uur73//uz9swkgJAAKspFWy9HBUUlR5NJpE3V1oNaq7WpGsD2nCq2YEjSqtS259dp7a9VGplJJqJGexoQYmvssdpAAngZSGYmFyYhkYA3ROSeALlALnPZ63v+GECSzH32Xp/vWuv1/Kcymb336/HozszOXp/9/bCCcGjhBu+C0gqhdisIOYVoOAe1f9odspQBrEEnqXnxy2t8nwxgZesubVj6S++IKD2v/32STvTOwBBC4jOAJUkWNrs9Nsbqt+pyslCepKwhzAVLa72G0BT0jhrfJ2rrVpcTHAFgjBKJNWtR6WipeifgaSHh70ZMQmDFFDLEhUAgahYuffpTsyguU9BXJU3xDgFQZxVOwBqSpWvESgUvtToBy8QQzHA2amdLn1Jtk5R6x8Qhrd0awgsWTJH0iprdH0ZnYZ13QrSCsX4wTn2qNHa4PXrQFrfHxlglCuED3hGunpy+RtJu7wyMxt5e07ubefl5kl5c0/tEbQWGIwHELZECb3TEoyreYI0IJ2BFJeUELGQoBC74A/H6urqWfds7AnU2+/KPKugt3hkAMlBNpnonRKlz+UOStnlnlNTpmrto+qTvZdail0o6afI5RWSdkqRN7ftlgTVUg86r2T3t1dmSGmp2fxid1yq32J2/6MVSeJt3BobUpc4rn3R8fAaw8sBCudcQ7mzpU9DXvTMwqpdo9oLanSRaYf1g5A6o0vQf3hEAMJJEpj7vCDyr3zsAR+DNqpg0JJyAhewYf/+BSD0ua1zkHYE6m7nwNAX7rHcGgIyw+n14Zv/lnVBafTU4BStJX1+DkmKy6oZn/3dqrCEcVLsTsIKx+jJbh6TkNu+IKA2kF0ri93yUnIcGp+zfKq6F5MF5mrP4HO8IX5y0kw9J7dYQBr2zZveFOrD/6zxADACjShQ4VSYiA94BeI7AGwRR4QQsZIu//0CMgi1U15Jd3hmos4qWSjrZOwNARhjAGkG4wbugtEI4e/L3YQxgDa2q3uM3PftfJgawJMk0o4Z3xurLbN2q7tZD3hFxYv1gtIJucn38jpWHJd3p2oCxqaYf9E5wtbFtq4Jt987AKFLVZgCrefEpkt5ck/tCnaQMRQKIHgNYcal6B+A5kmDeCXiOygA/q5AlLgQC8VmrjW3Xe0egzmYtukBBH/DOAJAl4+TR4XQtvV3Sw94ZpWQ1GMCSXluD+yiiH6rnc/ue/S+zHseWeAQ9XzMXnFmT+zKee9ky30GWWM1ceK4kTmOL025tnH6Hd4RkrCHMA9N8SSW/ThIY+Iid6a2qyfM0/R/iukC8TPer+5QfeGcAwGgSWWAFYSyMY3fjYvz/IyaBFYTIFP/QAuJyQNXqZd4RqLMZlxwvC8u9MwBkLOUErBEEGadguUjt1ZO+DwucgDUUs/VH/HeTtkoKPjGRseS8Gt0Tz71MDazzLohSwulXEbtFakm9I6Sw2bsAY/IyzV40yzvCVdJ4vViZGbsXqnnx5AfQgy6oQQvq52tx/P4CgJE1KGiLTKu9QyBJYd/o34PMpLZZFp7vnYGnhcY93gkoFS4EAnH5S21efq93BOqs6bgWSS/zzgCQMUt43TWyNZI+4h1ROqbJnYA145LjFezlNaopmLTriP/saNur5oX3itcAUmLnSfrOpO5jxl88Xxp4UW2CMDq7T93Lf+RdEZ158yp6IMz3zsAwQrjZO0GSlGqLEu8IjEkaLpLU7Z3hpmvJLs1euFZB7/FOwUjC2yT9cOK3b0lke95RsxzUnula7wQAGIsGbVx2jSSO0ASOtrFtpaSVzhUAfHAhEIhF0EZtPPlq7wzU2eCKkkXeGQAcGCdgjeippu/qhP7DkqZ6p5TMSzX30uep4+qnJnTrphNeK6U8t4dSDRuG+GqPGMCSFN446buYUj2X88SyFDj9aigPvuhtkk73zsCQgirpLd4RkqSXPLRTD5x+QNIJ3ikYhWmeZlyySD0rynsKVGrXyAIDWFFL3yqpHmSsxAAAIABJREFUbcI3n/P4m5UmL6hdD2oqaKM6l/7YOwMAxoLPGAAAcCwulgBx6JVV/yfHSxfcvHkVJeErkhq9UwA4SK3BOyFqO5YckPQD74wSMh1qeNXEb56+rnYpRWL3aVP7A0P8wdbMU2IUVIMVhGHy63cwdsHiOEkoNqFykXcChnWnOpc/5B0hSVq9uioFfv7nwws05fjf8Y5w9eT0NTI95p2Bkdhvam7LxP9tmSasH4yacfoVgNxgAAsAAABxCvYZVnqUwIOnXybZm70zAHhJOatlVHaDd0EpVew1E76t2etrWFIcIawf8uuWcgF+0JmaufC0Sd1D0Lk1asHoBtQ/5XveEdE59xMnSOF93hkYjt3kXXAE0xbvBIxRKPla0Z0tfUq1yjsDIzpJh/fMmMTtGcCKV5/S/m94RwDAWDGABQDAsareAQC0Q/0Hr/SOQJ3N+fjpCvp77wwAjhLjdddoKuG/JJaKOZj4ABZDMMMInUN+eSDtyTgkXoneMLk7CJy+lp0u9Xxun3dEdE7of7+k53lnYBghsgEsMYCVI+/V3EtL/nfbrvEuwKjeNqFbnb/gBZImM7yF+vq2Nn/hce8IABgrBrAAADgWFwIBX1UlyZ+oZ0W/dwjqLK18QdI07wwAjgIDWKPasPSXkn7onVE6QWdP4sasgRtKog1Dfn3zFx6X7L6MayJlk1hD2JJIdk7tWjCioNgGWSIRLvYuwLAOyTT0IKyXpLLZOwFjdrwON/2ed4SrjW1bFWy7dwZGYHrrhG7Xb+8U18vjZQw/AsgXfqEAAHAsLgQCvq5SZ+vt3hGos+bL3yfpvd4ZALyFAe+CXDCt8U4oHQsTG8B605+fJenU2sYUwl51nXLX8H8cWEMoSQpvnPBNm/e9TNIJtWvBiEJgAOtocz5+umS/5Z2BYd2q7tZD3hFH2ND6c0m7vTMwRhYu9E6IwLXeARjRHDUvPm7ct0qM9YPx2qXegzd7RwDAeDCABQDAsRjAAvzcqwONf+cdgTqb86kTJVvmnQEgApyANUbGAFbWgr1MFyyYMu7bNaasHxxap9SSDvunwVhDOGjiA1iqsn4wK6bHtOmUbd4Z0UkrF0qqeGdgGEGxXsDmw1f58duaufA07whXScN1kjitPV5TlVRnjesW8+ZVFPT2OvVgsixcx4YEAHnDABYAAMfiQiDgIygkl2jHkgPeIaiztPcfJZ3pnQEgAknK666x6Jq+SdKj3hkl06C9Df9t3LdKw+vr0FIANtraK07AGvRyzV00fUK3DGL4Lyup1o04UFheF3kHYAQhjfXUti3eARizBiWa5x3hqmvJLpnWemdgBFUb3xrCX57eLE6vjVcSOHUOQO4wgAUAwLG4EAh4CPqqNrZ+1zsDdTZ74Zsk/Zl3BoBYJKwgHJOWVLJ13hWlE6qvmcCtOIVoKIltGPnPGzgBa5DpsN4wwZvy3MtKolgHWfzMXvQGiSHAiD2oTe0jrIF1xQBWngSxhjC1a7wTMALT28b1/RWxfjBed2hD+3bvCAAYLwawAAA4WhAXAoHsPayp9invCNTZ3JYGpfYVsZoEwDMCJ2CNmYk1hFlLkrPHfRtjAGsIvUpHWTHVtWSXpAeyyYldmNgaQtNraxyCoaVSY6yr3PykgdOvohbiHRq0xs3eCRgH00w1L36Fd4arJ6evkekx7wwM602aueCkMX93YAArWkGcfgUglxjAAgDgaGa93glA+YTL1NG217sCdXb4iT+XsZoJwHOE5LB3Qm5UqzdL6vPOKJWg8Z2AdcGCKZJeVZ+YXLtd3a2HRv0uYw2hJMls/ANYzYuPk1TuC+JZMW17emAQz2pJZPqgdwVGECzeocGuJbsku887A2NmUvVD3hGudrb0KdUq7wwMq0GVyvlj+s7zF71YmujJo6izAVX7v+4dAQATwQAWAADHCAe9C4CSWa3uZd/yjkCdzb7spTL7/7wzAERn9KEMDNrUvl8Kt3lnlEsY3wDWnso5khrq05JjZp1j+r40MIAlSQrnjfsmic4RJ4xmJd6ThLw07/ltSWd4Z2BYqRrT73tHjCxwClau2MXeBf5YQxi1EMa2hnAgvFOS1TcGExPWasvVj3hXAMBEMIAFAMDRghjAArKzT0l1kXcEMhAalks6wTsDQGTMeN01PqwhzNarNLdl7ANVScopj0NJw9gGsMx66lySF6/WuZ8Y32umUGX1ZXYYwDqaBYYxohZu1/r23d4Vo9jiHYBxeaVmXj7DO8LVxratCrbdOwPDCPbWsX0f6wejZQw5AsgvBrAAADgaFwKB7ARbpM7lD3lnoM6aF31I0ru9MwBEyKq87hqPSuW/vBNKpkkH979szN8djCGYYwU1pt1j+s6kyglYgyp63sC547oFz72s7FfvobE9n8vi3E+coGC/552BEcS8fvAZwRjAypvELvROiMC13gEYhoVzdf6CF4z4PXNbGmR6e0ZFGJ8nNC3lg0cAcosBLAAAjsEKQiAj39fGNj7RVHQzrpgmhSXeGQAilVR43TUeG1p/Lulu74xSqaRnj+O7xzc0Uw53j/nklcGh/Ifrm5MX4Y3j/H4GsLLxPfWs6PeOiMrxfX8g6XneGRhByMGpbVP7bpdU9c7AuHxQ8+aVe/Vt0nCdJH4nxMnUb7814ncc3vsWSdOyycG4BP2b1rb3emcAwEQxgAUAwLEOeQcAJXBQll4iKXiHoM4aD/+zpNO9MwBEqreXAazx49PA2XrNOL6XIZhj2IZx3oBTsCSNfwDLGP7LRvyDLFkzY/1g3J7UwKFN3hGj6rj6KUk/8s7AuLxY95858oBL0XUt2SXTWu8MDMNGWUOYsH4wWpbwYV0AucYAFgAARzNxIRCoO/trdbXf412BOpu58C0yfcQ7A0DE0hMZfB8vYwArY2MbwDp/0YslvbC+KXkUOsf3/cYAliQFO2/M3zu4YofnXhaq1fhXuWWpefEZkuZ6Z2BE+Tm1LWizdwLGKUlZQ5gagyLxGnkAK4R3ZtSB8bDwE3W38vsAQK4xgAUAwNFSHfBOAApuk858sN07AnV2TkuTEn1ZknmnAIjZHgbfx6vp5C5JT3hnlEc4Z0zfVq1y+tWQkq5x3oABrEGv1TktTWP6zgFOv8rIj7R5+b3eEVEJ1QsllXsFWeyC5Who0LZ4F2Ccgn5fzYuP885w9eT0NTI95p2BIb1Sb1n4kiH/5E1/fpak12abgzEJyUrvBACYLAawAAA4mmm/dwJQYH2y8BGtXl31DkGdnfTEFZLO9s4AELUDuTmVISYdLQOS1nlnlMirpZbR3z9L7Q0ZtOTNI+pu/dm4bjGQ9NSpJW+adNLjYxv+CwxgZYSfu0czu8g7AaNIcnRqW4UBrBw6SUrf7R3hamdLn1Kt8s7AMAaGWUPYUOX0qzilGkiu844AgMliAAsAgKMF2+OdABSW2T+pa9md3hmos5mXv1Kyv/LOABA9XnNNmLGGMDvHa9beoT89fwTjBKxjrR/3LbZcdb+k3bVPyaNkrGsIee5lItzkXRCV5gVvFM+92P1MXe33eEeM2eED2yWxmjp3jDWEYg1htGy4NYR2QbYhGBPT957+twAA5BoDWAAAHC3RXu8EoKB+pKa9n/WOQN2ZEvuipKneIQCix2uuieqbcqMkTg/LzmtG/Q4TpxAdI3RO8IasIZQkhTeO6duMIZgMHFbf4du8I+KSXOxdgFEE5ef0K0lPn4q6wzsD4xUu0JsvO9W7wtXGtq0Ktt07A0MJbzvmS+e0NElhmMEsuEoZZgRQDAxgAQBwtJSLgUAdpAr2EXWsPOwdgjqbteiPJB37JhcAHM14zTVhPZ/bJ1mXd0ZpJGHklbrntDRJenU2MTmSasOEbmdiDaEkyUY/AWvevIpY+ZyFW9Wz4qB3RDTmtjRI+pB3BkaRhHwNYEmS2WbvBIxbkxoq7/eOiMC13gEY0umas/BVR3zlxH2/IelEnxyM4ClN7fu2dwQA1AIDWAAAHK1iXAwEas7atbFtoqcgIC/efNmpsnCldwaAnAiBFYSTkrKGMCthlBOwTn78NZKasonJjQM67pSJngbBCViDXv/0gNXw7jvr5ZKOzyanxIJYP/hch/f+tqQXeWdgRAPqPa7DO2L80i3eBZiAwBpCJQ3XidNp4xSO+oBgUmX9YJTCN9Rx9VPeFQBQCwxgAQBwNE7AAmrM7tOUvr/xrkAGKo2tkl7gnQEgLxJec00KA1gZGvmEodRYP3iM0K2OloEJ3TQ1TsAadLx++aJXjfgdDVXWD2YhpAxgPZcF1g/Gr2vwtMycCQxg5dT5mrXo17wjXHUt2SXTWu8MDCHVkesGg73TqQQjMdYPAigOBrAAADha3wFOYwBqKnyMTzGVwKxFc6VwkXcGgBxhBeHkdC//kaSfemeUxMgnYAVjCOZolkz85NONbb+Q9HjNWvKskoyyhpDnXgYe0Kb2u7wjojFzwUmSfs87A6MIlr/1g5LUvfzHEq8Pc8iUhA94R7hLGSCJkum3pJbBa+Fv/vivi7XhMfqFupau944AgFphAAsAgKP1rDgo6bB3BlAQ16p7KZ8YL7rmxcfJwlckmXcKgBxhBWEt3OAdUBLTNefjp4/w55yAdbRqmOTq6bCtNiF5F9444h+n4bUZhZSXhXXeCVGxyu+LtZfxS0I+B7CkIIlTEPMoiA9jPTl9jUyPeWfgGKdo1t43SJIqDZx+FaPB06+CdwYA1AoDWAAADG2XdwCQe6bH1JB+wjsDGbD0byS9wjsDQM6YHvVOyL/AGsKspMlIp2C9PrOOfKiqYcrGSd1DYA2hJCnYyCdgGc+9+jMGsI4QPuxdgFE9rq6Tc/wzNGz2LsCEvFbNi8t9KuPOlj6lWuWdgSFY+vQawnCBbwiGEKTq17wjAKCWGMACAGBoDGABkxV0qda37/bOQJ3NWXyOghi0AzARDGBNVt/h28SqnmwEnT3k189f8AJJL8o2JnKmO9R55ZOTu5OwtTYxufdGDXfC6IxLjpf0skxryqeqpO/73hHRaF58hky/4Z2BUQTdIrWk3hmTsMU7ABMU0gu9E/yxhjBO9lbN/eOpkn7LuwRHCxvU1X6PdwUA1BIDWAAADI0LgsDk3KDupau9I1BvLYnS9MuSmrxLAOSQJQy8T1bPin5Jt3hnlEJiQ5+A1d/ACURHC7Zh0vdhFQawBk3T7AVDD1k1nfBa8d5ufZm6teGLrMt9VviwpIp3BUaR3/WDg9LAAFZeJZovtZT799LGtq0Ktt07A8f4DfWd9A6xQjdCDC0CKJ5yvxgCAGBYgQEsYOL2ScnHvCOQgVlPXCJpjncGgJxK+zklsTZYQ5iFYEOfgKW03Ot2hhLSrknfR3frPeJ0t6dV3jj018Nrs+0opZu8A+ISLvIuwBiESr4HsDa1PyDpIe8MTEDQWWp+/HzvDH+BgZL4nCDZ//aOwDEOqW/qN70jAKDWGMACAGBIxokMwESZPqnu1ge9M1Bnb7r0RTL7R+8MADk2peER74RCqA7cIKnqnVF8YegTsBKdm3FI/Crp5E/AkoKCttXgfvIvpOcN8yc89+qPAaxnzLx8hjTMKlbE5M5i/FvcOAUrtyrzvQvcJY3XS+r3zsBRgmZ4J+AY31LP5/Z5RwBArTGABQDAkIwTsIAJsVvVtfSr3hXIQEPjMkkne2cAyK1edbTxZmstbP7C45I2eWeUwAs14y+ef8xXg1hBeKR71Lm8VieXsIZQkmTDnYDF6Wv1ZHpMXSf3eGdEI0ku9k7AGFjO1w8+I4gBrNwK83TBgineFa66luySaa13BhA9SzktDkAhMYAFAMDQGMACxu+Q0vSjkoJ3COps9qJ3SZrnnQEg13aL3xc1ZKwhzMLU9MhTsOa2NEga+mSs0rLJrx989q4YwHracCdgsYKwnoJullpS74wozG1pkMIHvTMwBsEKMoAVNnsnYMJO1t7KBd4R7kJY6Z0ARO5BnfHI97wjAKAeGMACAGBI1Vp9ahsok7/VpmU/9Y5Anc245HiF0O6dASD3CrAeJyYMYGUiVI8cturf9ypJU31iImU1WT84KBGnDw16oWYuOPOIr7zp0hdJeqFPTmmwfvAZfXvfIek07wyM6rD6Dq33jqiJ42yLGNTPscAawv2n3KDBD5wAGErQdVq9uuqdAQD1wAAWAABDqTTc750A5Eqw7eo71OadgQxMmfoZSb/unQEg937pHVAo3a0/lHSvd0bhBTtyACsN5zqVxKsaajeA1XnyTyU9WbP7yzNrOHINYWOF5159BTXYLd4R8QisH8wFu009Kw56V9RER9teST/zzsCE/a5mXDHNO8LVzpY+BX3dOwOIVhKu804AgHpp8A4AACBKJw48qL1JkGTeKUAODCjRH6tnRb93COqsecEbFexy7wwAhfCAd0DxhBslu8y7otBM5xz5hfR1/HPhCE9oU/vdtbu7llS6/A7Jzq/dfeZV9TxJ//Xsf6aV18o4HKaOtmt928PeEVGYueAkBb3HOwNjYKEY6wefYWGzgr3SOwMTMlVTDv2+pH/1DnFl6Uop4f0T4Fi3q2vZnd4RQEFsVSWZ5x1RGh0tYzq5jwEsAACGsra9V80LH5X0Iu8UIHqmK9XVdod3BuqtJVHYc7WMf0MAqAXjBKzaWyOJAax6CjryBKxgr2f+6jlMG1TzlVHWI4kBLEuOPAHLxAlYdRXWehdEI0nmSTrOOwNjEYq1NjNoi6QLvTMwQUHzVfYBrO72bZq1aLssvN47BYiLrfQuAArksDa0/tw7AkdiBSEAAMNjDSEwGgs/UdO+z3hnIAPNey+XaZZ3BoCCCKwgrLnp4QdiXVu9nXHESh2GYI6Uhs6a36eFrTW/zzyycN6RXwiv8wkpi4INskyKsX4wHx5R17Kd3hE1Zclm7wRMhr1VzYvP8K6IwLXeAUBk+tRX+XfvCACoJwawAAAYHgNYwMhSWeUj6lh52DsEdfamPz9LCn/vnQGgQJLA66xaW9veK+m73hkFZ2rqe5UkqXnxKZLO9M2JTVKHAawKA1iSFHSWzl/wAknSvHkV6ajT2FBLT2r/qd3eEVF4y8KXSIET6PLAtE41P4HQWdPebZL6vTMwYYlC+ofeEe6ShuvE8xh4rjXq+fxj3hEAUE+sDwEAYFh2f9HevwJqyvRldbau985ABhqryxV0oncGgAKp2APeCQV1g6T3eUcUWghnS9osDbyOzzUeoVcnV2+v+b2e/sCP9MDpBySdUPP7zpuq3ijpZj10+ivESrg6su9rZ0ufd0UUBnSRjB90uRA0R82X3+KdUVO9kqSqpEbfEEyY6SJJrd4ZrrqW7NLshWsV9B7vFCAKFjgVDkDhMYAFAMBwgn4p844AImW6X9X0L70zkIFZi35fIfBmIYBa6tX66Y96RxTSQP8NamhMxWRQ/Vg4W5IU7Fz+rfAcpi1Pn8JWW6tXV9W8cLuk2TW/77wJyXmSblbK6su6CmL94DMGhyeQD6+U7JXeEcBRzlPzx1+t7uU/8g5xFcJKyXhPBZB2q/fwjd4RAFBvvCEHAMBwTD/3TgDiFRZoU/t+7wrU2cwFJ8nCMu8MAIVzr9SSekcU0parH5HU451RcIOr38xe79wRlxDqdyqqGc9pSZK98en/+zrfjoJrMAawJGn2wjeJVZcAJq1hvneBu/2n3CBpt3cG4M9WqWcFKzkBFB4DWAAADMfSn3knAJFapa5l3/aOQAYs+SdJZ3hnACgcXmPV1xrvgIJ7ZiCBU4iey5LOut13qq11u+9cCec9/T947tWLhZ9oQysfxJIk2cXeBQCKIMyXSn5m6M6WPgV93TsD8Fe9xrsAALLAABYAAMMJlXskBe8MIDKPyxoXe0cgA82L3yzTx7wzABQSA1j1FIwBrPr6dc351ImSzvEOiUhQsO763XtgAGvQyzXjimlS4ASsekltnXdCFOa2NCiEP/TOAFAIL9ecBTO9I/wZgycou53qbt/mHQEAWWAACwCA4XS3HpL0kHcGEJVgC9W1ZJd3BupsbkuDlH5ZUsU7BUAh3eMdUGgb27ZJesA7o8ASVXvfKel475CI7FR36xN1u/fjTr5L0qG63X9+mKYemiPp17xDCqsSWD8oSYf3XSDpNO8MAAWRJhd6J7jb2LZVwbZ7ZwBuTP/qnQAAWWEACwCAERknNAC/slYb2673jkAGevd8QtIbvDMAFFXg9VV9BUk3eEcUmukD3gmR2VDXe+9oGZC0o66PkRfBPizez62XXjUO3OYdEQVLWT8IoJY+oBmXNHpHROBa7wDAyYAqtso7AgCywj/YAQAYERcIgac9qYr+1DsCGXjL4pdJ+t/eGQAKLOUErAywhrC+LvAOiIqFrvo/hlhDKElB7/FOKK6wXh1XP+Vd4W7GFdMk/a53BoBCeYGmTv1t7wh3ScN1kvq9MwAHt2h928PeEQCQFQawAAAYkXGBEJAk2ae1YekvvSuQgWq6TKxVAlA/VT11yn3eEcWXfE/SQe+KApvqHRCVNFlf/8cwBrAGHecdUFhm67wTotDYO0/8jANQa0HzvRPcdS3ZJdNa7wwgcyGs9E4AgCwxgAUAwEiCfuydAESgU93Tv+gdgQw0L5wv6V3eGQAK7efa2dLnHVF43a2HJP3AOwOl8JA2tv2i7o9i1Z66PwZKLtzkXRAFC6wfBFB7wd6ruZc+zzvDHYMoKJ+9mrr/O94RAJAlBrAAABiJDdzlnQA461WaXiK1pN4hqLPmxadIavXOAFB4O70DSiME1hCi/kz1P/1KkvafulNSbyaPhTJ6UF3L+P00+7KXSjrfOwNAIZ2g3kbW6O4/5QZJu70zgAz9uzpWHvaOAIAsMYAFAMBIpjz/Z+KNfpRZsM9oUzuDiKVQ/WdJL/SuAFBwJn6nZKWSfkdS8M5AwaWhM5PH2dnSJ9OdmTwWymid+HkpqeFiSeZdAaCggi70TnC3s6VPQV/3zgAyY3aNdwIAZI0BLAAARtLRMiDpp94ZgJMd6j94pXcEMjBn8fmS/U/vDAAlkBoDWFnpXP6QpDu8M1BwFjZk9ljBWEOIemH9oMRwBID6Mv2OZi48zTvDHwMpKI2fqqtto3cEAGSNASwAAEZjrMpBKVWVJH+inhX93iGos3NampSmXxKfdgeQhYTXVdky1hCinvbrzEd2ZPdwYWt2j4USqUrJ97wj3DUvfrOkV3tnACi0BiX2B94R7ja2bVWw7d4ZQN0Fu0acMAqghBjAAgBgNGm42zsBcHCVOltv945ABk584tOSzvbOAFAKqYL92DuiXBjAQj3ZRq1eXc3u4cQAFuphk7pbn/CO8Jde7F0AoAwCJ+0NutY7AKizoHRglXcEAHho8A4AACB6SbJTgQ9roFTuUd+hFu8IZGDGFdNkh98khe96pyBWNlvS8d4VKIyfq7v1kHdEqXRPu13Nex6VxLoX1F5IuzJ9vKZ9P1TvtH5JjZk+LoqO9YMzLmmU6YOcUQEgA7M0e8HL1dV+j3eIq6ThOoX+z4rXNCiqoA5tXn6vdwYAeGAACwCA0aTayWIulEiQ2SXqWXHQOwQZ6PncPknv9s5ApJoX/KZkP/DOQIGY7vJOKJ+WVLr8Bsn+l3cJCsi0IdPH61h5WM0Ld0p6Q6aPi2ILDGCp8bgLFPR87wwApWAKNl/SZ7xDXHUt2aXmRTdK4fe8U4D6CNd4FwCAF1YQAgAwmrMe/IkkhlFQDkFfVVfb970zADg7p6VJSq6WGEFGLdk274KSYg0h6mFAUwY2Zf+wgTWEqKUndNZDrF23wPpBABmy+d4FcUgZUEFRHdDUgf/wjgAALwxgAQAwmtWrqwra4Z0BZOBhNfRd4R0BIAIn7vmEpLO9M1A0KQNYHg403SzpsHcGiiZsVcfVT2X+sGY9mT8miivoZq1eXfXOcDXjimmSvcs7A0CpvFqzFp3nHeGu7/AaSbu9M4Das2+6/DsBACLBABYAAGORiAuGKIFwmTZ8cY93BQBnsy97qUx/5Z2BAko4AcvFjiUHJN3qnYGisU6fh005AQs1ZKwfnHLoA5KO884AUDJJeqF3grueFf2SrfLOAGou4XQ3AOXGABYAAGPDBUMU3Wp1L/uWdwSACISG5ZJO8M5A4TyuDUt/6R1RYqwhRG2ZfAaw0obtkgZcHhtFE1QZuNk7wp+xfhBA9oJ9SPPmVbwz/FUZVEHB2H3qPIUP/wAoNQawAAAYC0sYwEKR7VNSXeQdASACsxe+X9K7vTNQSHd4B5RaRd/xTkDBVKzL5XG7Ww9JutvlsVEswXaoc/lD3hmuZl/2UgXN8c4AUEov1gMvnusd4a67fZuCbffOAGomhK9JLal3BgB4YgALAICxOGngh5L6vTOAugi2qPQXHwBIcz51ooLavDNQVKwfdDV4+tid3hkojJ9qfdvDfg9vrCFEDYR13gXuQsMfSTLvDAAlFYw1hJKkwClYKI6KrvNOAABvDGABADAWa9t7xSetUUzf18Y23uwBIKW9fyfpTO8MFFVgAMsfawhRG0EbXB/fAgNYmLxKuMk7IQLzvQMAlJjp/WpefJx3hruk8XrxoV8UQ5c6l/7YOwIAvDGABQDAmIXbvQuAGjsoSy+RFLxDADhrXvw6SR/3zkCBVSu8jvIWjAEs1Iap0/XxU+txfXwUwQGdFHzWaMZizoJZkl7lnQGg1E6S0nd7R7jrWrJLshu9M4BJM05zAwCJASwAAMbOtMk7Aagt+2t1td/jXQHAW0sipV+W1OhdgsJ6Qpuv+ql3ROmd9eBGmR7zzkARVH0HsA423CGp6tqAfDN97+lTrsurmlzsnQAAEmsIB6UMriDvDqsp+YZ3BADEgAEsAADGqmobvROA2gmbdeaD7d4VACLQvOejkpq9M1BgQRvFaYv+Vq+uKtha7wzknOkxdS/3XS2yY8kBST9xbUDelXv94DktTUr0h94ZACCFC/Tmy071rnDXd3iNpN3eGcCEmb6tjra93hkAEAMGsAC2YE0ZAAAgAElEQVQAGKuXPLRT0n7vDKAG+mT6E61ezckBQNnN+Ivny/QP3hkoOE4RjUdIWUOIyQnaoBgGKoNYQ4hJSMs9gHXS3ncq6PneGQAgqUkNlfd7R7jrWdEv2SrvDGDCUuMUNwB4GgNYAACM1erVVd7oRyGY/ZO6lt3pnQEgAk3Vq7gAh7qzlFNEYxHCOkl93hnIs+C7fvBXtnoHILd+xhr2wPpBAPEIrCEcVGWABXn1qKZOv8U7AgBiwQAWAADjwQkOyL8fqWnvZ70jAERg9sLfkMJF3hkovKBkYIt3BJ62qX2/pA3eGcixJMTx/LGUASxM1DrvAFdv+bOTJb3LOwMAnuN8zVr0a94R7rrbtynYdu8MYPzsa+poGfCuAIBYMIAFAMC4GANYyLNUwT6ijpWHvUMAODunpUlBX5Jk3ikovLu14Yt7vCPwHEGsIcREHdLeU+MYfEq1TVLqnYFcKvf6wYHGD0ia4p0BAM9hSsIHvCPiEDgFC/mThq95JwBATBjAAgBgPAb6WKGDHLN2bWyLZW0MAE8n7v2kpNd4Z6AEAqeHRicEBrAwUVu0syWOFZab2vfLws+8M5A7vZrS3+Ed4cqM008BxCeINYSSlDReL6nfOwMYh23atHSHdwQAxIQBLAAAxmPL1Y/Iwk+8M4Dxs/s0pe9vvCsARGD2ZS+VhU97Z6As7DbvAhxl07KfSvqxdwZyyMJ674QjpBbHaVzIkw3quPop7wg3gyu+ZntnAMAQXqfmxa/zjnDXtWSXZDd6ZwBjZlrpnQAAsWnwDgAAIHdSu1Wm/+adAYxP+FipLzYA+JXQ8EVJJ3hnoCQaGMCKUtAamV7lnYGcMXV5JxzBQo9kH/TOQK6Ue/2g0j+SjPXTAOIU0gsl/aV3RgRWSvo97whgDPpVSb/uHQGU3PM08/IZ3hF4jkrYywAWAADjleg2BX3UOwMYO7tG3W0lv9gAQJI0e9EfKIQLvDNQGg9oQ+vPvSMwFFsjhb/wrkCupGpMIhvASrYqBO8K5Ela8gGsRPPFXxkAsUo0X2r5K6kl9U5x1XfwBjUdt1vSC7xTgJHZjVrfvtu7Aii5c5XY7d4ReC77DisIAQAYr2ra4Z0AjJnpMTVUP+mdASACcz51okJo9c5AiVi41TsBw5g6fYOkPd4ZyJU71dG21zviCE3aKjFOgjF7WJuW/tA7wk3z5bMVjJO8AcQr6CzN3vMW7wx3PSv6JVvlnQGMLr3GuwAAYsQAFgAA47Wp/QFJ93pnAGMSdCmfRgIgSUp7/17Smd4ZKBXWD8aqo2VAoeQnwWB8gjZ4JxxjcCCMU/YwNkHrVOqBPbvYuwAARhXsQu+EOFQZbEHsntD0cKN3BADEiAEsAAAmxLigiDy4Qd1LV3tHAIhA8+LXSbrMOwMlE1JeL0XN1ngXIEdMnd4Jw9jqHYDcKO/Q6TktTZLmeWcAwOjCPF2wYIp3hbvu9m0Ktt07Axhe+LrWtvd6VwBAjBjAAgBgIoI6vBOAUeyTko95RwCIQUsipV+R1OhdglJ5VN3Lf+wdgRGYrZU04J2BnLABBrCQZ1WlA9/1jnBz0hPvknSqdwYAjMHJ2mf/wzsiCqaV3gnAsMw4pQ0AhsEAFgAAExGq5X3zFvlg+qS6Wx/0zgAQgVlPXCJppncGSud7KvWqpxzobn1CCt3eGciFB9T1hfu8I4aUqsc7ATkQtEWbv/C4d4Yf+7B3AQCMGWsIB1nDKkn93hnAEO5W19It3hEAECsGsAAAmIhN7Q9I4lQHRMpuVdfSr3pXAIjAzIWnyewfvTNQQsFu8U7AGASxhhBjsd47YFhhgBOwMLrEyrt+sHnxKZIu8M4AgHH4Xc24Ypp3hLuuJbsku9E7AziGidOvAGAEDGABADBxXFhEjA4pTT8qTh0BIEmmJZJO9s5ACXFaaD6EwAAWxsBiXT+owVONLM7TuRAPq67zTnATwgckTfHOAIBxmKrG3vd5R8QhZdAFsUnVX1nlHQEAMWMACwCAiQoMYCFKf6tNy37qHQEgArMX/oZMrG+Ah51PnxaK2G1qv0vSz7wzELlKdYN3wsgCawgxkj06/ZHyrsmxcLF3AgCMm6X8O1aS+g6vkbTbOwP4Ffuutlx1v3cFAMSMASwAACaqMuUHkvq9M4BnBduuvkNt3hkAInBOS5OCviTJvFNQSgyp54rd4F2AqO3Xix+50ztiRMFYQ4gR2C1avbrqXeGiefErJM3yzgCA8bO3qnnxGd4V7npW9EvGaUOISOBUNgAYBQNYAABMVOeVT8q0yTsDeNqApP81+OYMgNKbtudTkl7jnYGSSgIDWHmSBgawMJLOHAyvMICFkdzkHeAnvVgM4wPIp0Qh/UPviDhUGXhBLPar79B/ekcAQOwYwAIAYDJCuNk7ARgU/lkb27j4BEB6y+KXKeivvDNQWn16sulW7wiMw1Mn3yrpSe8MRMrU5Z0wqqSBFYQYTpCsrANYJrGKGkCOJfwMkyR1t29TsO3eGYCk1epZcdA7AgBixwAWAACTkVTWeicAsvATTdn/994ZACJRTZdJOs47AyVlulU7lhzwzsA47GzpUxAfKsDQQrreO2FUXUt2SXrAOwNRulPdrQ96R7iYuXCOpJd7ZwDAhAXN0MwFZ3tnxIG1b4hAkvA8BIAxYAALAIDJ6GztkVTON3QRi1RW+Yg6Vh72DgEQgeaF8yS9yzsDJRZYZ5dPtsa7AFHqV1/vFu+IMTHWEGJI67wD3CR2sXcCAExaUvmgd0IUksbrJfV7Z6DUfqHO1g3eEQCQBwxgAQAwOUEWOAULfoK+pM7W+E8mAFB/cz51oqRW7wyUXYUBrDxqrN4gKfXOQGSCenKzZiQNDGBhCKGc6wfPaWmSwvu9MwBg8sJ8Da5ULbeuJbsku9E7AyUWwkpJwTsDAPKAASwAACYrJFxohJeHNNX+2jsCQCTSvs9IOsM7A6V2t7pbf+YdgQlY375bQZu9MxAZs/x8yt2sxzsB0Tmg6SE/z+FamrbndyWd6p0BADXwcs1ZMNM7Ig4p69/gJSgJ13lHAEBeMIAFAMBkHWi4RRLr35A9C5eqo22vdwaACMxceK4ULvPOQOmxxi7XWEOIY3R6B4zZQP/t3gmIzg+0tr3XO8JFYP0ggAJJkwu9E6LQd3iNpN3eGSil9epqv8c7AgDyggEsAAAma8eSA5J+4J2B0lmlrmXf9o4AEIOWRIm+JKnBuwRll3IqaJ41VBnAwnMFWUOXd8SYbbn6EUkPe2cgKuVcP9i8+BQpXOCdAQA19AHNuKTRO8Jdz4p+yVZ5Z6CMjNPXAGAcGMACAKAmjAuOyNLjssbF3hEAIjFr78ckNXtnoPT2aMqp+TktB8fa0L5d0i+8MxCNn6hryS7viHHa6h2AiKShnANYCh+S1ORdAQA19AI1Hv9274g4VBmEQdYOqW/Kf3hHAECeMIAFAEAtDCTfkRS8M1ASpkU5vCAGoB5mLjxNFv5/7wxAFm5UR8uAdwYmybTWOwGxCDkcqDQGsPCMn2vTsp96R7gI4SLvBACouSRlDaEkdbdvU7Dt3hkoEQv/Vz2f2+edAQB5wgAWAAC1sOWq+yVt9s5AKaxV19LrvCMARKISPi/pZO8MQCH5pncCasACawgxyLTBO2HcLO3xTkAkgtZ5J7hoXvwKmWZ6ZwBAzQV7r+Ze+jzvjDgETsFCdqqsHwSA8WIACwCA2uE4XtTbAVWrl3lHAIhE84LfVLD53hmApKckK+mqp4I5KXxP0lPeGYhANYcDWP0NnICFZ5T0d1L4sCTzrgCAOjhBvY3v8Y6IQtJ4vaR+7wyUwoN6yUPf944AgLxhAAsAgFqpVjn5AXVmV2jz8nu9KwBE4JyWJin5orjIhijYjepuPeRdgRpY294r2fe8M+BuVy7Xtw2eSvyodwbc9aky5QfeEQ5MCqzoAlBcQfyMk6SuJbsku9E7A6XwNa1eXfWOAIC8YQALAIBaGRyMucM7AwUVtFHd07/onQEgEic9cYWk13hnAJKkkHIKaJFYuME7Ae7yd/rVr2zzDoCzoE51Xvmkd0bm5ix+i6SXeWcAQN2YfkczF57mnRGHlLVwqL9g13onAEAeMYAFAEAtGWsIURe9CumfSC2pdwiACMxe8HLJPu2dATztsCpT13pHoIYqtkZS8M6Ao2Cd3gkTZmINYdklJV0/WE0v9k4AgDprUGJ/4B0Rhb7DayTt9s5AkYXN2th2t3cFAOQRA1gAANTSQOUb3gkooGCf0ab2u7wzAEQiJEslHeedATxtbSlPGimy9W0PS+rxzoAjszyfgMUAVtkl6TrvhMzN/eOpMs3zzgCA+mPVqiSpZ0W/ZKu8M1BgZpyyBgATxAAWAAC1tPmqn0j6oXcGCmWH+g9e6R0BIBLNC+dJepd3BvAc3/QOQB2EsMY7AW4Oqu9Aftf4pcbwYLk9og3tO7wjMtc3/d2SpntnAEAGZukti1m3Kkmmld4JKKxeheTfvCMAIK8YwAIAoObs694FKIyqkuRPBj/ZBqD05nzqREmt3hnAcxzUlP7veEegDoIYwCqroE25fu25se0XMj3mnQEvdpPKuEI1pB/2TgCAjJjSdL53RBS62u5QsO3eGSigoDXqbn3COwMA8ooBLAAAaq0SrlcZ3/RFPVylztbbvSMARKLa+w+SzvDOAJ7jP9Vx9VPeEaiDTcu2SnrQOwMO8r1+cFAId3gnwM1N3gGZe/Nlp0r2Du8MAMhMEGsInxVYE4c6SHheAcAkMIAFAECtbVj6S0ld3hnIvXt1oPHvvCMARGLmwnNlutQ7AziC2SrvBNRNUNCN3hHwEDq9CyYtsIawpFI1VL/rHZG5pDJfUpN3BgBk6NWateg874goJI3XS8rvyaWI0S71H1jnHQEAecYAFgAAdcEaQkxKUEgu0Y4lB7xDAMSgJZHpy5IavEuA53hC+6bf4h2BumINYflU1Td1o3fE5IWt3gXwEG7X+vbd3hWZM7vYOwEAMpeknIIlSV1LdknGhyZQS6tyvY4cACLAABYAAPXQUP2G+AQSJiroq9rYWr5PbwMY2uw9fyrTLO8M4Aimf9fOlj7vDNSRJbdIOuidgUztUM/n9nlHTJpVGMAqJSvfaQ0zL3+lpDd5ZwBA5oJ9SPPmVbwz4pCyLg61Y8bzCQAmiQEsAADqYX37bgVxKgQm4mE19F3hHQEgEjMXnqagf/DOAI5hCad9Fl136yEFdXhnIENmG7wTaqK79R5Je7wzkLVwk3dB5ir6I+8EAHDyYj3w4rneEVHoO7xGUvlOgEQ93Kmutju8IwAg7xjAAgCgXsyu805AHoXLtOGLXDACMKgSPi/pZO8M4Cj3qnNap3cEsmCsISyVtMu7oEaCgrh4VC57NeWUzd4RGTMFYwUXgPLiZ+CgnhX9kq3yzkABBPtX7wQAKAIGsAAAqJcpe78lPnmN8Vmt7mXf8o4AEInmBb+pYPO9M4BjhHCN1JJ6ZyAD1WSNpOCdgYz0NxRnsNKsxzsBmbpFHS0D3hGZal7wG5J+zTsDANyY3q/mxcd5Z8Shyto4TNaAqn0M8gFADTCABQBAvXSsPCzTv3lnIDf2Kaku8o4AEIlzWpqk5EuSzDsFOEpQQ+Vr3hHIyJar7lewHd4ZyMQvtOWq+70jamirdwAyVb71g0ou9i4AAGcnycK7vCOi0N2+TcG2e2cg127Slqsf8Y4AgCJo8A4AAKDg/lXSn3lHIAcsLFbn8oe8MwBE4qQnrpDs1d4ZwBC+rw2tP/eOQIaSdI2Cvd47A3VmoTinX0lSEraKc/rKY6Bys3dCppoXHyelf+CdgRoK2igLT3lnFJu9RtIZ3hWosRAulPRN74womFZKavXOQG5xihoA1AgDWAAA1FPX0i1qXrhD0rneKYja99W1bKV3BIBINC9+hZT+lXcGMIz/4x2AjFlYo2B/7Z2BOku1wTuhpjqX/kTNC/dJmuadgrrbWbDT20YX0vfIeG4XSL8ONr5dO5Yc8A4ptOaFn5R0pXcGau6devNlp2rzFx73DnFnDasU+q+U1OidgtzZJyVrvCMAoChYQQgAQL2ZrvVOQNQOytJLJAXvEACRCOlSSVO9M4Ah7FPfof/0jkDGOk/dLOlR7wzUWVKwAazB19as4imDoHXeCZkzsX6wWLYwfJUB0ybvBNRFkxoaft87IgpdS3ZJdqN3BnLp6+puPeQdAQBFwQAWAAB11/g1Sf3eFYiV/bW62u/xrgAQiVkLPyDTO70zgCGZVqlnxUHvDGStJZVprXcF6mqvuk65yzuiDrZ6ByADQTd5J2Tq/AUvkPQ73hmopXCrd0Ep9B66XdKAdwbqINiF3gnxSFkjh/FLeN4AQC0xgAUAQL11LdmloO94ZyBKm3Tmg+3eEQAiMXPBSTJd5Z0BDKsa/sU7AW5YSVFkQV1SS+qdUXMWGMAqvoM6bt9674hMVZMPifVSRXObd0Ap9Kw4qGA7vTNQD+F8venPz/KuiELf4TWSdntnIFd+rM72jd4RAFAkDGABAJCJ5EveBYhOnyx8RKtXV71DAETCks9IOt07Axha2KxNy3q8K+Ckqf8mSb3eGagTs6KtHxxUDfzMKrqgDnWsPOydkanA+sGCGVAytdM7ojzCZu8C1EWiysCHvCOi0LOiX7JV3hnIkaBrvRMAoGgYwAIAIAsbW78nCz/xzkBEzP5JXcvu9M4AEImZl8+Q6TLvDGB4yZe9C+Co4+qnZJzQUVhJQQewNp36I0lPeWegjpKSrR+cteg1kv67dwZqqkedVz7pHVEapk3eCagTYw3hr1RZJ4exStWg67wjAKBoGMACACAbQbIV3hGIxo/UtPez3hEAYtGSyGy5pIp3CTCMvTrQ8O/eEXDHGsJi6lXjni3eEfXRkkra4V2BOrKSDWBZyulXRWN2q3dCqVhgAKu4zlXz4td5R0Shu32bgm33zkAu/EAblv7SOwIAioYBLAAAspL0/R9JB70z4C5VsI+UblUGgOE17/0zmWZ5ZwDDs2u0Y8kB7wo4G6j+l3cC6qKn0K9LzVhDWFy/UOfSH3tHZMgkY8VW0VjKAFaWuk65S9J+7wzUSzrfuyAegVOwMDrjeQIA9cAAFgAAWdnwxT2SvumdAW/Wro1tnd4VACIxc+FpUvgH7wxgRIl9xTsBEdi8/F5Jd3lnoMasoOsHn5Fqq3cC6madd0Cm5lw+V9KvOVegtqpqTLq8I8qlJVUQg7nFNV9q4ZqnJCWN10vq985A1A6oaeBb3hEAUES8GAEAIEtJ+kXvBLj6hab0/Y13BICIJLpK0nTvDGB4dqs6W3d6VyASZqwhLJy02Bf/Q2AAq7CsXOsHU13knYAaM92hjra93hmlY2INYXG9RHP2zfGOiELXkl2S3eidgYiZVqvj6qe8MwCgiBjAAgAgS53tG6Ww2TsDbv6Uf9wCeFbzgt+UxCoZxM1Cu3cCIsIAVtEEVUKxB7Be8tBOsQa+iAbUN+UH3hGZmfvHUyV7v3cGaixVh3dCORkDWEWWphd6J8QjZb0chpcazw8AqBMGsAAAyFpIlnknwINdo+6l5fqUNoDhndPSJCVfkmTeKcDw7D41nfxt7wpE5PQHuiQ97p2Bmrlb69t3e0fU1erVVUk/9M5ArVmnej63z7siM30nvVfSNO8M1Fpyq3dBKTVwAlbB/aEuWDDFOyIKfYfXSCr26zxMkN2njdNv864AgKJiAAsAgKz1H/yGpAe8M5Ah02NqqH7SOwNARE584tOSXu2dAYwoaJk6Wga8MxCR1aursrDOOwM1EtTpnZAJE2sIi6dcH2xJ7WLvBNRcKivJz+DYrG97WKb7vTNQNydrT/IO74go9Kzol2yVdwaidK3UknpHAEBRMYAFAEDWelb0y/Rl7wxkKOjSwp8uAGDsmhe/QmZ/6Z0BjOJJ9U/5F+8IRIk1hIURynHxP6jHOwG1Vi3PIOjsT7xQpt/xzkDN7VB36xPeEaWVarN3AurIjDWEz6qyZg7HSsL13gkAUGQMYAEA4KG34UuSDnlnIBM3qHvpau8IABEJ6VJJU70zgBEF/Wup1jth7HqPWyup3zsDNZCEDd4J2Ug5AatYHlV3+x3eEZkJA/MlNXhnoNaM9YOejDWExRbeoxlXsLZVkrrbtynYdu8MRKVTnUt/7B0BAEXGABYAAB56Pv+YjE+blMB+pemfekcAiMjsyz8o0zu9M4BRpKroau8IRGpwMK8cJycV2yPqar/HOyITfb13SjrsnYFasZslBe+K7ATWDxZSygCWJwawim6qGg+91zsiHoFTsPArJp4PAFBnDGABAOBnqUr1xnEJWfikNrU/4J0BIBIzrpimYJ/3zgBGZVrDp2IxImMNYf6V5fQrDa6Al+70zkCNBN3knZCZmQvOlnSedwZqLqivcb13RKk91dgjacA7A3WUsIbwWY3pdeL0Wgw6pCZjSwMA1BkDWAAAeOladqeC1npnoF7sVnUt+4p3BYCITOn9jKTTvTOAUaV2pXcCIscAVhGUZwBLkmSsISyGVEnDLd4RmbHkw94JqIs71fP5x7wjSm3HkgMKttM7A3UU9DY1Lz7DOyMK69t3S3ajdwYiEPRtdbTt9c4AgKJjAAsAAE+JPuedgLo4pDT9qDjhDMAzZl4+QyFc6p0BjC6s18Y21sthZIMnpP3UOwOTkFRK9vc8MIBVDFvVtWSXd0Q2WhIlmu9dgbpg/WAMWENYdIkU5nlHxCNl7RwkYx0lAGSBASwAADx1Lb1NUpd3Bmrub7VpGRclATytJZHZckkV7xJgVJYwHI6x4hSs/Dqgxml3eEdkKkl6vBNQA0HrvBMyM3vvXAWd5Z2BOjBjACsODGAVXmAN4TP6Dq+RtNs7A64e1ZRTvusdAQBlwAAWAADeLLDmp0iCbVffoTbvDAARad5zqUyzvDOAMbhbXdNZj4yxMWMAK7dCtzpaBrwrMrV32g5Jfd4ZmKSgm7wTshMu9i5AXQRVw3rvCEiydLN3Auruv2vOwld5R0ShZ0W/ZKu8M+Dq2tK9/gcAJwxgAQDgrWvZdyTt9M5ATQxI+l+Db2wAgKSZC0+T9BnvDGBMTP8otaTeGciJ3oPrJe31zsAEWFKy9YOSdrb0SbrLOwOTsl8Dh8pxYk3z4uMU9D7vDNTF3dq09FHvCEjqOuUuSfu9M1BnKatcf6XK+rlSS77mXQAAZcEAFgAA/oKCLfGOQA2YrtTGtq3eGQAikqhV0nTvDGBUpvvVe+jfvTOQI4OfpL/ZOwMTkNoG7wQnrCHMs6BbyvNBl/R9kqZ5V6AOTKwfjEZLqsDvhRK4UJJ5R0Shu32bgm33zoADU4+6W3/onQEAZcEAFgAAMeg/eL1k93lnYFJ+rKZ9nHID4FdmLX67pA95ZwBjEnRleS5so2YsZQ1h/lRVaSzHKUJHM/FBiTxLQpkGPi/yDkC9hNu8C/AcpnL+PiyXl2vOgpneEdEwrfROgItrvQMAoEwYwAIAIAY9K/oV0s96Z2DCUiXJR9Wx8rB3CIBIXLBgiixd7p0BjNHDUvIv3hHIoVC5QVLVOwPjYLpDnVc+6Z3hwlIGsHKtepN3QSZmf+KFkn7bOwN1YikDWFExBrDKIFRYQ/gMa1gliQ/dlEu/KunXvSMAoEwYwAIAIBb9h/9F0i+8MzABQV9SZ+t67wwAEdlX+bSkV3lnAGMSwj+pu/WQdwZyqLv1if/X3r1G2V3X9x7//PbkAlglWBUvhFqhtWoBPTmaDOjSqhwFD1qrtGhLtfaIFg0hlkqPx/ZEa0+VRnNDtGlVist6oWpVEPEaJZkLMKhoUCuCkAgWFEiA3Caz/+cBXhHCJMzMb19er7V4AI/eC1iZwP7s7y/JSO0M9kLTt88PJrNv/1p86NitvpWhd/bHxej27j9JMqt2BtOgNP+ZDWffUDuDXzDLBay+0DQn5RnL/LqaJEPLb0rKp2tnMKMuzCVrbq4dAdBPDLAAoFOMrR1PU86qncFeuyH7lf9TOwLoIINLD0/TnFk7AybpxpSBf6kdQVfzDGFXaTbULqjmrmu1366dwT75TO2AGVOak2snME2a1rraCdzNJStvTMmm2hlMu4dm5y3Prh3ROdr/WruAmVT88waYYQZYANBJbp/3nqT0xzd7e0VpTs26lbfVzgA6SNNelWS/2hkwKSVvdf2K+6U0BljdpDXRvwOsJEnxDGF36o/nBxcufnySJ9bOYLo0X65dwD1oGlew+kFT/rh2QsfYteOCJC4i9YcfZ97ERbUjAPqNARYAdJKNy3Yl+cfaGUzav2Vo9SdqRwAdZPD0l6Tk+NoZMEk/TNP659oRdLmh1d9Mcm3tDCblmr5//qo0BljdZ0fS+krtiBkxMPCy2glMo90Dl9RO4B4ZYPWDkhfmGaf+Wu2MjjC2djwp/1Y7gxlQyr/lojU7a2cA9BsDLADoNPMm/iXJ5toZ3IeSH2VW+/TaGUAHWXDmgUnz9toZMHnlba5fMUUurB3AZJQ+v36VpF3Gaiew177cHz+rlrXSNC+tXcG0+V4ue4en7jpRKZfWTmBGPCA7Zz+/dkTHKDm3dgIzoJTzaicA9CMDLADoNHd9M+UttTO4D+1yei5Z42Q38HNzdrwlySNqZ8Ak3ZCUf6odQc/wDGE3KO31tROqG9/21SQTtTPYG+UztQtmxKItz0xySO0MpovnBzvWzu2XJ9ldO4MZYeT6U0Mrv5amfL12BtPqqmxYcXntCIB+ZIAFAJ1o7kHvSfKd2hncq4sysvIDtSOADrLwtAVJ/qJ2BkxaU/5vf1wUYUbMa69LcnvtDO7DRGOANbZ2W/x3VpfZ3R8DrNI+uXYC06kYYHWqsbXb0pSNtTOYEc/J0Wc8rHZE52j+tXYB0+rc2gEA/coACwA60bplu5PyptoZ3KM7MzHxmtoRQCdZ1kqrvDPJQO0SmKTvZr9559aOoIfcdcH1c7Uz2KNbMvrr364d0RGaXFE7gZ5J3NUAABz5SURBVEkq2ZThs3v/39sFpxyQ5IW1M5hGZbcBVicrGa2dwIyYlYy/uHZEx2jN/kCS8doZTIt22u0P1o4A6FcGWADQqYZXfijJV2tncHflzFx69rW1K4AOsuiW1yRZWDsDJq3J39w19oapVC6sXcCeNBuSZe3aFR3CAKtbNOWi2gkzYu7+f5DkgbUzmDbfz9A7r6sdwR4ZYPWLJn9cO6FjDC2/KSmfrp3BtPhsRtdsrh0B0K8MsACgczVpNW+sHcEvaDKS4Xnvqp0BdJAnn/rwlPLm2hmwF67MyEHn146gB5VZFyQx8OlUpWyondAxWhmrncAkNbm4dsKMaIrnB3ua5wc7XqsYYPWPwTx16WNqR3SOtmcIe1HxvCRATQZYANDJNqz+dJJ1tTNIkuxM0/5zlwOAXzIwe0WSebUzYNKa8td+ljEthpbflOSy2hnci3ZZXzuhY8wZvyLGgt1gd8bnfqF2xLR72umPSJpn1c5gGpW2AVan23Dgt5JsrZ3BjCjZ3bykdkTH2LXjgiQ3185gSm3Nzh2frB0B0M8MsACg07XzN7UTSFLyloyuuap2BtBBFi45NiUn1c6AyStfzsjK/njOiTpKLqidwD3amYMmLq8d0THWnXNHSnN17QzuSzOcsbdtqV0x7SaalyYZqJ3BNGoNGGB1vGXtJH5O9ovSeIbwp8bWjif5QO0MplCTD2ds7bbaGQD9zAALADrd6Kr1afLR2hl97srs3P622hFABzlu8dy0sqZ2BuyFJq1yRu0Iel0xwOpIzaW5aM3O2hUdpSmeIex0Tas/nh9se36wx23O+hXX1I5gMhrPEPaPx2Vw8ZNqR3SO9nm1C5hKxfODAJUZYAFAN5jVen0SH5rUMZFW689/8q0wgLtsGfjfSR5bOwP2wvuzYYVv9jO9hlZ+LSnX1c7g7sqG2gWdp7midgH3oWl/pnbCtDtm6RNSmqNqZzCNmqyrncBktS6tXcAMalquYP3U8Jqvpilfr53BlLg6IyuHakcA9DsDLADoBnd9Y/Kc2hl96h0+sAZ+yeDSw9M0Z9bOgL2wPQOeNGamNJ657DwGWHdXWgZYnazkRxl98FdrZ0y7dvPy2glMt+L5wW4xKy5g9ZOSl+TEEz3/+jONq0k9oTkvSVO7AqDfGWABQLcY2PV3SX5cO6PPXJs7Z7+pdgTQadqrk+xXuwImryzP+lXX166gb1xYO4Bf0iQt34S/u51zx+IDqs7VzmeSZe3aGdNrWStpTqpdwTRr2gZY3eKSlTemZFPtDGbMI/ODRz29dkTHaM3+QBKX/7tbk4GBD9SOAMAACwC6x/p33ZqUt9TO6CNNmtYpuXL5nbVDgA4yePpLkhxXOwP2wk1pTyyvHUE/aX0hybbaFfzMxgyvuKV2RMcZe9uWJNfUzuBetHJx7YRpd/SPn53kkNoZTKsbM7r6u7Uj2AtN4wpWP2naniH8qaHlNyXl07UzuF++/JMXNACobFbtAABgL2ydd04edOupSX6rdkofGEmSLFr67ModQKdo7W6lad5ROwP2SskbM7pma+0M+sjwiu0ZPO0LSTmhdgpJPD+4J1ckOax2BL+iyUQ+Vzti2jUDf+IIW49r4vpV9xlN8uLaEcyU8qI84+Wvybpzd9Qu6RDnJnlB7Qj2UWnOq50AwF0MsACgm2xctiuDS16X5FO1U/rAYEq79//HPzB5jQPCdJ0r8qgb3ls7gj5UWv+QNIY/nWCi+XzthI5VcnaSsdoZ3E27bM3oyv+qnTEDRlOysXYE06jl+cGuU5qPJ2WgdgYzaPsDH5Jkc+2MjrBr24WZvd+ZaZVSO4V9UPb799oJ9IB2PpkBvybC/XS1H6QA0I0Gl1yQ5Hm1MwCAjtWk1Xp6Nqy4pHYIAAAAAECv8xVuAOhGpb0kiRPZAMC9eb/xFQAAAADAzHBOFQC60aZLb838hQ9IytNqpwAAHef2tCZemE2X3l47BAAAAACgH7iABQDdateOtyTlutoZAECHKXlTNpx9Q+0MAAAAAIB+YYAFAN1qbO22NM2ZtTMAgI7y3RzYPrt2BAAAAABAP/EEIQB0s82jGzN/4VOT8pjaKQBAdU1K+cN8afXVtUMAAAAAAPqJC1gA0PUG/iLJ9toVAEBt5bwMrfxi7QoAAAAAgH7jAhYAdLvNI7fk0EUlyTNrpwAA1dySMvv3s2noztohAAAAAAD9xgUsAOgFWw46K8lVtTMAgEpKc0aGlt9UOwMAAAAAoB+V2gEAwBQ5ZunT0m5/OX6+A0C/+UqGVz0jSVM7BAAAAACgH7mABQC9YsOKS5K8t3YGADCjdqUpr47xFQAAAABANQZYANBTWq9P8sPaFQDAjPn7jKz8Vu0IAAAAAIB+ZoAFAL1keMUtaVqn1M4AAGbEldl60FtrRwAAAAAA9LuB2gEAwBTbPPKfOXTR45L8bu0UAGDa7E6r9fyMvXVT7RAAAAAAgH7nAhYA9KKds16b5KbaGQDANCk5KxtWXF47AwAAAAAAAywA6E1jb/9RmpxWOwMAmBbfyZwtf1c7AgAAAACAu3iCEAB61ebRjZm/6Mgkj6udAgBMmXba+YNs+KdraocAAAAAAHAXF7AAoJftHn9NSn5UOwMAmCJNVmR01fraGQAAAAAA/JwBFgD0ssvO+WGa8sraGQDAlLgq+215Y+0IAAAAAAB+mScIAaDXbR75duYPHpbkqNopAMA+25mB9nH5ytof1A4BAAAAAOCXuYAFAP1g19zFSbmudgYAsI+a5m+zfs3Xa2cAAAAAAPCrDLAAoB+MvW1LWuXkJO3aKQDAXtuQ+Te+vXYEAAAAAAD3zBOEANAvNo1cn/mL5iUZrJ0CAEzaHUnruFz8nh/XDgEAAAAA4J65gAUA/WTuljck+UbtDABgkpqyOMMrrq6dAQAAAADAvSu1AwCAGbZw8ePTal2W5IDaKQDAnpSPZHjlH9WuAAAAAABgz1zAAoB+M7rmqpRmae0MAGCPrkl74pW1IwAAAAAAuG8DtQMAgAo2jY5l/qLHJjmidgoA8CvG02qfkOE136sdAgAAAADAfXMBCwD61dxyapJra2cAAHfXvCEb1ozUrgAAAAAAYHIMsACgX61beVvSOinJeO0UAOBnLs7wg99ROwIAAAAAgMnzBCEA9LPNIz/IIQt3ppRja6cAALkh7RyXH7ztjtohAAAAAABMngEWAPS7zaNDmb/oyCSPq50CAH1sd1qtEzK88qraIQAAAAAA7B1PEAIATeaWVyT5Xu0QAOhbJX+dDSsuqZ0BAAAAAMDeK7UDAIAOsXDJkWllJMn+tVMAoL80n8rw6hckaWqXAAAAAACw91zAAgDuMrrqypTm9NoZANBnrs6u/U+O8RUAAAAAQNcaqB0AAHSQTaNjOXTRo5M8sXYKAPSBHWnKcbns7d+vHQIAAAAAwL5zAQsA+GVN69Qkl9fOAIDeV16TkZVX1K4AAAAAAOD+McACAH7Z8IrtGciLktxUOwUAetjKDK98b+0IAAAAAADuPwMsAOBXrV91fdp5UZJdtVMAoAd9MXMP+qvaEQAAAAAATI2B2gEAQIf6wej1OXTR1iTH1U4BgN5Rrsus9nPylbPuqF0CAAAAAMDUMMACAO7dptHRHLrwkKT8t9opANADtqfdPDdDa66uHQIAAAAAwNTxBCEAsGdzti5OMlo7AwC6XJPSvCKjq8dqhwAAAAAAMLUMsACAPVt37o7sHv/9JNfXTgGArlXKmzO0+kO1MwAAAAAAmHqldgAA0CWOWfqEtNsbkhxYOwUAusz5GV71R0ma2iEAAAAAAEw9F7AAgMnZsGJjmvKSJBO1UwCgi1yeXdtfHuMrAAAAAICeNVA7AADoIptHrs4hg3ek5Dm1UwCg85Xr0s4zc9k5t9UuAQAAAABg+hhgAQB7Z/PIcA5ddHCSJ9dOAYAOdnvaOTajq66pHQIAAAAAwPTyBCEAsPd2bl+S5OLaGQDQocaTnJjRVVfWDgEAAAAAYPoZYAEAe29s7Xhac09MckXtFADoME1K86oMrzJUBgAAAADoEwZYAMC+2XDW7ZnVfm6S79ZOAYCOUfK3GVr9vtoZAAAAAADMnFI7AADockcvPixNayjJw2qnAEBVTf45I6tOqZ0BAAAAAMDMcgELALh/htZ8L2mdkOTO2ikAUNGF2e+gU2tHAAAAAAAw81zAAgCmxtGnvSBN+WiSgdopADDDRrNr+zMztnZb7RAAAAAAAGaeD0gBgKmxafQ7OXThtUl5QYy8AegfGzOx+9hc/u6ttUMAAAAAAKjDAAsAmDqbRq/M/EW3JDm+dgoAzIBr0pp4ZkbeeVPtEAAAAAAA6jHAAgCm1ubRSzN/cCDJ02unAMA0uikTA8/KyKrv1w4BAAAAAKAuAywAYOptHvlS5i86MMlg7RQAmAZbUsqzM7JiY+0QAAAAAADqM8ACAKbH5tHP5pBFh6bkSbVTAGAKbUs7x2dk1aW1QwAAAAAA6Ayt2gEAQM9qMv+GV6bkw7VDAGCKbE8pJ2R01fraIQAAAAAAdA4XsACA6XPVVU0edtQnMmv2UUkeWzsHAO6HXSnlxRla+dnaIQAAAAAAdBYDLABget041s6DjvtY5u54UpLfrp0DAPtgPE3rxRleeUHtEAAAAAAAOo8nCAGA6bdx2a7Ma784yUW1UwBgL02kyckZWfGp2iEAAAAAAHSmUjsAAOgjC045ILP3vyAlv1c7BQAmYSIpJ2d45QdrhwAAAAAA0LlcwAIAZs7Y2m3Zb/z5Sfly7RQAuA+7ja8AAAAAAJgMF7AAgJm34JQDMnf//0iTY2unAMA9GE8pL83Qyn+vHQIAAAAAQOdzAQsAmHlja7flwPYJKflk7RQAuJtdSfNHxlcAAAAAAEzWQO0AAKBPXX3pRB503Mcyd8cRSX6ndg4AJNmZJn+YkdWfqB0CAAAAAED3MMACAOq5ed1EDj7qYxmY/YQkj6udA0Bf25Z2XpDRVRfVDgEAAAAAoLsYYAEAdd041s7BR308A7MPS3JE7RwA+tLWlDwvI6u+VDsEAAAAAIDuU2oHAAD8RMngknckOb12CAB95ZY0OT4jq0ZrhwAAAAAA0J1cwAIAOsfm0Ytz6KIdSZ5dOwWAvnBjSvOsDK/+au0QAAAAAAC6lwEWANBZNo1uyCELb0kpz4lrnQBMn2sy0Pq9bFj1ndohAAAAAAB0NwMsAKDzbB69NIcuuibJ85O0aucA0HO+mdbEM7Nh9fW1QwAAAAAA6H4GWABAZ9o0emXmD34jyQuSzK6dA0CPaPKljO/3nIyu+FHtFAAAAAAAeoNnfQCAzrZoycKUfCrJQ2unANDlmnw0+235k6w7d0ftFAAAAAAAeocBFgDQ+Y5efFia1kVJfqt2CgBdqsnqjBy0NFnWrp0CAAAAAEBvMcACALrDk099eGbPviBNFtROAaCrNEnOzPCqf6wdAgAAAABAbzLAAgC6x5FnPCAHjH8kJcfXTgGgK+xMk5dlZNWHa4cAAAAAANC7BmoHAABM2n8Njefgo85Pa/bDU1zCAmCPbkqa4zOy+jO1QwAAAAAA6G0uYAEA3WnwtCVJeXsMygH4VRszMXFCLj372tohAAAAAAD0PgMsAKB7DZ723KR8OMmDaqcA0CFKPpc55Q+zbuVttVMAAAAAAOgPBlgAQHcbXHpE0nwqaX6jdgoAtZW12bXttRlbO167BAAAAACA/mGABQB0v6ed/ojsbj6R5Mm1UwCoYnea5nUZWb2mdggAAAAAAP1noHYAAMD9dv3IHTniKedlRx6ZlCfVzgFgRt2Sdl6Y0dUfrB0CAAAAAEB/cgELAOgtR592SppydpLZtVMAmHZXZqD1wqxfcU3tEAAAAAAA+pcBFgDQe45Z+rS02/+e5GG1UwCYLuUjuXPWK3Ll8jtrlwAAAAAA0N8MsACA3vTk183PrImPJfnvtVMAmFJNSnlzhla+KUlTOwYAAAAAAAZqBwAATIsbhrfm4KM+kFmzHp2UI2vnADAlfpzkDzK86j21QwAAAAAA4KdcwAIAet/gkj9N8u4k+9dOAWAflYxl98SJufTsa2unAAAAAADAL2rVDgAAmHbDq85LU56a5JraKQDsi7I2Ww462vgKAAAAAIBO5AIWANA/Fi5+UErrvSl5Ue0UACbljpTmlRla/aHaIQAAAAAAcG8MsACAflMyePpfJ82bk8yqHQPAvfpmMnFihs/+du0QAAAAAADYEwMsAKA/DS59StL+YJLH1E4B4O7K+3PnrL/IlcvvrF0CAAAAAAD3xQALAOhfdz1J+E8pOal2CgBJki0pzas9OQgAAAAAQDcxwAIAGFzyp0nOSfKA2ikA/au5NAMDL8n6FdfULgEAAAAAgL1hgAUAkCSLTn9ckg+mNEfVTgHoM02arMn49jMytna8dgwAAAAAAOwtAywAgJ8aXLp/0vxD0pwWv08CmAnfT8nLMrTqK7VDAAAAAABgX/lgEQDg7gZPe1ZKeV+azK+dAtDDzs/Arldl/bturR0CAAAAAAD3hwEWAMA9WXDmgZmz86ykOaV2CkCPuTlpXpXh1R+vHQIAAAAAAFPBAAsAYE+OPv3FaZp3J/n12ikAPeDitCZekQ1n31A7BAAAAAAApooBFgDAfTnmtY9Mu/XupJxQOwWgS92WlL/M8Mr31g4BAAAAAICpZoAFADBZg0tOTMk5afKQ2ikAXaPJpzMx8Opc9o5NtVMAAAAAAGA6GGABAOyNo894WJrdy5Pm5NopAB3utpTmzAytXls7BAAAAAAAppMBFgDAvli09ISU9ruTPLJ2CkAHuiCtiVdlw9k31A4BAAAAAIDpZoAFALCvnvKaX8+sWcvT5GXx+yqAJPlB0izO8OqP1w4BAAAAAICZ4oNCAID765ilT0u7/e4kj6+dAlBJOyn/kvbEX2V0zdbaMQAAAAAAMJMMsAAApsKCU2Zn7v6vS5NlSfarnQMwY5ry9aR5VUZWjdZOAQAAAACAGgywAACm0tGLD0ta70qTY2unAEyzbSl5c+Yc9PasW7a7dgwAAAAAANRigAUAMPVKFp3+0pTmrCSPrB0DMOVKPpyJ9hkZXbO5dgoAAAAAANRmgAUAMF0WnHJA5h7w+jTNXyeZWzsHYAp8J8mSDK+6uHYIAAAAAAB0CgMsAIDpNrj08KS9MsnzaqcA7KPbUvLWbDloRTYu21U7BgAAAAAAOokBFgDATFm05PkpeUeSw2qnAExSO6V5bwaaN+SSNTfXjgEAAAAAgE5kgAUAMJMWnDI7c/f7s6T8fZo8pHYOwB58MWmfkeE1X60dAgAAAAAAncwACwCghsGlD07Tfn1KTk8yt3YOwM+U5j/TlDdmeNX5tVMAAAAAAKAbGGABANS08LTfSqv8fZITa6cAfe+WlJyVLQetyMZlu2rHAAAAAABAtzDAAgDoBIOLn56m9daULKqdAvSdbUlWZ255W9atvK12DAAAAAAAdBsDLACATrJo6bNT2v+Y5Im1U4CeN56U96W1+03ZcPYNtWMAAAAAAKBbGWABAHScZa0M3vqiJP8vyeG1a4Ce007y0aT1hgyvuLp2DAAAAAAAdDsDLACATvWEZXNy4K3/K03emOQRtXOArtck5ZMp7TdmaPU3a8cAAAAAAECvMMACAOh0T1g2Jwfe8vI05W+TPKp2DtCNms+nlDdkaNVltUsAAAAAAKDXGGABAHSLnw+x/ibJIbVzgI7XJLkwrdabsmHF5bVjAAAAAACgVxlgAQB0G0MsYM/uGl61m2UZXT1WOwYAAAAAAHqdARYAQLc6bvHc3Dpwclrtv0pTfrt2DlDdeFI+lNI+K0Orv1k7BgAAAAAA+oUBFgBA11vWyqItz0vab0jJoto1wIzbmZSPpN3+u4yu/m7tGAAAAAAA6DcGWAAAvWThkqemlTOTPC9+rwe9bmuanJvZ5a25ZOWNtWMAAAAAAKBf+VAOAKAXDS5+UtI6PclJSebUzgGm1HeTrM6ds9+XK5ffWTsGAAAAAAD6nQEWAEAvO/qMhyXjf5Ymi5M8qnYOcL9sSLIqh9zwsZx//kTtGAAAAAAA4C4GWAAA/eAJy+bkQbeelOQvkxxZOweYtF1J+XDazfKMrrqydgwAAAAAAPCrDLAAAPrNotOfkVbz6jR5YTxPCJ3qmpSszUD7vblkzc21YwAAAAAAgHtngAUA0K8WLjk4A3l5mpyS5DG1c4C0k+aLSVnrmUEAAAAAAOgeBlgAAH1vWSvH3PLctPPqpByfZKB2EfSZHyR5T9rtf87oms21YwAAAAAAgL1jgAUAwM8d89pHpt06MSl/nuSI2jnQw3Yl+WyS87Jr+39kbO147SAAAAAAAGDfGGABAHDPFp62IK3WKUnzkiQPrJ0DPeKqlJyXzH5fhpbfVDsGAAAAAAC4/wywAADYs2ec+mvZMefFSfOnKXl6klbtJOgyN6WUD6edczOy8oraMQAAAAAAwNQywAIAYPJ+/kThiUmOjt9Pwr3ZnuSCNK33Z/zOz3hiEAAAAAAAepcPzAAA2DdHv+Y3klknpcmfJXls7RzoADuTfC7J+blz9kdz5fI7awcBAAAAAADTzwALAID7b3Dxk1LKi9KUFyX5ndo5MIO2J7k4JR/NnHJB1q28rXYQAAAAAAAwswywAACYWk9d+phMTJzwk2cKj6mdA9Nge5IvJDk/7fZ/ZHTN1tpBAAAAAABAPQZYAABMn8GlhyftFybleUlzTJJZtZNgH/0wyYVJuSApF2d4xfbaQQAAAAAAQGcwwAIAYGYcecYDcsDEM1Oa/5k0z0/y8NpJcB+uSpNPpckFGT1oKFnWrh0EAAAAAAB0HgMsAABm3oknDuSGQ45Ou318So5NkycladXOou/dmjRfSCmfTZm4MBvOvqF2EAAAAAAA0PkMsAAAqG/BXz4kc3b/XlKenTT/I8mjayfRFyZS8rW08/mk9fmM3/nljK0drx0FAAAAAAB0FwMsAAA6zzFLHpt2jk2apyflaUkOrp1ET5hI8tUklyT5YuaOr8u6c+6o3AQAAAAAAHQ5AywAADrfU5c+JhPtpyblmKQ5Nslv1k6iK+xOydfTzoaUrM/Ars9n/bturR0FAAAAAAD0FgMsAAC6z1Ne+5tpzTo6rSxM0yxK8sQks2tnUd0PkzKaNCNpykjGt12asbXbakcBAAAAAAC9zQALAIDu94yX75cd8xYkWZjSLEry5CSPrhvFNNueJl9PKaNJRtNkOCMrv187CgAAAAAA6D8GWAAA9KaFix+UtI5Mq1mQtBakNI9PkyOSzKmdxl7bmuQbaTKWkrG0m42548HfyMZlu2qHAQAAAAAAGGABANA/Bpfun+SIpH1EUn4naX43KY9Lmt+onUaSZFuSb6fJVSnZmCZXJeVKl60AAAAAAIBOZoAFAADHvP6BaXbeNchql8emNIcl5fAkhyV5YO28HtOkZHPauTqt5ntp57vJwLcyKxuz/sDvJ8vatQMBAAAAAAD2hgEWAADsycIlB6eUw5P24SnlMUkenSbzU3JIkvlJ9qtc2IluTrIpJZuTcl3azbVJvpemfXX2v/2arDt3R+1AAAAAAACAqWKABQAA98fCJQdnVmt+2s0hadrzU1oPTdM8PK0cnCYPTXLwT/54QOXS+6udu4ZVNye5KckPk3JzmuampPlBSjanVTan3bo+wyu2100FAAAAAACYOQZYAAAwExacckD23/8hGc+8tNoHpZR5aWdeSualybyU1kFJ9k+aBybN7CTzktbslObX0mT//PzS1pz86phrIMkBSW6/219vJ9nyC39+W9LsTrI1KTuTbEvJnWnKrjTNrSm5LcmtaXJbSm5Lk9sykNvSzL41j7ruxzn//Imp/tsCAAAAAAAAAAAAAAAAAAAAAAAAAAAAAAAAAAAAAAAAAAAAMAP+P7kbg0sFeGCvAAAAAElFTkSuQmCC;strokeColor=#737373;" parent="1" vertex="1">
          <mxGeometry x="860" y="200" width="112.36" height="50" as="geometry" />
        </mxCell>
        <mxCell id="V9Rlgw_xiWvQEG7U__is-12" value="" style="shape=image;verticalLabelPosition=bottom;labelBackgroundColor=#ffffff;verticalAlign=top;aspect=fixed;imageAspect=0;image=https://upload.wikimedia.org/wikipedia/commons/thumb/1/1e/Zigbee_logo.svg/188px-Zigbee_logo.svg.png;sketch=0;strokeColor=#737373;" parent="1" vertex="1">
          <mxGeometry x="880" y="320" width="167.11" height="40" as="geometry" />
        </mxCell>
        <mxCell id="V9Rlgw_xiWvQEG7U__is-13" value="" style="shape=image;verticalLabelPosition=bottom;labelBackgroundColor=#ffffff;verticalAlign=top;aspect=fixed;imageAspect=0;image=https://aptinex.com/wp-content/uploads/2017/09/iot-lora-alliance-logo.svg.png;strokeColor=#737373;" parent="1" vertex="1">
          <mxGeometry x="850" y="400" width="90" height="90" as="geometry" />
        </mxCell>
        <mxCell id="V9Rlgw_xiWvQEG7U__is-25" style="edgeStyle=orthogonalEdgeStyle;curved=1;rounded=0;orthogonalLoop=1;jettySize=auto;html=1;exitX=0.5;exitY=0;exitDx=0;exitDy=0;entryX=1;entryY=0.5;entryDx=0;entryDy=0;fillColor=#f5f5f5;strokeColor=#737373;" parent="1" source="V9Rlgw_xiWvQEG7U__is-15" target="V9Rlgw_xiWvQEG7U__is-7" edge="1">
          <mxGeometry relative="1" as="geometry" />
        </mxCell>
        <mxCell id="V9Rlgw_xiWvQEG7U__is-15" value="" style="shape=image;verticalLabelPosition=bottom;labelBackgroundColor=#ffffff;verticalAlign=top;aspect=fixed;imageAspect=0;image=https://upload.wikimedia.org/wikipedia/commons/thumb/4/48/Synology_Logo.svg/300px-Synology_Logo.svg.png;strokeColor=#737373;" parent="1" vertex="1">
          <mxGeometry x="679.85" y="570" width="150" height="40" as="geometry" />
        </mxCell>
      </root>
    </mxGraphModel>
  </diagram>
</mxfile>
